<svg xmlns="http://www.w3.org/2000/svg" xmlns:xlink="http://www.w3.org/1999/xlink" width="97" height="106" viewBox="0 0 97 106">
    <defs>
        <filter id="dqku0iey2a">
            <feColorMatrix in="SourceGraphic" values="0 0 0 0 0.200000 0 0 0 0 0.200000 0 0 0 0 0.200000 0 0 0 1.000000 0"/>
        </filter>
        <path id="ysli8hdqub" d="M0 0.059L96.94 0.059 96.94 105 0 105z"/>
    </defs>
    <g fill="none" fill-rule="evenodd">
        <g filter="url(#dqku0iey2a)" transform="translate(-482 -8449)">
            <g>
                <g>
                    <g transform="translate(470 8449) translate(12) translate(0 .66)">
                        <mask id="sggwyvt7fc" fill="#fff">
                            <use xlink:href="#ysli8hdqub"/>
                        </mask>
                        <path fill="#000" d="M90.779 50.684H72.91V15.233c0-4.606 3.465-8.537 8.059-8.982 5.294-.513 9.81 3.688 9.81 8.873v35.56zm-24.03-35.56v83.727H6.161V14.816c0-4.734 3.882-8.608 8.626-8.608h54.905c-1.847 2.5-2.943 5.585-2.943 8.916zM81.845.059H14.788C6.638.06 0 6.685 0 14.816v87.11C0 103.624 1.38 105 3.08 105h66.75c1.701 0 3.08-1.376 3.08-3.074V56.834h20.95c1.7 0 3.08-1.377 3.08-3.075V15.124C96.94 6.838 90.147.059 81.845.059z" mask="url(#sggwyvt7fc)"/>
                    </g>
                    <path fill="#000" d="M41.42 37.815c-3.72 3.679-9.753 3.679-13.474 0-3.72-3.68-3.72-9.645 0-13.324 3.387-3.348 8.77-3.694 12.562-.793l-5.45 5.387-1.686-1.668c-1.203-1.19-3.151-1.19-4.354 0-1.201 1.188-1.201 3.115 0 4.302l3.864 3.821c1.202 1.188 3.15 1.188 4.354 0l6.704-6.63c.802 3.253-.199 6.611-2.52 8.905M53.1 15.55c-1.203-1.188-3.152-1.188-4.353 0l-3.865 3.821c-6.22-5.269-15.496-4.91-21.289.816-6.124 6.056-6.124 15.874 0 21.93 6.127 6.056 16.055 6.056 22.18 0 4.758-4.704 5.977-11.929 2.931-17.919l4.395-4.345c1.201-1.187 1.201-3.114 0-4.303M15.24 83.67c-1.846-.144-3.375 1.385-3.23 3.232.113 1.454 1.29 2.632 2.744 2.748 1.85.148 3.384-1.385 3.236-3.236-.116-1.454-1.295-2.631-2.75-2.744M28.086 89.66c-1.781 0-3.208-1.465-3.078-3.222.114-1.53 1.563-2.778 3.141-2.778h29.704c1.626 0 3.02 1.2 3.139 2.776.131 1.758-1.297 3.224-3.078 3.224H28.086zM15.241 71.67c-1.846-.144-3.375 1.383-3.232 3.23.113 1.454 1.29 2.633 2.743 2.75 1.85.149 3.386-1.385 3.238-3.236-.116-1.454-1.295-2.631-2.749-2.744M28.086 77.66c-1.781 0-3.208-1.465-3.078-3.222.114-1.53 1.562-2.778 3.14-2.778h29.705c1.626 0 3.02 1.2 3.139 2.776.131 1.758-1.297 3.224-3.078 3.224H28.086zM15.242 58.67c-1.848-.145-3.378 1.386-3.232 3.233.114 1.454 1.292 2.632 2.745 2.747 1.85.147 3.382-1.385 3.235-3.234-.115-1.455-1.294-2.632-2.748-2.746M28.15 64.66h29.703c1.626 0 3.02-1.199 3.139-2.775.131-1.758-1.297-3.225-3.078-3.225H28.086c-1.781 0-3.208 1.466-3.078 3.223.114 1.53 1.563 2.777 3.141 2.777" transform="translate(470 8449) translate(12)"/>
                </g>
            </g>
        </g>
    </g>
</svg>
