<svg xmlns="http://www.w3.org/2000/svg" width="100" height="100" viewBox="0 0 100 100">
    <defs>
        <filter id="th8mahmuha">
            <feColorMatrix in="SourceGraphic" values="0 0 0 0 0.200000 0 0 0 0 0.200000 0 0 0 0 0.200000 0 0 0 1.000000 0"/>
        </filter>
    </defs>
    <g fill="none" fill-rule="evenodd">
        <g filter="url(#th8mahmuha)" transform="translate(-1295 -8452)">
            <g>
                <g fill="#000" fill-rule="nonzero">
                    <path d="M94.14 59.489v-38.96V20.508l-.002-.044c-.008-.573-.18-1.1-.468-1.544-.008-.012-.014-.025-.021-.037l-.005-.007-.007-.01L81.93 1.305C81.386.49 80.472 0 79.492 0H26.367c-.98 0-1.894.49-2.438 1.305L12.221 18.867l-.004.007-.006.009c-.01.014-.017.03-.026.044-.305.474-.456 1.002-.464 1.537l-.002.044V58.985H2.93C1.313 58.985 0 60.296 0 61.915V97.07C0 98.688 1.312 100 2.93 100h11.718c2.631 0 4.995-1.164 6.607-3.002 3.078.865 10.102 3.001 19.968 3.001h26.55c6.421 0 12.554-3.066 16.407-8.203l14.065-18.753c3.547-4.73 1.487-11.572-4.104-13.555zM64.649 5.859h13.276l7.813 11.72H64.648V5.859zm-17.578 0h11.72v11.72H47.07V5.859zm0 17.579h11.72v15.229l-4.235-2.823c-.984-.656-2.267-.656-3.25 0l-4.235 2.823v-15.23zM27.935 5.86h13.276v11.719H20.123l7.812-11.72zM17.578 91.21c0 1.616-1.314 2.93-2.93 2.93H5.86V64.844h8.79c1.615 0 2.93 1.314 2.93 2.93V91.21zm0-31.722V23.438h23.633V44.14c0 2.338 2.613 3.732 4.555 2.438l7.164-4.776 7.164 4.776c1.936 1.29 4.554-.09 4.554-2.438V23.438h23.633v36.055c-1.322.469-2.53 1.248-3.502 2.291l-8.61 9.244c-1.114-3.578-4.456-6.184-8.396-6.184H53.85c-1.895 0-3.722-.69-5.145-1.941-7.65-6.733-19.15-6.792-26.874-.186-1.04-1.474-2.522-2.615-4.252-3.228zm75.98 10.04h-.001L79.492 88.282C76.74 91.95 72.36 94.14 67.773 94.14h-26.55c-6.87 0-12.268-1.053-17.833-2.617.012-.336.008 1.453.008-22.426l2.081-1.796c5.517-4.855 13.837-4.855 19.354 0 2.493 2.193 5.695 3.401 9.016 3.401h13.924c1.616 0 2.93 1.315 2.93 2.93 0 1.615-1.314 2.93-2.93 2.93H46.68c-1.618 0-2.93 1.311-2.93 2.93 0 1.617 1.312 2.93 2.93 2.93h23.057c2.43 0 4.775-1.02 6.431-2.8l12.898-13.845c.561-.602 1.323-.934 2.145-.934 2.413 0 3.784 2.768 2.347 4.684z" transform="translate(1240 8452) translate(55)"/>
                    <path d="M79.492 53.125H67.773c-1.618 0-2.93 1.312-2.93 2.93s1.312 2.93 2.93 2.93h11.72c1.617 0 2.929-1.312 2.929-2.93s-1.312-2.93-2.93-2.93z" transform="translate(1240 8452) translate(55)"/>
                </g>
            </g>
        </g>
    </g>
</svg>
