<svg xmlns="http://www.w3.org/2000/svg" width="100" height="100" viewBox="0 0 100 100">
    <defs>
        <filter id="wzkeuqq9ka">
            <feColorMatrix in="SourceGraphic" values="0 0 0 0 0.200000 0 0 0 0 0.200000 0 0 0 0 0.200000 0 0 0 1.000000 0"/>
        </filter>
    </defs>
    <g fill="none" fill-rule="evenodd">
        <g filter="url(#wzkeuqq9ka)" transform="translate(-1015 -8452)">
            <g>
                <g fill="#000" fill-rule="nonzero">
                    <path d="M83.314 50.298l-1.71-8.553 8.898-8.899C96.627 26.722 100 18.58 100 9.906 100 4.444 95.556 0 90.083 0c-8.662 0-16.804 3.373-22.93 9.497l-8.899 8.9-8.553-1.711c1.624-3.64.947-8.066-2.036-11.05-3.862-3.862-10.147-3.862-14.01 0l-6.532 6.534-9.794-1.958c-3.615-.723-7.329.402-9.936 3.008-4.809 4.81-4.14 12.784 1.385 16.73l22.294 15.925c-2.771 3.197-5.277 6.592-7.517 10.163H9.048C4.059 56.038 0 60.096 0 65.085c0 3.423 1.963 6.617 5.002 8.136l8.323 4.161-3.719 8.676c-1.17 2.733 1.603 5.506 4.336 4.335l8.676-3.718L26.779 95C28.3 98.037 31.492 100 34.915 100c4.988 0 9.047-4.059 9.047-9.047V76.445c3.57-2.24 6.966-4.746 10.162-7.517L70.05 91.222c3.947 5.525 11.919 6.197 16.73 1.385 2.607-2.607 3.732-6.321 3.009-9.936l-1.959-9.793 6.534-6.534c3.862-3.862 3.862-10.147 0-14.01-2.983-2.982-7.409-3.659-11.05-2.036zM38.326 10.307c1.287-1.287 3.382-1.288 4.67 0 1.287 1.287 1.287 3.382 0 4.67l-.307.306-7.784-1.556 3.42-3.42zm-25.71 14.27c-3.818-2.728-1.23-8.819 3.418-7.89l36.608 7.322-17.008 17.008-23.017-16.44zM7.956 67.312c-.82-.41-1.35-1.284-1.35-2.228 0-1.347 1.095-2.444 2.443-2.444h10.78c-1.476 2.919-2.126 4.528-3.897 8.66l-7.976-3.988zm29.403 23.64c0 1.347-1.096 2.443-2.443 2.443-.944 0-1.819-.53-2.229-1.35l-3.988-7.977c4.096-1.755 5.734-2.417 8.66-3.896v10.78zm16.43-30.73C41.878 72.13 31.145 75.834 18.927 81.07c5.237-12.218 8.94-22.95 20.849-34.858l32.046-32.046c4.878-4.877 11.362-7.563 18.27-7.563 1.822 0 3.303 1.481 3.303 3.314 0 6.897-2.686 13.381-7.563 18.259L53.787 60.222zm21.636 27.16L58.983 64.366 75.99 47.358l7.322 36.608c.917 4.59-5.132 7.278-7.89 3.418zm14.27-25.709l-3.421 3.42-1.557-7.782.307-.308c1.288-1.287 3.382-1.287 4.67 0 1.288 1.288 1.288 3.383 0 4.67z" transform="translate(990 8452) translate(25)"/>
                </g>
            </g>
        </g>
    </g>
</svg>
