<svg xmlns="http://www.w3.org/2000/svg" width="116" height="80" viewBox="0 0 116 80">
    <defs>
        <filter id="qsf6dy78ja">
            <feColorMatrix in="SourceGraphic" values="0 0 0 0 0.200000 0 0 0 0 0.200000 0 0 0 0 0.200000 0 0 0 1.000000 0"/>
        </filter>
    </defs>
    <g fill="none" fill-rule="evenodd">
        <g filter="url(#qsf6dy78ja)" transform="translate(-732 -8462)">
            <g>
                <g fill="#000" fill-rule="nonzero">
                    <path d="M86.896 50.877c-7.997 0-14.503 6.506-14.503 14.503S78.9 79.883 86.896 79.883c7.999 0 14.503-6.506 14.503-14.503s-6.506-14.503-14.503-14.503zm0 21.754c-3.999 0-7.251-3.252-7.251-7.251 0-4 3.252-7.251 7.251-7.251 4 0 7.252 3.252 7.252 7.251 0 4-3.252 7.251-7.252 7.251zM37.345 50.877c-7.997 0-14.503 6.506-14.503 14.503s6.506 14.503 14.503 14.503 14.503-6.506 14.503-14.503-6.506-14.503-14.503-14.503zm0 21.754c-4 0-7.252-3.252-7.252-7.251 0-4 3.253-7.251 7.252-7.251 3.998 0 7.251 3.252 7.251 7.251 0 4-3.252 7.251-7.251 7.251zM96.663 9.365c-.616-1.224-1.87-1.996-3.24-1.996H74.327v7.251h16.86l9.873 19.637 6.48-3.259L96.663 9.365z" transform="translate(675 8462) translate(57)"/>
                    <path d="M48.585 61.875H76.02V69.126H48.585zM26.468 61.875h-12.57c-2.002 0-3.625 1.623-3.625 3.626s1.623 3.626 3.626 3.626h12.569c2.003 0 3.625-1.624 3.625-3.626 0-2.003-1.623-3.626-3.625-3.626zM114.295 39.71l-7.132-9.185c-.685-.885-1.743-1.402-2.863-1.402H77.953V3.743c0-2.003-1.623-3.626-3.626-3.626H13.9c-2.003 0-3.626 1.623-3.626 3.626 0 2.002 1.623 3.625 3.626 3.625h56.803v25.38c0 2.003 1.623 3.626 3.625 3.626h28.197l5.28 6.802v18.699h-10.03c-2.003 0-3.626 1.623-3.626 3.625 0 2.003 1.623 3.626 3.625 3.626h13.657c2.003 0 3.626-1.623 3.626-3.626V41.934c0-.805-.268-1.588-.761-2.224zM26.226 43.505H9.548c-2.003 0-3.626 1.623-3.626 3.626 0 2.002 1.623 3.625 3.626 3.625h16.678c2.003 0 3.625-1.623 3.625-3.625 0-2.003-1.622-3.626-3.625-3.626zM34.565 29.244H3.625C1.624 29.244 0 30.867 0 32.869c0 2.003 1.623 3.626 3.626 3.626h30.94c2.002 0 3.625-1.623 3.625-3.626 0-2.002-1.623-3.625-3.626-3.625z" transform="translate(675 8462) translate(57)"/>
                    <path d="M40.487 14.982H9.547c-2.002 0-3.625 1.624-3.625 3.626 0 2.003 1.623 3.626 3.626 3.626h30.94c2.002 0 3.625-1.623 3.625-3.626 0-2.002-1.623-3.626-3.626-3.626z" transform="translate(675 8462) translate(57)"/>
                </g>
            </g>
        </g>
    </g>
</svg>
