<?xml version="1.0" encoding="utf-8"?>
<!-- Generator: Adobe Illustrator 24.3.0, SVG Export Plug-In . SVG Version: 6.00 Build 0)  -->
<svg version="1.1" id="圖層_1" xmlns="http://www.w3.org/2000/svg" xmlns:xlink="http://www.w3.org/1999/xlink" x="0px" y="0px"
	 viewBox="0 0 50 50" style="enable-background:new 0 0 50 50;" xml:space="preserve">
<style type="text/css">
	.st0{fill:#F0BB41;}
	.st1{fill:#1D2B5B;}
	.st2{fill:#B22023;}
	.st3{fill:#FFFFFF;}
	.st4{fill:#1A2B58;}
</style>
<g>
	<path class="st0" d="M39.5,14.6l-6.2-3l-14.8,7.1c-0.7,0.3-1.1,1-1.1,1.7V23c0,0.3-0.2,0.6-0.5,0.6c-0.3,0-0.6-0.2-0.6-0.5V23v-2.6
		c0-1.2,0.7-2.3,1.7-2.8L32,11l-5.9-2.8c-0.6-0.3-1.4-0.3-2,0l-13.5,6.4c-0.8,0.4-1.3,1.2-1.3,2.1v15.5c0,0.9,0.5,1.7,1.3,2.1
		L24,40.8c0.6,0.3,1.4,0.3,2,0l13.4-6.5c0.8-0.4,1.3-1.2,1.3-2.1V16.7C40.8,15.8,40.3,15,39.5,14.6z"/>
	<path class="st1" d="M40,13.5L26.7,7c-1-0.5-2.1-0.5-3.1,0l-13.4,6.5c-1.2,0.6-2,1.8-2,3.2v15.5c0,1.3,0.8,2.6,2,3.2l13.4,6.5
		c1,0.5,2.1,0.5,3.1,0L40,35.3c1.2-0.6,2-1.8,2-3.2V16.7C42,15.4,41.2,14.1,40,13.5z M40.8,32.2c0,0.9-0.5,1.7-1.3,2.1l-13.4,6.5
		c-0.6,0.3-1.4,0.3-2,0l-13.5-6.5c-0.8-0.4-1.3-1.2-1.3-2.1V16.7c0-0.9,0.5-1.7,1.3-2.1L24,8.1c0.6-0.3,1.4-0.3,2,0l5.9,2.8L18,17.7
		c-1.1,0.5-1.7,1.6-1.7,2.8v3.7c0,0.3,0.3,0.6,0.6,0.5c0.3,0,0.5-0.2,0.5-0.5v-3.7c0-0.7,0.4-1.4,1.1-1.7l14.8-7.1l6.2,3
		c0.8,0.4,1.3,1.2,1.3,2.1V32.2z"/>
	<path class="st2" d="M16.5,43.4c-4.7,0-8.5-3.8-8.5-8.5l0,0c0-4.7,3.8-8.5,8.5-8.5s8.5,3.8,8.5,8.5C25,39.5,21.2,43.4,16.5,43.4
		L16.5,43.4z"/>
	<path class="st3" d="M20,34.1c-0.4-0.6-1-1.1-1.7-1.3c0.4-0.5,0.5-1.1,0.3-1.6c-0.3-0.9-1-1.5-2-1.6h-3c-0.1,0-0.2,0.1-0.2,0.2v10
		H16c0.3,0,0.6,0,1,0c1.8-0.4,2.6-1.4,3-2.1C20.5,36.4,20.5,35.1,20,34.1z M17,32.1c-0.1,0.1-0.2,0.2-0.4,0.2H15v-1.2h1.5
		c0.3,0,0.5,0.2,0.5,0.4C17,31.7,17,31.9,17,32.1L17,32.1z M15,33.9h1.6c0.8,0,1.5,0.4,2,1c0.3,0.6,0.3,1.3,0.1,2
		c-0.3,0.7-1,1.2-1.8,1.2H15V33.9z"/>
	<path class="st4" d="M25.8,25.9c-0.2,0-0.3-0.1-0.4-0.2c-0.2-0.2-0.2-0.6,0-0.8l2.9-2.8c0.2-0.2,0.5-0.2,0.7-0.1l2.4,1.4
		c0.3,0.1,0.4,0.5,0.2,0.7c0,0,0,0,0,0.1c-0.2,0.3-0.5,0.4-0.8,0.2l-2-1.2l-2.6,2.5C26,25.9,26,25.9,25.8,25.9z"/>
	<path class="st4" d="M33.5,23.1c-0.2,0-0.3-0.1-0.4-0.2c-0.2-0.2-0.2-0.6,0-0.8l2.9-2.8c0.2-0.2,0.5-0.2,0.7-0.1l2.4,1.4
		c0.3,0.2,0.3,0.5,0.1,0.8c-0.2,0.2-0.5,0.3-0.7,0.2l-2-1.2l-2.6,2.5C33.8,23.1,33.7,23.1,33.5,23.1z"/>
	<path class="st4" d="M30,35.9c-0.3,0-0.6-0.3-0.5-0.6c0-0.2,0.1-0.4,0.3-0.5c5-2,6.1-3,6.4-3.4c-0.2-0.2-0.2-0.6,0.1-0.8
		c0.2-0.1,0.4-0.2,0.6-0.1c0.3,0.1,0.5,0.5,0.5,0.8c0,0.8-0.8,1.9-7.2,4.5C30.2,35.9,30.2,35.9,30,35.9z M36.5,31.6L36.5,31.6z"/>
	<path class="st4" d="M28.8,30.3c-0.3,0-0.6-0.2-0.6-0.5v-4.2c0-0.3,0.3-0.6,0.6-0.6s0.6,0.3,0.6,0.6v4.2
		C29.5,30.1,29.2,30.3,28.8,30.3z"/>
	<path class="st4" d="M36.5,27c-0.3,0-0.6-0.3-0.6-0.6l0,0v-3.9c0-0.3,0.2-0.6,0.5-0.6s0.6,0.2,0.6,0.5v0.1v3.9
		C37,26.7,36.8,27,36.5,27L36.5,27z"/>
</g>
</svg>
