<?xml version="1.0" encoding="utf-8"?>
<!-- Generator: Adobe Illustrator 23.1.0, SVG Export Plug-In . SVG Version: 6.00 Build 0)  -->
<svg version="1.1" id="圖層_1" xmlns="http://www.w3.org/2000/svg" xmlns:xlink="http://www.w3.org/1999/xlink" x="0px" y="0px"
	 viewBox="0 0 259.7 70" style="enable-background:new 0 0 259.7 70;" xml:space="preserve">
<style type="text/css">
	.st0{fill:#094392;}
	.st1{fill:#2D7FBA;}
	.st2{fill:#696A6A;}
	.st3{fill:#1D2B5B;}
	.st4{fill:#F0BB41;}
	.st5{fill:#B22023;}
	.st6{fill:#FFFFFF;}
	.st7{fill:#1A2B58;}
	.st8{fill:#1B2B58;}
</style>
<g>
	<path class="st0" d="M175.4,36.7h0.8c1.9,0,3.5,0,3.2,2.6c-0.4,2.5-2.1,2.4-3.9,2.4h-0.8L175.4,36.7z M168.2,52.6h4.9l1-6.7h2.8
		c4.3,0,7-2.1,7.7-6.8c0.7-4.6-1.8-6.6-5.9-6.6h-7.5L168.2,52.6z"/>
	<path class="st1" d="M205.1,33.5l-1.3,8.4h0c0.9-1.1,2.2-1.8,3.7-1.8c2.7,0,3.7,1.9,3.3,4.7l-1,6.9H206l0.9-5.8
		c0.2-1.3,0.2-2.7-1.3-2.7c-1.5,0-2.2,1.4-2.4,2.7l-0.9,5.8h-3.7l2.7-18.2H205.1z"/>
	<path class="st1" d="M218.7,43.5c1.5,0,2.3,1.2,2,2.5c-0.1,1.4-1.4,2.5-2.8,2.5c-1.5,0-2.3-1.1-2-2.5
		C216,44.6,217.3,43.6,218.7,43.5z M219.2,40.1c-3.4,0-6.7,2.2-7.3,6c-0.6,3.8,2.1,6,5.5,6s6.7-2.2,7.3-6S222.6,40.1,219.2,40.1z"/>
	<path class="st1" d="M230.4,41.8L230.4,41.8c0.9-1.1,2.2-1.8,3.7-1.8c1.5,0,2.7,0.7,3.3,2.2c0.9-1.3,2.4-2.1,4-2.2
		c2.7,0,3.3,1.9,3,4.5l-1.1,7.2h-3.8l0.8-5.4c0.2-1.2,0.5-3.1-1.1-3.1c-1.7,0-2.1,1.7-2.3,3.1l-0.8,5.4h-3.8l0.8-5.4
		c0.2-1.3,0.5-3.2-1.2-3.2s-2,1.9-2.2,3.2l-0.8,5.4h-3.8l1.7-11.3h3.8L230.4,41.8z"/>
	<path class="st1" d="M249.4,44.4c0.4-1.1,1.4-1.8,2.5-1.8c1,0,1.8,0.7,1.9,1.7c0,0,0,0,0,0.1H249.4z M257,46.3
		c0.5-3.8-1.2-6.3-4.9-6.3c-3.5,0-6.2,2.3-6.8,6c-0.6,3.9,1.7,6,5.3,6c2.4,0,5-1.2,6-3.9h-3.6c-0.4,0.7-1.2,1.1-2,1
		c-1.6,0-2.2-0.9-2-2.5h7.9L257,46.3z"/>
	<path class="st2" d="M225.8,33.3c0.6,0,1.1,0.6,1.1,1.2c0,0.1,0,0.1,0,0.2c-0.1,0.7-0.8,1.5-1.5,1.5s-1.1-0.8-1-1.5
		C224.5,34,225.1,33.4,225.8,33.3z M225.3,37c1.3-0.1,2.3-1,2.5-2.3c0.2-1-0.4-2-1.4-2.2c-0.1,0-0.3,0-0.4,0c-1.3,0.1-2.3,1-2.5,2.3
		C223.3,36,224,37,225.3,37z"/>
	<path class="st2" d="M231.4,32.5h0.6l1.8,3l0,0l0.4-2.9h0.8l-0.6,4.4h-0.6l-1.8-3l0,0l-0.4,2.9h-0.8L231.4,32.5z"/>
	<path class="st2" d="M238.9,36.2h1.2l-0.1,0.7h-2l0.7-4.3h0.8L238.9,36.2z"/>
	<path class="st2" d="M243.9,36.9h-0.8l0.6-4.3h0.9L243.9,36.9z"/>
	<path class="st2" d="M248.1,32.5h0.6l1.8,3l0,0l0.4-2.9h0.8l-0.7,4.4h-0.6l-1.8-3l0,0l-0.4,2.9h-0.8L248.1,32.5z"/>
	<path class="st2" d="M256,33.3l-0.1,1h1.3l-0.1,0.7h-1.3l-0.2,1.2h1.4l-0.1,0.7h-2.2l0.6-4.3h2.2l-0.1,0.7H256z"/>
	<path class="st1" d="M199,39.4l0.9-6c-1-0.5-2-0.8-3.1-0.9l-0.7,4.8C197.3,37.6,198.4,38.3,199,39.4z"/>
	<path class="st1" d="M198.1,45.7c-0.9,1-2.2,1.7-3.5,1.9l-0.7,4.8c1.2-0.2,2.3-0.4,3.4-0.8L198.1,45.7z"/>
	<path class="st0" d="M193.8,52.5l0.7-4.8c-0.3,0-0.5,0.1-0.8,0.1c-2.9,0-4.6-2.2-4.1-5.2c0.5-3,2.7-5.3,5.6-5.3
		c0.3,0,0.6,0,0.9,0.1l0.7-4.8c-0.3,0-0.7-0.1-1-0.1c-2.7,0.1-5.3,1.2-7.3,3.1c-2,1.9-3.3,4.3-3.7,7c-0.4,2.8,0.1,5.3,1.8,7.2
		c1.6,1.8,3.9,2.8,6.3,2.8C193.2,52.6,193.5,52.6,193.8,52.5z"/>
	<path class="st3" d="M110.8,49.7c0.9,0.9,2.1,1.7,3.3,2.2c1.3,0.5,2.7,0.8,4.1,0.8c2.3,0.1,4.4-1.5,5.5-2.7l0,3.1h4.9V42.3
		c0-1.4-0.3-2.8-0.8-4.1c-1.1-2.5-3.1-4.5-5.6-5.6c-2.6-1.1-5.5-1.1-8.1,0c-1.2,0.5-2.3,1.3-3.3,2.3c-0.9,1-1.7,2.1-2.2,3.3
		c-1.1,2.6-1.1,5.5,0,8.1C109.1,47.6,109.8,48.7,110.8,49.7z M112.6,42.3c0-0.8,0.1-1.5,0.4-2.2c1.2-2.8,4.4-4.2,7.2-3
		c1.4,0.6,2.4,1.6,3,3c1.2,2.8-0.2,6.1-3,7.2c-0.7,0.3-1.4,0.4-2.1,0.4c-0.7,0-1.5-0.1-2.1-0.4c-0.6-0.3-1.2-0.7-1.8-1.1
		c-0.5-0.5-0.9-1.1-1.2-1.8C112.8,43.7,112.6,43,112.6,42.3z"/>
	<path class="st3" d="M92.4,35c-1-1-2.1-1.7-3.4-2.3c-1.3-0.6-2.7-0.8-4.1-0.8c-3,0-4.7,0.8-5.6,1.5v-9.6h-5v18.7
		c0,1.4,0.3,2.8,0.8,4.1c0.5,1.3,1.3,2.4,2.3,3.4c1,1,2.1,1.8,3.4,2.3c2.6,1.1,5.6,1.1,8.3,0c1.3-0.5,2.4-1.3,3.4-2.3
		c1-1,1.7-2.1,2.3-3.4c1.1-2.6,1.1-5.6,0-8.3C94.1,37.1,93.3,36,92.4,35z M90.5,42.5c0,1.5-0.6,2.9-1.6,4c-1.6,1.6-4.1,2.1-6.2,1.2
		c-0.7-0.3-1.3-0.7-1.8-1.2c-2.2-2.2-2.2-5.8,0-8c1.6-1.6,4-2.1,6.1-1.2c1.3,0.6,2.4,1.6,3,3C90.3,41,90.5,41.7,90.5,42.5L90.5,42.5
		z"/>
	<path class="st3" d="M59.4,35c-1-1-2.1-1.7-3.4-2.3c-1.3-0.6-2.7-0.8-4.1-0.8c-3,0-4.7,0.8-5.6,1.5v-9.6h-5v18.7
		c0,1.4,0.3,2.8,0.8,4.1c1.1,2.6,3.1,4.6,5.7,5.7c4,1.7,8.6,0.8,11.6-2.3c1-1,1.7-2.1,2.3-3.4c1.1-2.6,1.1-5.6,0-8.3
		C61.1,37.1,60.3,36,59.4,35z M57.5,42.5c0,0.8-0.1,1.5-0.4,2.2c-0.3,0.7-0.7,1.3-1.2,1.8c-1.6,1.6-4.1,2.1-6.2,1.2
		c-0.7-0.3-1.3-0.7-1.8-1.2c-0.5-0.5-0.9-1.1-1.2-1.8c-0.3-0.7-0.4-1.4-0.4-2.2c0-3.1,2.5-5.6,5.6-5.6c0,0,0,0,0,0
		c0.8,0,1.5,0.1,2.2,0.4c1.3,0.6,2.4,1.6,3,3C57.3,41,57.5,41.7,57.5,42.5z"/>
	<rect x="66.1" y="39.3" class="st3" width="5" height="13.7"/>
	<rect x="66.1" y="32.3" class="st4" width="5" height="5.1"/>
	<rect x="99" y="39.3" class="st3" width="5" height="13.7"/>
	<rect x="99" y="32.3" class="st4" width="5" height="5.1"/>
	<path class="st3" d="M152,38.3c-0.5-1.3-1.3-2.4-2.3-3.4c-1-1-2.1-1.7-3.4-2.3c-2.6-1.1-5.6-1.1-8.3,0c-2.5,1.1-4.6,3.1-5.7,5.6
		c-0.6,1.3-0.8,2.7-0.8,4.1v10.6h5V42.4c0-0.8,0.1-1.5,0.4-2.2c0.6-1.3,1.6-2.4,3-3c1.4-0.6,3-0.6,4.4,0c0.7,0.3,1.3,0.7,1.8,1.2
		c0.5,0.5,0.9,1.1,1.2,1.8c0.3,0.7,0.4,1.4,0.4,2.2v10.6h5V42.4C152.8,41,152.6,39.6,152,38.3z"/>
	<path class="st3" d="M114.9,25.5v-4.9h3.7v-1.5h-3.7v-3.8h-1.7v10.2c0,0.4,0.1,0.8,0.3,1.1c0.3,0.3,0.7,0.5,1.1,0.5h3.5l0.8-1.4h-4
		C114.9,25.6,114.9,25.6,114.9,25.5z"/>
	<path class="st3" d="M120.9,21.4c1.5-0.9,3.3-2.4,4.1-3.8l0.2-0.4h-2l-0.1,0.1c-0.6,0.9-1.3,1.6-2.2,2.2v-4.3h-1.7v10.2
		c0,0.4,0.1,0.8,0.4,1.1c0.3,0.3,0.7,0.5,1.1,0.5h3.8l0.7-1.4l-4.3,0L120.9,21.4z"/>
	<path class="st3" d="M127.8,25.5v-4.9h3.7v-1.5h-3.7v-3.8h-1.7v10.2c0,0.4,0.1,0.8,0.3,1.1c0.3,0.3,0.7,0.5,1.1,0.5h3.5l0.8-1.4h-4
		C127.8,25.6,127.8,25.6,127.8,25.5z"/>
	<path class="st3" d="M133.7,21.4c1.5-0.9,3.3-2.4,4.1-3.8l0.2-0.4h-2l-0.1,0.1c-0.6,0.9-1.3,1.6-2.2,2.2v-4.3H132v10.2
		c0,0.4,0.1,0.8,0.4,1.1c0.3,0.3,0.7,0.5,1.1,0.5h3.8l0.7-1.4l-4.3,0L133.7,21.4z"/>
	<path class="st3" d="M140.7,20.3h7.7c0.3,0,0.6-0.1,0.8-0.4c0.2-0.2,0.4-0.5,0.4-0.9v-2.3c0-0.4-0.1-0.7-0.4-1l0,0
		c-0.3-0.2-0.6-0.4-1-0.4h-7.2c-0.3,0-0.7,0.1-1,0.3c-0.3,0.3-0.5,0.7-0.5,1.1v2.3c0,0.3,0.1,0.6,0.3,0.8
		C140,20.1,140.3,20.3,140.7,20.3z M141.1,17.2v-0.3c0,0,0-0.1,0-0.1h6.7v0.4H141.1z M147.8,18.9h-6.7v-0.4h6.7L147.8,18.9
		L147.8,18.9z"/>
	<path class="st3" d="M149.5,21.2c-0.3-0.2-0.6-0.3-0.9-0.3h-3.1c-0.3,0-0.6,0.1-0.8,0.3c-0.3,0.2-0.5,0.6-0.5,1V25h-3.6v-2.5
		c1.3-0.2,2.3-0.3,3.3-0.5l0.2,0v-1.5l-0.3,0.1c-1.2,0.2-2.3,0.4-3.5,0.5c-0.3,0-0.7,0.2-0.9,0.4c-0.3,0.2-0.5,0.6-0.4,1V25
		c0,0.4,0.1,0.7,0.4,1c0.3,0.3,0.6,0.4,1,0.4h3.2l0.6-1.3V27h1.6v-1.6l0.5,1.1h2.2c0.3,0,0.6-0.1,0.9-0.3c0.3-0.2,0.4-0.5,0.4-0.9
		v-2.9C149.9,21.9,149.8,21.5,149.5,21.2z M145.9,25v-2.7l2.4,0V25L145.9,25z"/>
	<path class="st3" d="M150.1,29.3h-37c-2.5,0-4.5-2-4.5-4.5v-7.5c0-2.5,2-4.5,4.5-4.5h37c2.5,0,4.5,2,4.5,4.5v7.5
		C154.6,27.3,152.6,29.3,150.1,29.3z M113.1,13.4c-2.2,0-3.9,1.8-3.9,3.9v7.5c0,2.2,1.7,3.9,3.9,3.9h37c2.2,0,3.9-1.8,3.9-3.9v-7.5
		c0-2.2-1.8-3.9-3.9-3.9H113.1z"/>
	<path class="st4" d="M32.5,28.9l-6.2-3L11.5,33c-0.7,0.3-1.1,1-1.1,1.7v2.6c0,0.3-0.2,0.6-0.5,0.6c-0.3,0-0.6-0.2-0.6-0.5
		c0,0,0-0.1,0-0.1v-2.6c0-1.2,0.7-2.3,1.7-2.8L25,25.3l-5.9-2.8c-0.6-0.3-1.4-0.3-2,0L3.6,28.9c-0.8,0.4-1.3,1.2-1.3,2.1v15.5
		c0,0.9,0.5,1.7,1.3,2.1L17,55.1c0.6,0.3,1.4,0.3,2,0l13.4-6.5c0.8-0.4,1.3-1.2,1.3-2.1V31C33.8,30.1,33.3,29.3,32.5,28.9z"/>
	<path class="st3" d="M33,27.8l-13.4-6.5c-1-0.5-2.1-0.5-3.1,0L3.1,27.8c-1.2,0.6-2,1.8-2,3.2v15.5c0,1.3,0.8,2.6,2,3.2l13.4,6.5
		c1,0.5,2.1,0.5,3.1,0L33,49.6c1.2-0.6,2-1.8,2-3.2V31C35,29.7,34.2,28.4,33,27.8z M33.8,46.5c0,0.9-0.5,1.7-1.3,2.1l-13.4,6.5
		c-0.6,0.3-1.4,0.3-2,0L3.6,48.6c-0.8-0.4-1.3-1.2-1.3-2.1V31c0-0.9,0.5-1.7,1.3-2.1L17,22.4c0.6-0.3,1.4-0.3,2,0l5.9,2.8L11,32
		c-1.1,0.5-1.7,1.6-1.7,2.8v3.7c0,0.3,0.3,0.6,0.6,0.5c0.3,0,0.5-0.2,0.5-0.5v-3.7c0-0.7,0.4-1.4,1.1-1.7l14.8-7.1l6.2,3
		c0.8,0.4,1.3,1.2,1.3,2.1V46.5z"/>
	<path class="st5" d="M9.4,57.7c-4.7,0-8.5-3.8-8.5-8.5l0,0c0-4.7,3.8-8.5,8.5-8.5c4.7,0,8.5,3.8,8.5,8.5
		C17.9,53.8,14.1,57.7,9.4,57.7L9.4,57.7z"/>
	<path class="st6" d="M12.9,48.4c-0.4-0.6-1-1.1-1.7-1.3c0.4-0.5,0.5-1.1,0.3-1.6c-0.3-0.9-1-1.5-2-1.6H6.5c-0.1,0-0.2,0.1-0.2,0.2
		v10h2.7c0.3,0,0.6,0,1,0c1.8-0.4,2.6-1.4,3-2.1C13.5,50.7,13.5,49.4,12.9,48.4z M9.9,46.4c-0.1,0.1-0.2,0.2-0.4,0.2H7.9v-1.2h1.5
		c0.3,0,0.5,0.2,0.5,0.4C10,46,10,46.2,9.9,46.4L9.9,46.4z M7.9,48.2h1.6c0.8,0,1.5,0.4,2,1c0.3,0.6,0.3,1.3,0.1,2
		c-0.3,0.7-1,1.2-1.8,1.2H7.9L7.9,48.2z"/>
	<path class="st7" d="M18.8,40.2c-0.2,0-0.3-0.1-0.4-0.2c-0.2-0.2-0.2-0.6,0-0.8l2.9-2.8c0.2-0.2,0.5-0.2,0.7-0.1l2.4,1.4
		c0.3,0.1,0.4,0.5,0.2,0.7c0,0,0,0,0,0.1c-0.2,0.3-0.5,0.4-0.8,0.2l-2-1.2L19.2,40C19,40.2,18.9,40.2,18.8,40.2z"/>
	<path class="st7" d="M26.4,37.4c-0.2,0-0.3-0.1-0.4-0.2c-0.2-0.2-0.2-0.6,0-0.8l2.9-2.8c0.2-0.2,0.5-0.2,0.7-0.1l2.4,1.4
		c0.3,0.2,0.3,0.5,0.1,0.8c-0.2,0.2-0.5,0.3-0.7,0.2l-2-1.2l-2.6,2.5C26.7,37.4,26.6,37.4,26.4,37.4z"/>
	<path class="st7" d="M23,50.2c-0.3,0-0.6-0.3-0.5-0.6c0-0.2,0.1-0.4,0.3-0.5c5-2,6.1-3,6.4-3.4c-0.2-0.2-0.2-0.6,0.1-0.8
		c0.2-0.1,0.4-0.2,0.6-0.1c0.3,0.1,0.5,0.5,0.5,0.8c0,0.8-0.8,1.9-7.2,4.5C23.2,50.2,23.1,50.2,23,50.2z M29.4,45.9L29.4,45.9z"/>
	<path class="st7" d="M21.8,44.6c-0.3,0-0.6-0.2-0.6-0.5v-4.2c0-0.3,0.3-0.6,0.6-0.6c0.3,0,0.6,0.3,0.6,0.6v4.2
		C22.4,44.4,22.1,44.6,21.8,44.6z"/>
	<path class="st7" d="M29.5,41.3c-0.3,0-0.6-0.3-0.6-0.6c0,0,0,0,0,0v-3.9c0-0.3,0.2-0.6,0.5-0.6c0.3,0,0.6,0.2,0.6,0.5
		c0,0,0,0.1,0,0.1v3.9C30,41,29.8,41.3,29.5,41.3C29.5,41.3,29.5,41.3,29.5,41.3z"/>
	<rect x="159.6" y="31.8" class="st8" width="0.9" height="20.6"/>
</g>
</svg>
