<svg xmlns="http://www.w3.org/2000/svg" width="34" height="46" viewBox="0 0 34 46">
    <path fill="#FA6800" d="M27.827 43.714c.362-.421.422-.903-.603-.722-4.164.843-8.388-2.108-12.974-4.397 6.336-.301 12.069-6.203 15.93-13.43 4.405-8.311 6.155-20.055-1.146-23.307C27.284.05 24.327-.612 20.707.653 14.069 2.942 2.906 13.903 2.845 26.731c0 3.914 1.267 7.528 4.224 9.756h-.422c-3.138-.12-5.43.843-6.517 2.289-.302.421-.06.783.543.662 7.844-1.806 11.706 3.795 18.163 5.963 2.957 1.023 7 .903 8.991-1.687zm-18.042-8.01c-4.043-1.806-3.923-11.924 1.81-20.777C17.267 6.134 24.81 1.978 27.767 3.183c3.319 1.325 3.44 10.298-1.992 20.296-4.948 9.154-12.008 14.032-15.99 12.225z"/>
</svg>
