<svg xmlns="http://www.w3.org/2000/svg" width="80" height="80" viewBox="0 0 80 80">
    <defs>
        <filter id="dzyj2qh8sa">
            <feColorMatrix in="SourceGraphic" values="0 0 0 0 0.200000 0 0 0 0 0.200000 0 0 0 0 0.200000 0 0 0 1.000000 0"/>
        </filter>
    </defs>
    <g fill="none" fill-rule="evenodd">
        <g>
            <g>
                <g filter="url(#dzyj2qh8sa)" transform="translate(-713 -3443) translate(645 3415) translate(68 20)">
                    <g fill="#000" fill-rule="nonzero">
                        <path d="M64.689 23.242c.862 0 1.562-.7 1.562-1.562V4.688C66.251 2.103 64.148 0 61.564 0H4.689C2.104 0 0 2.103 0 4.688v70.624C.001 77.897 2.104 80 4.69 80h56.875c2.584 0 4.687-2.103 4.687-4.688v-11.51c0-.864-.7-1.563-1.562-1.563-.863 0-1.563.7-1.563 1.562v11.511c0 .862-.7 1.563-1.562 1.563H4.689c-.862 0-1.563-.7-1.563-1.563V4.689c0-.862.701-1.563 1.563-1.563h56.875c.861 0 1.562.7 1.562 1.563V21.68c0 .863.7 1.562 1.563 1.562z" transform="translate(0 8)"/>
                        <path d="M33.126 8.438c-7.926 0-14.375 6.448-14.375 14.374 0 4.113 1.736 7.826 4.513 10.449.052.055.107.108.168.156 2.558 2.34 5.962 3.77 9.694 3.77 3.732 0 7.136-1.43 9.694-3.77.06-.048.116-.1.168-.156 2.777-2.623 4.513-6.336 4.513-10.449 0-7.926-6.448-14.375-14.375-14.375zm0 25.624c-2.551 0-4.906-.854-6.795-2.291 1.373-2.436 3.936-3.959 6.795-3.959 2.86 0 5.422 1.523 6.796 3.959-1.89 1.437-4.244 2.291-6.796 2.291zm-2.5-11.874v-1.016c0-1.379 1.122-2.5 2.5-2.5 1.379 0 2.5 1.121 2.5 2.5v1.015c0 1.379-1.121 2.5-2.5 2.5-1.378 0-2.5-1.121-2.5-2.5zm11.553 7.294c-1.152-1.71-2.75-3.039-4.603-3.86.736-.95 1.175-2.142 1.175-3.434v-1.016c0-3.102-2.523-5.625-5.625-5.625s-5.625 2.523-5.625 5.625v1.015c0 1.293.44 2.485 1.176 3.436-1.855.82-3.452 2.15-4.604 3.859-1.38-1.868-2.197-4.175-2.197-6.67 0-6.203 5.047-11.25 11.25-11.25s11.25 5.047 11.25 11.25c0 2.495-.817 4.802-2.197 6.67zM41.564 68.438h-8.438c-.863 0-1.562.699-1.562 1.562 0 .863.7 1.563 1.562 1.563h8.438c.862 0 1.562-.7 1.562-1.563s-.7-1.563-1.562-1.563zM41.564 59.688H19.376c-.863 0-1.562.699-1.562 1.562 0 .863.7 1.563 1.562 1.563h22.188c.862 0 1.562-.7 1.562-1.563s-.7-1.563-1.562-1.563zM41.564 50.938H19.376c-.863 0-1.562.699-1.562 1.562 0 .863.7 1.563 1.562 1.563h22.188c.862 0 1.562-.7 1.562-1.563s-.7-1.563-1.562-1.563zM13.807 42.645c-.29-.29-.693-.458-1.106-.458-.411 0-.814.168-1.105.458-.29.29-.457.694-.457 1.105 0 .41.167.814.457 1.105.293.29.694.458 1.105.458.413 0 .814-.168 1.106-.458.29-.29.458-.694.458-1.105 0-.41-.167-.814-.458-1.105zM13.807 51.395c-.292-.29-.693-.458-1.106-.458-.411 0-.812.168-1.105.458-.29.29-.457.694-.457 1.105 0 .41.167.814.457 1.105.293.29.694.458 1.105.458.413 0 .814-.168 1.106-.458.29-.29.458-.694.458-1.105 0-.41-.167-.814-.458-1.105zM13.807 60.145c-.292-.29-.693-.458-1.106-.458-.411 0-.812.168-1.105.458-.29.29-.457.694-.457 1.105 0 .41.167.814.457 1.105.29.29.694.458 1.105.458.413 0 .816-.168 1.106-.458.29-.29.458-.694.458-1.105 0-.41-.167-.814-.458-1.105zM41.564 42.188H19.376c-.863 0-1.562.699-1.562 1.562 0 .863.7 1.563 1.562 1.563h22.188c.862 0 1.562-.7 1.562-1.563s-.7-1.563-1.562-1.563zM76.72 20.363c-1.519-.877-3.287-1.11-4.98-.656-1.694.454-3.11 1.54-3.985 3.058L48.092 56.82c-.108.187-.176.394-.2.608l-1.384 12.398c-.069.617.234 1.216.772 1.526.242.14.512.21.78.21.328 0 .653-.103.927-.305l10.045-7.397c.173-.128.319-.29.426-.477l19.663-34.057c1.81-3.134.732-7.155-2.402-8.965zM50.01 66.624l.723-6.474 4.522 2.611-5.245 3.863zm7.523-6.156l-5.954-3.437L67.36 29.7l5.953 3.437-15.779 27.33zm18.882-32.703l-1.54 2.667-5.954-3.437 1.54-2.668c.459-.795 1.2-1.364 2.087-1.602.887-.237 1.813-.115 2.608.344.796.459 1.364 1.2 1.602 2.087.238.887.116 1.813-.343 2.609z" transform="translate(0 8)"/>
                    </g>
                </g>
            </g>
        </g>
    </g>
</svg>
