<svg xmlns="http://www.w3.org/2000/svg" xmlns:xlink="http://www.w3.org/1999/xlink" width="494" height="28" viewBox="0 0 494 28">
    <defs>
        <path id="hzfe7z5lib" d="M0.25 0.063L0.75 0.063 0.75 0.5 0.25 0.5z"/>
        <path id="oyqrcg8btd" d="M0 0.04L493.914 0.04 493.914 26.851 0 26.851z"/>
        <path id="ehz9yf9buf" d="M0.367 0.107L2.585 0.107 2.585 0.5 0.367 0.5z"/>
        <filter id="d5p8r3f55a">
            <feColorMatrix in="SourceGraphic" values="0 0 0 0 0.835294 0 0 0 0 0.156863 0 0 0 0 0.156863 0 0 0 1.000000 0"/>
        </filter>
    </defs>
    <g fill="none" fill-rule="evenodd">
        <g filter="url(#d5p8r3f55a)" transform="translate(-351 -1079)">
            <g>
                <path fill="#000" d="M56.631 1.04c.131-.014.453-.051.349-.09-.104-.041-1.05-.009-.976.073.073.082.496.03.627.016M39.952 1.976c-.195.06-.5-.06-.676-.046-.177.014-.128.077-.276.095.201.015 1.232.122.952-.05M281.565 26.994c-.353.003.08.024 0 0M323.49 27h.02-.02M76.528 25.996c-.143.005.026.014 0 0M391 26.047c.999-.01 1.998-.019 3-.026-1.102-.073-2.233-.117-3 .026M323.495 26.999l.01.002L323.5 27h-.005M397.264 26.004c.006-.003-.007-.005.068-.003.075.001.705-.002.666-.048-.04-.046-.527-.038-.625-.038-1.129 0-2.252.005-3.373.013.876.056 1.73.128 2.377.142.335.007.65.054.887-.066M24.62 12.998c-.068-.007-.385.013-.162.002.086-.004.105 0 .113.003l.037-.001c.003 0 .01-.002.012-.004M336.493 27h.014-.014M58.5 2h-.001.002-.001M188.524.998c.08-.008-.082 0-.07.004.013.005-.011.005.07-.004M389.495 2h-.003H389.495M353.467 2c-.009 0-.002.001.001.001.02 0 .052.002.067 0l-.034-.003c-.004 0-.018.003-.022.002-.005-.001.017-.003.018-.002.002.002-.023.001-.03.002M22.504 10.001c.007.002.013 0 .008 0-.048-.005-.018-.002-.008 0M355.308 1.394c-.5.062-.878.158-1.35.231-.107.017-.093.042-.03.054l.03.006h-.001.004c.012.001-.001-.003.019 0s-.023-.002-.02 0c.002 0 .006.003-.001.002-.203-.03-.125-.053.047-.081-.767-.206.73-.197 1.302-.212zm6.932.057c.221-.014.808-.056 1.003-.064.195-.009.313-.03.386-.024.075.005.121.044.12.06-.011.088-.436.02-.745.022-.31.002-.78.011-1.069.07-.006-.05.085-.049.305-.064zm-20.634.086c2.71-.033 5.395-.108 8.08-.146.21-.003.44.005.578.01.14.004.187.012.123.035-.063.023-.352.037-.436.053-.083.016-.117.027-.043.046.074.019.012.01.18.028.167.018.423.038.723.057.3.02.871.064 1.213.099.014.002.021 0 .05.005.03.005.106.014.158.021.051.008.12.02.172.033.05.012.16.048.19.058l-.106.04c-.21.086.308.154.518.11l.071-.014c-.006.001-.014.003 0 0l-.008.002h.001c.006 0 .011 0 .01-.002h-.001-.002c.012-.002 0 0 .004 0 .007-.001-.004 0 0 0 .292-.02.655-.034.92-.057.055-.004-.08-.032-.057-.038l.004-.001c-.006 0-.008 0 0-.001 0-.001-.01-.003.004-.001.011-.002.039-.007.124-.019.218-.03.89-.102 1.214-.133.024-.002-.018-.002.065-.002.081 0 .275.003.41-.005.134-.008.25-.035.378-.058.443-.08.923-.106 1.477-.108.554-.002 1.385.063 1.888.061.797-.002 2.254-.11 2.674-.054l.102.014c.161.004-.05.002.154-.014.21-.017.877.014 1.138.04 1.036.108 1.835.084 2.809-.012.973-.096 1.825-.15 2.61-.314.022-.004-.044-.01-.07-.01-.418.004-1.227.02-1.567.022-.339.001-.59-.033-.73-.035H366.593c.18-.035.468-.081.58-.126.114-.044-.058-.072-.218-.07-1.126.011-1.956-.062-3.154-.05-1.91.02-4.048.07-6.023.11-1.108.022-2.028.05-3.162.129-1.134.08-2.166.082-3.465.043-1.298-.04-2.954-.04-4.327-.07-.143-.004-.184.061-.384.051-.2-.01-.938-.042-1.126-.008-.991.18-1.762.143-2.906.15-1.463.009-2.959.05-4.409.116.11.006.226.019.341.02 1.076.017 2.202.008 3.265-.005z" transform="translate(351 1079)"/>
                <path fill="#000" d="M353.502 2h-.002.002c-.015.002-.006 0 0 0 .004 0 .006 0 .004-.001h-.005s.003.001 0 .001M361.464.997c-.077.012-.004.004.001 0h.001c.103.01.261.022-.046-.005h-.019l.063.005" transform="translate(351 1079)"/>
                <path fill="#000" d="M353.643 2.002c-.026-.016-.284-.011-.287-.005-.003.006.314.02.287.005M5.556 14.001c0-.003-.102-.005-.111-.003-.004.001.049.004.06.004.01 0 .05.002.05 0M388.944 1c.273-.072-.532-.089-.7-.084-.454.014-.895.044-1.244.142.63.017 1.443.074 1.944-.058M60.508 2h-.016.016M352.5 2c.002 0 0 0 0 0-.002 0 0 0 0 0M322.295 26.926c-.138-.007-.379-.02-.266.065.113.085.57.09.726.088.154-.003.292.004.23-.06-.063-.063-.552-.087-.69-.093M249.725 26.958c-.238-.022-.474-.027-.702.03-.047.013-.012.037.023.046.193.046.538.012.69.01.153-.004.3-.025.257-.065-.043-.04-.188-.014-.268-.021M393.668 26.018c-.073-.01-.4-.028-.455-.01-1.073.36-2.147.538-3.191.881-.025.009-.028 0-.012.002.77.151 1.558.114 2.335.071l.08-.004.017-.001h-.006.01l.008-.001h.002c.02-.002.018-.002.012 0h-.013l.01-.002c.013-.003.011-.002.007.001h-.003l-.012.001h-.006.021c-.006.004-.004.006.039-.003l.037-.008c.141-.035.702.03.899-.077.197-.106.339-.52.51-.646.17-.127-.215-.193-.289-.204M367.275 26.98c-.127.01-.278.03-.227.04.052.011.545.01.678.007.133-.002.32-.013.196-.038-.124-.026-.52-.019-.647-.009M394.692 25.927c-.599.01-.548.016-.692.15.99-.019 1.947-.033 2.925-.056.037 0 .115-.039.05-.045-.67-.06-1.684-.058-2.283-.049" transform="translate(351 1079)"/>
                <g transform="translate(351 1079) translate(177 27)">
                    <mask id="xah2lskn4c" fill="#fff">
                        <use xlink:href="#hzfe7z5lib"/>
                    </mask>
                    <path fill="#000" d="M.518.244C.102.339.461.392.66.383.716.38.59.227.518.243" mask="url(#xah2lskn4c)"/>
                </g>
                <path fill="#000" d="M104.629 26.003c0-.01-.261-.016-.258-.007.005.014.258.016.258.007M104.393 26.445c.336.257-1.022.214-1.591.22.579-.061 1.098-.167 1.653-.237.13-.017.172-.038.147-.061-.006-.006-.011-.009-.015-.01.001 0 0-.002.002-.001.163.05-.039.07-.196.09m-7.86.074c-.236.013-.847.052-1.046.06-.2.007-.34.027-.401.022-.06-.006-.025-.052.002-.068.156-.093.392-.016.725-.016.333 0 .792-.013 1.123-.065-.087.057-.169.053-.404.067m19.14.165c-2.573 0-5.153.046-7.71.053-.197 0-.392-.01-.524-.02-.133-.01-.122-.023-.033-.041.089-.018.392-.037.491-.05.1-.014.16-.024.132-.05-.028-.026.012-.01-.113-.034-.126-.024-.322-.048-.558-.074-.235-.026-.678-.081-.935-.126-.01-.002-.022-.002-.04-.008-.017-.006-.074-.013-.1-.024-.026-.01-.09-.019-.09-.04-.001-.02-.111-.045-.066-.07.224-.12.033-.26-.138-.174l-.043.022c-.315.019-.665.03-.965.052-.05.004.001.039-.02.043l-.005.002c-.004.002.007.004-.004.002-.004 0-.002 0 0-.001l-.125.017c-.19.023-1.07.108-1.269.125l-.096.009-.025.002-.034.001c-.084.004-.261-.005-.407.002-.146.006-.308.04-.47.061-.465.063-1.028.117-1.546.098-.518-.018-1.163-.047-1.619-.094-.802-.085-2.022-.06-2.552.002l-.132.015.06-.008-.028.004c.041-.007.008-.003 0 0h-.001l-.042.005-.02.003c-.013 0-.019.001-.05.004-.21.018-.754-.021-.997-.053-.978-.126-1.643-.1-2.64-.012-.996.088-2.045.157-2.953.312-.019.003.022.011.044.012.404.002 1.134-.01 1.468-.005.335.005.414.034.603.052h.013c-.01.002-.019.004-.03.01-.056.026-.584.1-.727.12-.142.02-.1.08.047.08 1.042 0 1.712.091 2.839.091 1.797 0 3.868-.03 5.751-.05 1.057-.013 2.024-.034 3.11-.104 1.086-.07 2.07-.07 3.257-.008 1.188.061 2.639.083 3.883.136.157.007.254-.065.457-.053.203.013.833.054 1.029.024 1.037-.157 1.805-.132 2.921-.126 1.425.008 2.9-.016 4.33-.067-.092-.007-.179-.025-.277-.029-1.008-.032-2.04-.038-3.05-.038M107.469 25.998c-.002.002.063.008.063.004 0-.005-.061-.007-.063-.004" transform="translate(351 1079)"/>
                <path fill="#000" d="M106.474 25.996l-.016.008c0-.001 0-.002-.002-.002-.107.002-.382.041-.426.049-.043.008-.042.007.016.002l.44-.049.464-.051c.074-.009.033 0 .048-.007.015-.005-.054-.001-.052.001.003.003.017 0 .014.002-.004.002-.004 0-.02 0-.148-.008-.413.024-.466.047M104.527 26h.004c-.02-.002-.046-.004-.063-.002-.009.001.017.004.024.004.006 0 .03 0 .026-.002-.005-.002-.028 0-.024.002.005.002.028 0 .033-.001M69.076 25.99c-.3.06.377.093.548.089.46-.012.97-.043 1.376-.127-.63-.022-1.373-.073-1.924.037M397 26.014c.018-.01-.352-.025-.457-.034-.104-.009-.54-.022-.543.013-.004.035.29.035.422.037.133.002.558-.005.577-.016M130.443 26.008c.194.002.197-.014.158-.016-.04-.002-.352.013-.158.016M107.439 25.997c-.002.013.128.016.122.007-.007-.01-.12-.02-.122-.007M220.343 26.969c-.12-.005-.214.063-.102.063.61-.003.85-.036.102-.063M223.427 27.127l.418-.254c-.68.076-.93.138-.418.254M226.29 26.91c-.214.001-.282.061-.29.087-.006.026.042.083.218.09.176.009.698-.006.775-.06.078-.052-.49-.117-.703-.117" transform="translate(351 1079)"/>
                <path fill="#000" d="M130.531 25.999h-.009l-.014-.001h-.017c-.011 0-.03.002-.024.003.014.003.057.002.063 0 .001-.001-.002-.001-.003-.001h.004c.006 0 .002 0 0-.001M108.758 26.077c.208-.007.352-.04.131-.1-.22-.059-.616-.037-.889-.056.066.048-.023.07.119.113.14.043.431.05.639.043M107.77 26.114c-.61-.037-.147-.178-.535-.247-.022-.004.025.01.029.013.06.043.192.331.507.234M227.347 26.95l-.168-.002c-.046 0-.176-.016-.179-.009-.004.008.135.032.194.04.059.006.33.028.345.034.014.005-.141.019-.039.028.103.01.31.03.349.02.037-.011.17-.07.149-.076-.032-.01-.429-.044-.506-.048-.077-.004-.086.014-.145.013M113 25.975c-.253.013-.63-.067-.862-.034-.265.039-.112.115.155.122.268.006.544.02.707-.088M255.137 26.995c.001.002.721.012.725.01.004 0-.726-.012-.725-.01M297.43 27.009c-.01.01.182-.015.133-.02-.05-.004-.123.01-.133.02M366 26.01c.144 0 .262.005.41.008.524.01 1.061.009 1.59 0-.679-.062-1.312-.05-2-.009M362.456 26c-.025.003.18-.002.042 0h-.042M135.288 26.999l.424.002-.424-.002M369.719 26.062c-.206.028-.496.053-.719.065.36.117.621.253.932.478.014.01-.071.024.194.07.265.047.797-.264 1.34-.085.037.013.053.017.057.015.062.03.132.062.221.103 1.13.523 4.61.249 6.658-.09 1.674-.277 4.044.058 5.828-.103.597-.053 1.214.013 1.77-.216-4.87.036-9.75.057-14.623.09-.513-.458-.933-.428-1.658-.327M303.624 26.035c-.145-.048-.504-.045-.583-.002-.08.04-.018.014-.018.014-.062.343.249.926.572.95.77.055.24-.597.043-.95-.003-.007-.008-.01-.014-.012M362.467 26h-.025.025M362.51 26h-.002.001M379.474 25.001l.034.001h.008c.012 0 .02-.002.015-.003-.017-.003-.055 0-.06 0-.004.003.009 0 .007.002h-.004" transform="translate(351 1079)"/>
                <path fill="#000" d="M379.437 25.008c.058.001.275-.015.1-.016-.176-.001-.159.015-.1.016M116.652 26.145c-.388.02-.985-.003-1.311-.075-.584-.13-.818-.065-1.341.087.635.423 1.08.395 1.84.326.235-.02.652.164.914 0 .007-.005.008-.003.016 0 0 0 .022.002.132.019.258.035.99-.014 1.31.015.16.014.05.45.197.474.276.046.676-.096.965-.14.01-.002.009-.003.006-.004l.024.002c.06.003.16-.005.235.001.074.006.172-.02.247-.005.953.186 1.803.102 2.771.007.652-.064 1.314.288 1.861-.247.012-.01.021.003.063-.008.042-.01-.181.046.274-.03.186-.031.881-.205 1.145-.275-.156-.01-.335-.01-.51-.019-2.948-.136-5.882-.28-8.838-.128M116.479 26H116.478M383.277 25.964c-.198.013-.468.021-.077.066.189.022.577.025.797.031.046-.184-.522-.11-.72-.097M19.556 25.001c0-.003-.102-.005-.111-.003-.003.001.049.004.06.004.01 0 .05.002.05-.001M379.632 26.018c.13-.002.387-.02.367-.028-.021-.008-.417-.009-.56-.014-.143-.006-.59.003-.387.033.204.03.45.01.58.009M396 25.036l.964.031c.125-.105-.095-.119-.364-.129-.268-.01-.55-.02-.6.098M317.977 26.913c-.181 0-.276-.008-.447-.007-2.164.004-4.193.015-6.4.023-2.209.01-4.608-.003-6.855.003-.091 0-.19.012-.275.017l3.225.042.148.001h.023-.003.007H307.414l.062.002c3.38.048 6.962.07 10.282.086.58.003.92.056 1.196-.064.278-.12-.795-.103-.977-.103M402.528 24.997c.007-.002-.064.004-.056.005.01.002.007.001.013 0 .011 0 .037-.003.043-.005M439.487 25c.05.003.02 0 .01 0-.009-.002-.015-.001-.01 0M428.872 24.639c-.596.003-1.502-.009-2.106.111.337-.126.848-.151 1.032-.334.22.012.216.022.493.031.278.01.93.024 1.235.023.303 0 .43-.017.704-.033-.01.26-.762.2-1.358.202m-3.432.22c-.68 0-1.395.008-2.079.03-1.639.05-3.346.097-4.963.075-1.22-.017-2.219.037-3.412.088-1.768.074-3.393.099-4.912.5-.028.008-.06-.003-.08-.008-.021-.005-.055-.036-.073-.04h-.006c0-.017.007.013.026-.014.02-.027.008.058.126-.063.103-.105-.484-.248-.894-.239 1.695-.16 3.402-.258 5.14-.307 2.53-.071 5.062-.11 7.586-.22.173-.007.325-.05.5-.05 1.09 0 2.078.023 3.03.245.008.001.026.002.01.002m13.465-.075c-.144-.018-.643-.054-.95-.04-.306.014-.787.04-.872-.132-.412-.082-.7-.111-1.18-.095-.826.027-2.392.043-3.02.044h-.083c-.112-.012-.031-.007-.063-.027-.289-.185-.542-.148.455-.157.475-.005 1.67-.068 2.23-.156-1.746-.044-3.516-.004-5.278.052-.01 0 .01.005-.016-.006-.026-.012.08.04-.065-.03-.144-.07-.542-.3-.932-.219-.013.003-.006-.005-.016-.004-.817.14-1.72.1-2.538.06-.814-.04-1.28-.144-2.009.04.004-.001.008-.003.007-.006-.002-.008-.07.008-.044.013.011.002.02 0 .027-.002-.005.007.045.027-.25.066-.32.042-1.543.093-2.088.178-.008.001-.538.012-.585.007-.813-.103-1.175-.045-1.913.074h.003l-.025.002c-.072.008.177-.022-.145.01-.323.034-1.361.116-1.75.036-.671-.136-1.112-.125-1.806-.11-.694.014-1.304.022-2.016.05-.713.027.489.135-.658.105-1.146-.031-2.384-.049-3.55.043-.008 0 .09.024-.008.001-.099-.022-.84-.108-.977-.08-.815.17-2.08.162-2.775.171-.694.009-.657-.004-.974.14-.03.014.022.004.011.006-.55.142-1.08.141-1.702.16-.183.007-.443.011-.596.046-.756.17-.109.238.585.243.693.006 2.178-.168 2.514.22-.79-.052-1.55-.046-2.344.015-.3.023-.584.084-.891.09-1.204.025-2.407.07-3.617.085.986.123 1.853.188 2.935.179.138-.002.636-.168.78-.18.031-.003.039-.006.042-.007l.08.008c.229.017.535.066.76.15.516.193 1.126.206 1.796.132.019-.002-.022 0 .008 0h.008.001c.001-.001.01-.001.058.001.147.009.756.053.904-.021.045-.023.01.005.028-.003.017-.008-.026.005.055.005.08 0 .246.042.372-.004.127-.047-.015-.045.357-.12.9-.18 2.637-.245 3.705-.04.038.006.036-.015.053-.014h.005c.013 0-.001-.002.016 0 .016 0 .036-.006.073-.005.591.002 1.218-.115 1.774-.145.66-.035 1.464.038 2.073-.006.61-.043 1.101-.229 1.545-.29.443-.06.355.022.728.03.393.26 1.533.182 2.072.16.539-.02 1.187-.022.96-.227l-.015-.002c.028 0 .064-.002.131-.007.309-.02-.645.033.626-.038 1.27-.07 4.406-.199 6.028-.176.464.006.685.057 1.014.12.083.016-.042-.007.022.009-.035-.008-.11-.024.068.032.253.08 1.16.073 1.561-.01.009-.002-.03.002.073.01.103.006.389.04.602.05.212.01.693-.046.869-.082.176-.035.366-.057.438-.08l.018-.006h.015l.062.004c.15.009-.405-.022.333.021.737.044 2.667.05 3.58-.114.606-.11 1.368-.087 1.941-.112.574-.024.955-.016 1.426-.103.01-.002.068.008-.076-.012M406.5 26L406.5 26 406.5 26zM401 25.071c-.107-.04-.088-.075-.242-.106-.153-.032-.394-.047-.604-.028-.21.019-.208.062.022.1.23.04.562.03.824.034M416 26.055l2-.105c-.715-.014-1.342-.005-2 .105M406.477 26h.011c.014 0 .071.002 0 0h.002H406.477" transform="translate(351 1079)"/>
                <path fill="#000" d="M422.673 25.038c.163.007.451-.025.269-.055-.183-.03-.47-.017-.65-.021-.177-.004-.412.017-.22.047.192.03.437.022.6.029M414.95 26.398c-1.817.068-3.522.084-5.297.24-.314.028-.688.021-1.012.026-2.19.032-4.479.102-6.626.147-.855.018-1.302.021-2.015.182.858.005 1.59.032 2.43-.068.393-.047.941-.064 1.378-.062 1.657.008 4.066-.097 5.455-.136.472-.014.493-.012.533-.012l-.025.001c-.028.005.096-.001.096-.001h-.011l.048-.002c.884-.003 1.856-.03 2.782-.055 3.145-.083 6.055-.197 9.26-.292 3.206-.096 6.739-.203 9.994-.274.429-.009.686-.04 1.06-.092-1.273.012-2.669.006-3.915.027-4.745.082-9.44.196-14.134.371M407.44 26.011c.013.005.153-.022.116-.023-.037 0-.13.019-.116.023M402.178 25.029c.131-.012.571-.047.633-.054.062-.007.047-.004-.01-.004-.056 0-.509.025-.489.037.02.014-.002 0 .003.004.005.003 0 0-.002 0-.003 0-.024 0-.022-.001l.021.001-.037.003c-.004.002.041-.002.03-.001l-.154.014c-.01.002.013.002.027 0M401.45 25.005l.13-.012c.001 0-.028-.002-.044 0-.027.002-.09.012-.114.015l.028-.003M401.505 25h-.01.009c.003 0 0 0 0 0M383.88 25.66c-.489.067-1.325.248-1.88.334.455-.001.917-.012 1.384-.008 2.995.027 5.966.044 8.957-.242.393-.038 1.025-.04 1.357.013.596.093.794.053 1.302-.146-.713-.323-1.212-.33-2.009-.233-.245.03-.68-.16-.934.044-.009.008.002.001-.037.001s.133.007-.117.003-1.034.079-1.316.034c-.283-.046-.235-.404-.485-.452-.25-.048-.63.125-.89.178-.026.006.034.003-.028.004s-.162.012-.238.01c-.076-.003-.173.027-.249.016-.95-.141-1.796-.044-2.741.102-.595.093-1.177-.16-1.663.231l-.35-.331c.061.092.023.277.02.431-.027.004-.049.007-.082.01M382 25.99c-.333.001-.667.002-1 .005.337.024.663.016 1-.005M411.492 24.999c-.032.011.036.005.023-.003-.003-.002-.016 0-.023.003" transform="translate(351 1079)"/>
                <path fill="#000" d="M401.408 25.01c.019 0 .194-.018.193-.02l-.17.007c-.028.002-.042.012-.023.012" transform="translate(351 1079)"/>
                <path fill="#000" d="M401.74 24.979h-.033c-.018 0-.09.008-.107.01-.017 0 .092-.01.057-.007l-.12.011c-.1.01.12-.01-.167.017-.286.028.03 0 .37-.031M403.362 24.997c-.002.005.302.02.275.005-.026-.016-.273-.01-.275-.005" transform="translate(351 1079)"/>
                <path fill="#000" d="M403.469 25c-.01 0-.002.001 0 .001.02 0 .05.002.065 0l-.033-.003c-.004 0-.017.003-.021.002-.005-.001.016-.003.018-.002 0 .002-.022.001-.03.002M437.946 23.997c.269-.073-.548-.088-.716-.082-.452.016-.894.046-1.23.147.632.015 1.453.07 1.946-.065M379.478 24.965L379.283 24.996 379.717 25.035zM362.53 25.999c-.24.008-.1.004.005 0l.063-.002-.069.002M86.502 26h-.004.004" transform="translate(351 1079)"/>
                <g transform="translate(351 1079) translate(0 1)">
                    <mask id="12010my79e" fill="#fff">
                        <use xlink:href="#oyqrcg8btd"/>
                    </mask>
                    <path fill="#000" d="M476.605 9.43l-2.257.005-15.757-.052.772-.026c.235-.008.691-.018.392-.038-.531-.002-.851.024-1.422.017-1.423-.015-1.53-.013-1.392.022.048.006.182.013.096.02l-.954-.003c-.745-.015-1.18-.04-1.464-.069h.001c.11-.032.734-.03 1.37-.03.77.002 1.505 0 1.84-.033.111-.011.285-.023-.03-.032-.331-.008-.594 0-.737.012-.42.032-.943.02-1.483.006l.825-.022c.035-.003.041-.006.02-.01.194-.018.754-.034.312-.056 1.692-.005 3.38-.029 5.077-.074.308.02.616.033.922.056.145.011.357-.025.505-.054.155-.03.309-.057.461-.081.498-.002.995-.006 1.492-.01l.596.003c.178.041.354.092.524.165 1.041-.184 2.135-.3 3.378-.23.185.01.415-.007.557.02 1.511.285 2.948.31 4.633.06.684-.102 2.274-.097 1.723.434zm-32.067 7.91l-.025-.002h.058l-.033.001zm4.212 2.055c-.25.004-.525.004-.804.005l.91-.018c-.022.006-.025.011-.106.013zm-20.145 2.667c-.097.048-.083.092-.004.134-1.07.001-2.136.004-3.207.004-1.165-.157-2.427-.16-3.683-.175-.342.03-.568.101-.783.176h-.01c.082-.09.386-.126.584-.186.351-.007.7-.019 1.046-.037 1.056-.064 2.05-.026 3.083-.052.15-.003.299-.008.448-.013.209-.01.416-.016.623-.019h.016c.236.025.547.027.864.027l.375-.001c.187-.001.376-.003.566-.007.056 0 .11-.002.165-.004.082.048.022.1-.083.153zm-53.345 2.609c.01.005.004.002-.005 0h-.008c-.001 0 0 0 0 0h-.035c-.082-.002-.328-.004-.425-.002-.042 0 .02.002-.072-.004-.094-.006-.49-.032-.576-.035l-.046-.002h-.005-.001c.001 0-.002 0 0 0h.004c.004-.001-.007-.005.006-.005.397 0 .891-.002 1.256.003.053.001-.107.038-.093.045zm-6.873.042l-.18.001c-.675.006-1.738.051-2.536.049-.17 0-.456-.017-.641-.018 1.196-.022 2.287-.045 3.513-.066 1.597-.028 3.315-.045 4.938-.054.034 0 .053.01.08.011l-5.174.077zm-7.307.041c-.038 0 .078-.008.118-.008.04-.001.448 0 .434.002l-.552.006zm-94.407 1.203c-.069-.015.263-.04.373-.043.11-.002.509.017.644.034-.275.011-.827.05-1.017.009zm-10.018.329c-.559.005-1.115.007-1.672.01-.108-.02-.265-.041-.21-.043.12-.005 2.24.081 1.87-.018l.729.025c-.163.014-.392.023-.717.026zm-4.334.027c.56-.018 1.122-.034 1.679-.054.25-.009.491.016.726.04l-2.405.014zm-12.14-.106c-.022 0-.004-.001.002-.01.006-.009.22-.081.246-.069.027.013-.139.082-.248.079zm-1.322.143c-.016.004-.006.003.002-.002.009-.004.112-.004.108-.002-.003.002-.094 0-.11.004zm-44.069-.214c-.46-.007-.925-.011-1.39-.015.256-.047.532-.08.802-.119.707.073 1.3.06 2.015.003.343.086.772.094 1.175.145-.868.003-1.735-.006-2.602-.014zm-34.707-.07c-.452-.002-1.025.004-1.462-.002-.028 0-.07-.011.06-.03.129-.019.745-.004.957 0 .212.004.49.023.633.026.042 0-.13.006-.188.006zm-2.807.003c-2.649.002-5.293.012-7.913.157-.304.017-.625.014-.905.01-.279-.003-.354-.01-.655-.01-.3 0-.915-.011-1.206-.024-.29-.013-.401-.02-.64-.02-.24.002-.307.01-.567.03-.26.021-.52.068-.862.06-.802-.017-1.42-.128-2.291-.151-1.34-.036-2.871-.01-4.267-.004 1.388-.06 2.456-.1 3.941-.11 1.486-.01 3.358-.03 4.921-.067.136-.004.282.005.421.019.139.013.277.02.438.027.409.015.816.046 1.241.05.074 0 .17-.002.253.002.084.003.14.028.233.03.092 0 .201-.029.31-.029 1.005.002 2.015.008 3.024.011 1.009.004 2.028-.014 3.035-.017.541-.001 1.09.018 1.621.013.062 0 .274.02.246.022-.03.002-.247.001-.378.001zm-63.858-.576c-2.672.017-5.348.012-8.02.061-.2.004-.384.032-.586.033-.526 0-1.053-.018-1.588-.038 1.214-.01 2.125-.013 3.409-.031 1.283-.018 2.845-.102 4.226-.126.431-.008.943-.014 1.42-.02 2.13-.026 4.316-.042 6.456-.058.169 0 .317.015.483.019-1.924.085-3.852.148-5.8.16zM29.17 2.233h-.09.09zm.929-.202H29.916h.183zm3.331.183h-.049c-.109-.005.073-.004.05 0zM194.837.546c.034-.003.234 0 .283 0 .048 0 .026-.002.014.001-.01.002.009 0-.028.002-.037.003-.266.022-.294.02-.027-.001-.01-.021.025-.023zm22.763.12c.022-.002.365.005.362.007-.002 0-.356.018-.377.018-.02 0-.007-.022.015-.024zm49.188.22h.005c.002.001-.002.001-.004.001-.013.002-.033.007-.045.007-.014 0-.06-.006-.054-.007h.098zm3.464-.02l.033.002h-.002c-.02 0-.055.003-.069 0-.008-.002.033-.003.038-.002zM323.567.48c-.632-.048-1.236-.046-1.883-.03.655-.025 1.246-.029 1.883.03zm49.417.306c.176-.004.341-.04.519-.039 1.118.005 2.139.022 3.114.196.008.002.022.003.013.003-.357-.004-.731 0-1.093 0L367.112.92c1.96-.036 3.913-.088 5.872-.134zm6.111-.176c.227.01.223.017.508.025.285.007.959.02 1.271.02.312 0 .44-.011.722-.023-.043.2-.793.151-1.408.152-.615 0-1.554-.01-2.183.081.354-.096.887-.115 1.09-.255zm67.458 1.229c-1.108.002-2.202 0-3.276-.014 1.036.004 2.14.011 3.276.014zm5.6 2.072c.645.031 1.29.07 1.93.117.146.011.357-.025.505-.054.121-.023.24-.045.36-.065h.494c.457-.043.83-.078 1.137-.111.377.028.739.106 1.082.254 1.041-.185 2.135-.301 3.379-.232.185.01.415-.006.557.02 1.51.286 2.947.31 4.632.06.684-.101 2.275-.096 1.723.435l-2.256.005-17.183-.057c-.1-.057-.264-.11-.482-.16-.004-.004 0-.008-.004-.013-.09-.112-.367-.167-.71-.197l4.835-.002zM450.08 1.82c.769-.012 1.542-.002 2.315.01-1.117-.007-2.23-.005-3.332 0 .338-.003.676-.005 1.017-.01zM141.023 25.836l.076-.053c.92 0 1.9-.04 2.783-.019.884.02 1.674.055 2.52.059.03 0-.015.018-.042.02-1.75.04-3.504.064-5.28.067h-.304c.115-.02.203-.044.247-.074zM210.03.98h-.003c-.014.003-.032.008-.046.008-.014 0-.058-.007-.053-.008H210.031zm-69.2 24.58c1.12-.015 2.247-.03 3.367-.034l1.593-.006c-.048.026-.063.047.03.064-1.664-.007-3.328-.015-4.99-.024zm5.392.024l.144.002h-.175l.016-.002h.015zM43.91 4.202c.062.001.117.003.15.005h-.09l-.06-.005zm70.247-3.189c.42-.028.905-.03 1.355 0h-1.355zm-29.94.511l-.102.001-.01-.001h.112zm-.276-.36l.005.001h-.076l.071-.002zm3.794.27l-.023.001H87.664 87.735zm13.887-.12h-.129.129zm4.473-.009l-.07.001-.01-.001h.08zm359.312 7.609c-.382.002-.76.002-1.13 0 .388-.038.766-.043 1.13 0zm-34.142 14.04l.119-.001c-.046.001-.116.005-.31.006-.195 0-.792-.002-1.056-.006l1.247.001zm14.079-.645c.563 0 1.128.001 1.692.004-.812-.002-1.624-.002-2.437-.002l.745-.002zm-43.807.954c.015-.002.114-.005.108-.003-.006.002-.18.026-.186.027-.008 0 .064-.021.078-.024zm3.44.343c-.463.073-.8.185-1.235.272-.099.02-.081.05-.021.064l.028.006h-.002.004s.006.004-.002.003c-.186-.035-.127-.062.036-.096-.723-.237.623-.23 1.192-.25zm6.481.062c.208-.018.751-.067.933-.077.182-.01.29-.034.36-.028.07.006.118.051.118.07 0 .103-.401.023-.695.026-.294.003-.729.014-.995.083-.012-.058.071-.057.28-.074zm-56.8 1.998l.177-.003c.743-.014 1.545-.023 2.269-.03-.592.011-1.969.029-2.376.033-.316.004-.07 0-.07 0zm-72.698.834l-.094.001c.023 0 .286-.003.094 0zm-145.646-.369c-.025 0-.067-.016-.05-.018.016-.001.248.015.25.018.002.003-.174.001-.2 0zm-3.878.327c.587.063 1.15.064 1.768.054-.63.018-1.18.023-1.768-.054zm-53.405-.806c-.162.012-.198-.02-.454-.025-.256-.005-.936-.031-1.227-.034-.29-.003-.516.01-.73.014-.054 0-.002-.045.052-.045.895-.002 1.852.001 2.773.002-.187.009-.251.076-.414.088zm-55.608-3.757c-1.426-.236-2.795-.243-4.375-.002-.68.103-2.27.103-1.738-.43l2.255-.011h3.769c.471.143.978.276 1.403.43-.434.006-.875.01-1.314.013zm-3.954.448c.235-.025.47-.039.718-.047-.247.008-.483.022-.718.047zm1.72-18.477l.255-.001.03.004c-.097 0-.181-.002-.284-.003zm-1.384-1.083l.084-.003h.017l-.101.003zM493.103 10c1.241-.64 1.173-.66-1.02-.694-2.307-.034-4.607.149-6.907.002l-6.756-.022v-.14l5.637-.229c-.325-.144-.587-.201-.844-.199-4.625.042-9.25-.014-13.878.012-1.943.011-3.886.012-5.829.009.523-.057 1.11-.076 1.736-.096-.793-.466-2.292-.702-4.008-.842.035 0 .07 0 .106-.002-.068-.005-.175-.009-.293-.012-.186-.014-.374-.028-.564-.04h.007c.215-.015.794-.01 1.098-.002 1.416.035.928-.021 1.144-.036.17-.012-.288-.03-.17-.047.865-.046.589-.063-1.097-.07v-.02l.548-.01-.076-.002h.024l.052.002c.46-.002.972.008 1.373-.008.65-.028-.029-.037-.51-.045-.618-.012-1.277-.02-1.918-.03-.008-.01-.018-.022.331-.021.863.002 1.699-.014 2.565-.004.496.03 1.437.007 2.04.023.546.015 1.063.026 1.512-.004.419-.028.246-.087-.35-.097-1.132-.017-2.227-.039-3.447-.047-2.084-.015-3.734-.07-5.732-.093-.013-.052-.026-.105-.045-.156l.062-.001c.394-.007.668-.017.336-.035.116-.009.353-.01.58-.011.725.012.952.036 1.15.062.097.013.355.03.717.02.5-.015 1.465-.005 1.555-.037.051-.019-.44-.028-.89-.03-.775-.004-1.403-.018-1.96-.037 0-.003-.018-.005-.053-.008.117-.008.318-.008.52-.008 1.137-.003 2.23.007 3.29.025l.149-.01-.754-.037c-.06-.01-.184-.017.207-.022.393-.006.527-.017.051-.027h-1.06c-1.294.005-2.474-.015-3.704-.023l-.269-.007c2.754-.012 5.508.045 8.262.031 1.385-.007 2.864.07 4.006-.268 3.171-.344 6.444-.582 9.738-.797.872.036 1.407-.094 1.775-.308l2.23-.353c.512-.04.63-.16.68-.293 1.242-.642 1.173-.662-1.02-.695-2.306-.035-4.607.149-6.908.002l-6.755-.021.001-.141 5.637-.229c-.326-.144-.588-.201-.844-.199-4.625.042-9.25-.013-13.879.012-1.053.006-2.105.006-3.158.007.418-.129.394-.328.33-.774-.023-.164-.109-.326-.165-.489-.055-.064-.189-.108-.4-.131.707-.426-.665-.335-1.401-.358-.463-.014-.926-.025-1.389-.034 1.045.003 2.087-.021 3.118-.12.745-.258.381-.443-.452-.598-4.527-.03-9.042.001-13.571.06-5.369.069-10.747.122-16.121.15-.082-.008-.165-.015-.244-.02-.131-.005-.295-.012-.418-.013-.124-.001-.29-.001-.381-.004-.09-.002-.112-.017-.168-.019-1.886-.037-3.688-.06-5.596-.08-.324-.004-.594-.005-1.008-.008-3.862-.032-7.094-.052-11.169-.09-5.988-.057-12.742-.097-18.88-.122.068-.007.43-.032.442-.05.002-.004.007-.005.012-.006-.013 0-.034-.002-.075-.007-.144-.02-.603-.043-.898-.035-.295.007-.762.024-.806-.107-.457-.06-.578-.096-1.131-.073-.953.04-2.025.082-3.02.018-.009 0 .003.006-.008 0-.03-.012-.023-.006-.082-.03-.374-.145-.449-.117.542-.11.472.003 1.721-.05 2.292-.113-1.78-.056-3.56-.055-5.35.026l-.031-.003c-.062-.007.055.004-.134-.017-.188-.02-.661-.132-.861-.174-.03-.006-.044-.01-.053-.013-.017.004-.073.007-.233.003-.457-.008-1.742.042-2.423.033-.677-.01-1.372-.123-2.01.035.002 0 .005-.002.006-.004.002-.007-.07.005-.04.01h.02c-.003.005.046.015-.253.047-.33.035-1.613.07-2.18.134-.01 0-.556.008-.604.003-.838-.082-1.214-.037-1.983.053h.003l-.026.002c-.072.006.185-.017-.147.007-.332.025-1.398.086-1.792.024-.68-.107-1.184-.098-1.874-.088-.69.01-1.468.017-2.1.034-.886.024.565.106-.712.08-1.277-.025-2.529-.04-3.806.029-.012 0 .1.018-.007 0-.106-.017-.879-.084-1.026-.061-.87.129-2.215.121-2.949.128-.734.006-.674-.01-1.051.108-.007.001.004.002.012.002.01 0 .133 0-.291.04-.49.048-1.51-.029-2.362-.034-8.68-.051-17.565-.035-26.31-.05-.984-.001-1.976-.005-2.955-.007.113-.016.224-.063.115-.094-.109-.03-.347-.056-.497-.057-.15-.002-.965.01-.604-.06.362-.072.919-.049 1.247-.115l.014-.003h.081c.29-.006 1.221.055 1.61-.024s.409-.138-.119-.2c-.832-.1-1.724-.14-2.722-.156-.58-.01-1.562-.077-1.87.156-.076.058-.574.034-.794.026-1.307-.044-2.312-.064-3.51.146-.875.153-1.95.185-2.957.207-1.007.022-1.956.025-2.944.038-1.95.025-3.886.049-5.831.095-8.045-.02-16.124-.043-24.157-.054-.928-.002-1.901-.002-2.75.02-.846.021-1.54.015-2.314.012-3.17-.01-6.285-.033-9.443-.026h-.028c-1.616-.008-3.233-.013-4.85-.017-.098-.013-.195-.026-.296-.036-.259-.025-.328-.008-.2.035-1.53-.004-3.06-.007-4.588-.014-15.834-.07-31.678-.152-47.505-.242-5.178-.03-10.33-.036-15.494-.095-1.374-.015-2.501-.17-3.863.006-.035.005-.053.013-.187.024-.561.045-1.152-.034-1.789-.037-12.832-.065-25.714-.1-38.57-.142-.991-.003-1.962.002-2.977-.01-.188-.002-.263-.004-.566 0-.303.002-.836.002-1.254-.001-2.068-.015-4.191-.061-6.282-.048-3.358.02-6.732.026-10.087.009-1.032-.006-1.973.033-3.002.05l-.2.002c-.45-.082-.96-.13-1.522-.149-.128.063-.19.115-.207.16-.661 0-1.318 0-1.974.007-.247-.056-.578-.117-1.022-.199-.207.049-.12.132.002.22-.774.021-1.547.06-2.32.134-.01.001.02 0-.026-.004-.046-.003.137.009-.112-.016-.248-.025-.927-.005-1.164.087h-.001c-.005 0-.025-.001-.096.003-.155.009-.549.033-.76.033-7.363-.008-14.712-.021-22.074-.033-.984-.001-1.947-.007-2.953-.015-.191-.001-.26-.005-.563-.001-.303.004-.833.004-1.246 0-2.048-.015-4.186-.068-6.25-.054-3.314.024-6.776.041-10.031.013-1.001-.01-2.177.063-2.978.06-1.908-.008-5.848.06-6.882.175-1.014.113-.2.022-.236.027l-.11.012c.019-.002.048-.006.005-.004l-.01.001h-.119c-.25.004-.865.017-1.13.076-.007.002.004 0-.007 0-.01.002 0 .002-.013.003-.01 0 .018-.003-.001-.001l-.117.009c-.398.03-1.107.06-1.456.078-.35.019-.273.074-.557.077h-.004c.002 0 .003 0 .002-.001h-.002V.92c-.003 0-.006.001-.003.002l.002-.002c0 .002-.001.003-.002.003 0 0 .005 0 .001.003-.007.005-.005 0-.002-.003-.004-.001-.009-.004-.008.02.001.034-.066-.048-.064.067l-.002.04c-3.053.037-6.077.079-9.028.128-2.817.046-5.72.088-8.293.154-2.53.03-4.783.079-6.83.144-.728.023-1.417.042-1.624.079l-.61.026c-2.667-.018-4.814.008-6.177.102-.34.01-.595.022-.827.035-1.234-.02-2.466-.05-3.701-.085-.884.117-1.786.162-2.459.382.194.004.56.018.99.031-1.148.044-1.464.105-.767.167.098.009.095.019.14.028-.515.002-.963.016-1.506.011v.03c.374 0 .493.014.737.021.111.013.276.025.323.038.127.034.91.065.67.099-.235.032-.126.058.357.084-.205.016-.76.032-.02.05 1.764.055 1.823.076.32.117-.935.03-.638.061-.05.092.109.032-.068.068.836.089l.256.01c-.022.004-.002.012-.073.013-1.78.036-2.194.077-1.523.157h.003c.192.03.847.046 1.282.07.09.017.789.034-.107.052-1.16.024-1.255.068-.366.116h.007c.077.002.12.004.152.007l-.152-.007c.336.026-.54.03-.646.046.164.012.425.012.692.013.303 0 .629-.003.906 0 .669.008.52.023-.483.049l-.926.001c-.48 0-1.083-.005-1.25.017-.154.02.46.026.804.034.783.018.727.037.102.058-1.617.047-1.62.055-.083.093.127.003.173.01.257.016-.35.043-.992.085-.438.132.082.002.113.005.129.008l-.13-.008c-.123.019.116.033.344.05.459.033.985.068.41.108-.349.002-.626.008-.747.021-.446.033-.92.066.086.097.985.029.832.056-.048.083-.226.001-.637-.006-.608.007.034.016.442.023.874.022h-.001c1.635.037 1.752.048.993.09-.26 0-.567-.002-.773.002-.493.01-1.429-.012-1.462.012-.032.024.958.018 1.481.026.068.008.405.02.07.025-.897.013-.459.026-.055.04l.774.025c.006.046.878.06 1.863.07h-.013c.526.015.435.042.811.06.188.016.347.032.249.05-.463.021-.007.035.392.042 1.341.022 1.143.058.718.098-.178.013-.704.001-.864.016-.534.025-.51.05.016.073.31.03-.003.068.775.093l.498.019c-.005.003.024.008-.018.01-1.872.04-2.32.09-1.513.168l.207.01c.16.017.496.028.825.04-.08.02 1.062.035.178.059-1.236.033-1.364.07-.452.121h.001l.045.004-.328.026c-.174.005-.348.01-.362.02h.096l-.799.059c-.167.002-.304.006-.375.015-.038.004-.034.008-.003.012-.508.036-1.016.073-1.525.108-.874-.033-1.404.099-1.763.314h-.001l-2.216.36c-.512.041-.625.161-.67.294V6.5c-1.218.646-1.149.665 1.045.691 2.308.028 4.601-.163 6.908-.024h4.823c-.102.03-.193.066-.277.104-.137-.003-.297-.003-.48.003l-.052.143-.099.016-2.783.122c.142.061.271.104.393.136-.172.014-.347.027-.552.027l.023-.063c.008 0 .015-.001.021-.003.184-.022.084-.028-.082-.031h-.001c-.49.03-.92.023-1.376.01-.868-.024-1.767-.006-2.649.073-1.415.05-2.818.106-4 .234-.016.04.12.043.245.045.278.004.72-.012.624.048-.059.038-.4.052-.675.063l-3.34.144c-.822.02-.844.025-.604.114-.604.103-.616.13-.097.218.435.074.382.107-.31.152-.336.021-.707.03-1.062.044-.512.014-1.086-.008-1.705.1L12.3 8.82l-.076-.008c.034.001.062.004.076.008.682-.016 1.198.036 1.858.029l3.37-.067c.138-.003.17.001.091.016-.175.04-.582.006-.757.054.315.02.752-.025 1.114.02-1.126.01-2.061.082-3.322.117 2.232.024 4.225-.12 6.413-.135-.63.04-1.125.052-1.304.12-2.198.082-4.398.161-6.593.247-.641.026-1.259.075-1.776.158 3.727-.08 7.442-.158 11.15-.22-.212.008-.419.02-.662.041-.012.001-.053-.005.074.012.074.01.268.024.473.034-2.854.082-5.716.143-8.556.27l3.568-.075c.579.043 1.282-.008 1.92-.01.288 0 .703-.034.837.006.21.064.641.029 1.004.025.526-.007 1.075-.032 1.575-.017.39.012.775.002 1.161-.016.192.027.362.034.73.021h.014c.094.004.205.005.325.006-.28.035-.6.032-.912.04l-8.191.225c1.348.048 2.665.04 4.004.011 1.489-.033 2.957-.047 4.425-.058.268.023.573.028.892.026.419.012.838.022 1.259.027-.046.061-.1.122-.171.18l-1.75.015c.071-.014.152-.026.22-.041-.7-.022-1.453-.068-2.081.038-.342.058.454.095.557.09.103-.004.174.007.269.003-.873.067-1.693.03-2.588.01-.709.14-1.752.032-2.475.033-1.767.002-3.323.066-5.033.118 1.123.034 2.222.021 3.35.026-.23.06-.293.119-.678.123-.385.005-.91-.015-1.254.088.898-.006 1.797.014 2.692.05-1.376.08-2.687.11-4.082.059-1.377.061-2.753.079-4.144.089-.955.148-1.885.12-2.93.1-.559.093-1.115.165-1.742.209.412.009.825.01 1.235.027-.74.15-1.483.207-2.37.235.147-.028.292-.055.452-.079-.942-.001-1.586.09-2.58.122-.574.017-.965.01.353.053 2.086.068 4.82.07 7.005.244-.236-.004-.517-.005-.768-.007-.022 0 .112.007.036.006-.075 0-.506-.009-.594-.01-.088-.002.04-.001.01-.002-1.318-.016-2.64-.021-3.959.013.096.003.265.01.342.01.078.002-.019-.008.055-.007.075.002.19.014.29.015.846.01 1.683.012 2.51.076-.443-.002-.886-.005-1.328-.01.969.019 1.96.036 2.918.051.03 0-.104-.005-.076-.005.283.003.644 0 .92.005.04.001.065.014-.051.013 1.498.001 3.017.007 4.515.017l.058.003c.256.007 1.14.006 1.274.007 3.07.025 5.904.067 8.89.11-.195.098-.505.166-.673.27.73.036 1.254.084 1.656.28-.323-.04-.537.051-.627.094l-.021.01.012.002-.019.001c-.014.007-.015.006-.02.002-.216.016-.096 0-.48.01-2.09.048-4.612.086-6.744.108-.525.005-1.04.027-1.398.036-1.388.031-2.522.05-3.857.078-.36.07-1.099.042-1.464.05-.366.006-.703.02-.967.024-1.775.03-3.435.091-5.162.161-.728.03-1.448.032-2.156.084-.044.003-.003-.011-.253.016s-.278.045.317.06c.595.016 1.49.1 2.188.125.221.009.51.016.766.018.72.007 1.48.013 2.209.029l.408.011.423.008.434.005c.593.004 1.167 0 1.77-.009l.041.002c.096.006.487.027.64.033.155.005.22.008.391.012.17.004.396.007.594.01.197.002.185.001.458.005.275.004.736.004 1.107.011 2.39.043 4.837.063 7.246.072-.621.142-1.087.313-1.554.5-.132-.08-.487-.034-.632-.011-.145.023-.01.03-.122.03-.113 0-.12-.042-.181-.067s-.214-.03-.31-.027c-.096.002-.217.023-.179.048.039.026.165.052.164.072 0 .02-.115-.004-.088.003.947.268 2.234.338 3.277.56-.034-.01-.815.007-.59.044.224.036 1.315-.034 1.245.123-2.952-.093-5.835-.305-8.753-.47-.523.21-.206.304.255.493.965.017 1.734.04 2.335.282 1.38.042 2.58.074 3.686.341-1.718.147-3.357.134-5.123.092-1.965.157-3.963.252-5.864.472.117.372.897.535 1.918.719 2.546.016 5.003.052 7.535-.086.524.259 1.871.08 2.467.248.595.169-.596.327.133.473.396-.084.864-.06 1.338-.048.797.414.719.869 1.137 1.318-1.344-.082-2.694-.101-4.062-.124-.404.209-.97.251-1.74.263.028.079.084.15.154.216-.683.026-1.334.093-1.897.263-3.158.355-6.422.603-9.708.829-.873-.034-1.404.098-1.763.314l-2.217.359c-.511.042-.625.162-.67.295-1.217.646-1.148.666 1.045.692 2.308.027 4.602-.164 6.908-.024H15.5c0 .047.003.094.004.14L9.877 22c.33.143.594.2.85.196 2.618-.032 5.237-.033 7.856-.035-.172.017-.337.037-.518.05.412.009.825.01 1.235.027-.74.15-1.483.207-2.37.235.147-.029.292-.055.452-.079-.942-.001-1.587.09-2.581.121-.573.018-.964.01.353.053 2.087.07 4.82.07 7.006.245-.236-.004-.517-.005-.768-.007-.022 0 .112.007.037.006-.076 0-.507-.009-.594-.01-.089-.002.04-.001.01-.002-1.32-.016-2.641-.021-3.96.013.096.003.264.01.342.01.078.001-.02-.009.055-.007.074.001.19.014.29.015.845.01 1.682.011 2.51.076-.443-.002-.886-.005-1.328-.01.969.019 1.961.036 2.918.05l-.076-.003c.283.002.644-.001.92.004.041.001.066.015-.051.011.267.027.544-.03.806.011 1.246.195 2.024.435 3.524.549 1.915.145 4.271.115 6.307.206.446.02.947.06 1.38.092-1.34.026-2.909.043-4.192.058-.538.006-1.043.027-1.402.035-1.39.032-2.52.051-3.857.079-.36.07-1.098.042-1.464.05-.365.006-.703.02-.966.024-1.775.03-3.435.091-5.161.162-.728.03-1.446.031-2.156.083-.044.003-.004-.01-.253.016-.249.028-.278.046.317.06.595.016 1.49.101 2.188.126.22.008.51.015.765.017.72.007 1.48.013 2.21.03.133.002.27.008.407.01l.423.008.434.005c.593.004 1.167 0 1.77-.009h-.001l.041.002c.097.006.487.027.641.033.154.005.22.008.39.012s.396.007.594.01l.459.005c.275.003.732.004 1.106.01 4.483.076 9.014.071 13.518.1l1.42.008.46.003c.177 0 .465.002.658.004l1.495.01.886.006.466.004 1.636.012c.673.004 1.595.01 2.343.017l1.215.009c6.024.035 12.065.083 18.092.121.954.006 1.928.014 2.869.019l.903.004.471.002c.206 0 .432-.003.647-.005.78-.006 1.558 0 2.343.003-.21.01-.082.039.008.04.09 0-.023-.036.06-.04.084-.003.163-.003.297-.003.134 0 .34-.018.513-.014.913.02 1.849.036 2.772.028.305-.003.608.001.91.006-.623.01-1.28.029-1.893.034-.177.002-.332.002-.472.007-.14.004-.102.01-.248.002-.146-.007-.295-.021-.498-.043-.202-.022-1.024-.005-1.029.042v.012c-.033.006.006.004-.055.006-.062.001-.149.013-.252.014-.47.004-.933.02-1.429.017-.978-.006-2.007-.027-2.983.035-4.078.035-8.153.054-12.232.066-.5.105-1.131.091-1.417.27 5.353.038 10.673.087 16.047.114.13.134-.205.073-.855.062-.36-.007-1.87.03-2.406.085 1.77.06 3.62.056 5.423.034l.023.004c.048.009-.053-.009.083.017.136.026.478.143.59.183.013.004.018.007.021.01.038-.002.112-.003.267.002.53.014 1.75-.023 2.456-.005.702.019 1.396.146 2.049-.014l-.006.005c-.01.009.07-.003.037-.008-.01-.002-.013-.001-.018 0 .017-.008.012-.02.199-.044.657-.081 1.69-.081 2.514-.107.012 0 .554-.004.592.002.636.1 1.542.015 1.983-.022l.08-.007c-.036.003-.065.006 0 0 .052-.005-.004 0 .004 0l.022-.002c.076-.006-.194.019.138-.006.332-.024 1.485-.083 1.843-.004.617.137 1.068.115 1.724.11.656-.003 1.51.005 2.063-.01.875-.024-.7-.125.69-.076 1.389.048 2.506.06 3.858.025l-.004-.001c.119.016.74.089.89.072.91-.1 2.267-.09 3.03-.089.764 0 .713.003 1.177-.094.037-.007-.015-.003-.003-.004.649-.085 1.246-.09 1.932-.097.206-.002.478-.004.666-.025.948-.102.657-.162-.258-.193-.566-.02-1.684.06-2.24-.073 4.408-.026 8.863-.052 13.28-.063.324 0 .678-.006.955.01.111.005-.036.088.029.106 3.193.031 6.403.064 9.602.098l-.335.022c.955.014 1.946.012 2.893.024-.044 0-.061-.024-.111-.021 1.373.01 2.752.022 4.119.027.134-.113 1.05-.106 1.47-.104.418.002 1.167-.037 1.597-.004.356.027.586.125.935.157-1.298-.01-2.61-.026-3.893-.013-.16 0-.379.006-.467.006h-.03c-.584-.04-1.127-.043-1.735-.043-.61 0-1.257-.005-1.885-.005.173.002.28.096.345.11.064.015.027-.001.05.003.018.004.005 0 .01.001.05.01.045.042.075.05.282.077 1.445.106 1.582.103l.09-.002h.002s-.003 0 0 0l.016.001c.405.068 1.25.028 1.523.007l.04-.003.032-.002c.023-.002-.002 0 .008 0 .375.023.71.065 1.037-.01.01-.002.006 0 .006 0h.005l.038.002c.08.004.335.006.417.007h.03l.038.005c.09.01.443.047.539.043.096-.003.014 0 .019.002.004.002.004-.001 0 0l-.01.004-.046.01c-.088.023-.382.107-.004.115-.356.009-.7.01-1.05.017.965.01 1.915.027 2.866.08-.405-.012-.777-.024-1.172.012.414.01.824.018 1.232.042-.652-.004-1.315-.022-1.959-.025.181 0 .205.063-.07.076-.273.012-.824-.01-1.163-.014-.34-.005-.747 0-.835.098-.033.036.252.061.378.062.126.002.903.018.482.065-.42.047-1.344-.012-1.44.092l-.009.01c-.042.01-.044 0-.11-.003-.438-.02-1.134-.047-1.533-.005s-.734.106-.265.196c.738.14 1.469.166 2.452.2.571.021 1.539.075 1.999-.13.114-.052.581-.025.803-.015 1.33.055 2.352.062 3.644-.1.942-.118 2.147-.154 3.166-.164 1.02-.01 1.933-.002 2.916-.002 2.865 0 5.539.02 8.397-.162.303-.02.833-.02 1.253-.018 1.597.004 3.278-.01 4.885.067.395.02.85-.003 1.223-.018 1.544-.06 3.33-.079 4.79-.1 1.071-.016 1.61.11 2.59.114.979.005 1.959-.071 2.945-.021.333.017.755.02 1.05.057.268.034.354.164.59.215.094-.11-.088-.162-.399-.22 1.045 0 2.09-.033 3.114-.079.167-.007.352-.021.478-.02.126 0 .108.046.202.047.095 0 .104-.054.203-.06.612-.03 1.34 0 1.97.024l-.314.007c.211.056.593.074 1.04.07 2.772-.026 5.474-.007 8.191.002.143.009.279.017.393.02.416.013.452.01.4-.019.334.001.667.003 1.002.003 1.255 0 2.49.012 3.722.024.65.013 1.315.019 2.043.019h.346c.55.004 1.107.006 1.664.006 1.123.006 2.282.016 3.382.025.642.006 1.309.006 1.976-.007 1.527.046 3.112.052 4.849-.047.57-.032 1.073-.026 1.369.032.63.125 1.544.02 2.359-.005-.195-.15-1.026-.15-1.916-.139-1.222.016-2.41.005-3.608.002 2.703-.153 5.406-.19 8.188-.193.284 0 .57-.002.855-.005l-.189.042c.133.004.29.02.394.011.114-.008.249-.04.256-.06.653-.01 1.303-.027 1.942-.058.352-.018.756-.007 1.055-.014.073-.001-.225.038-.154.039.049 0 .105-.002.165-.006-.142.027-.19.06-.054.074.577.061.116.193.505.263h.92-.001c.74-.012 1.504.035 2.203-.093h-.023c-.635-.15-2.168-.125-2.84-.27.183.001.387.006.49.012.147.01.187.046.264.048.075.002.04-.038.096-.036.48.02 1.135.054 1.556.097.42.043.935.071 1.206-.005.502-.14 1.063-.099 1.553-.048.49.05.561.042.958.007.396-.036.602.005.978 0 .744-.007 1.297-.019 2.107-.024l.444-.001-1.892.043c.36.102 1.124.082 1.796.064.808-.022 1.62-.035 2.428-.047.003.051.003.102.007.153-.617.01-1.231.019-1.848.04-.063.039-.099.14.16.124.535-.035 1.103-.123 1.69-.13.008.132.016.266.022.402.297-.012.535.048.823.044.463-.005.895-.07 1.266.056.592-.034 1.213-.101 1.78-.133.168-.01.13.074.138.098.566-.015 1.177.016 1.728.016.29 0 .59-.094.832-.1.242-.007.633.015.36.075 1.543-.055 3.072-.152 4.617-.209.627-.191 1.321-.118 2.107-.066-.039-.004-.133-.03-.184-.054l.093-.005c-.026-.012-.048-.025-.074-.036.012-.001.02-.003.036-.003.602 0 1.25.023 1.88.013.1.006.2.013.305.018-.032.05-.15.078-.284.113.472-.012.945-.016 1.414-.034-.246-.015-.48-.036-.71-.063.44.013.897.016 1.364.014.008.007.02.014.038.016l.776-.022c.414-.003.829-.007 1.236-.008.848.015 1.699.028 2.554.039-.149.012-.24.034-.098.068.272.065.665.014.912.014.202 0 .486-.025.493-.068 1.034.007 2.086.004 3.157-.01-.635.071-1.367.067-2.033.06.744.025 1.446.048 2.107-.06.205-.004.407-.004.613-.007 1.024.005 2.045.012 3.067.019-.062.02-.16.034-.26.048.312.015.559-.026.835-.046l.428.002c.17.013.333.037.478.061-.24.004-.463.003-.687.033.634-.004 1.221.009 1.823.07 1.548-.032 3.059-.046 4.62-.058.381-.003.597.005 1.064-.03.467-.036 1.292-.073 1.84-.075.545-.002.915.019 1.488-.024l-.058.007c-.118.012.065.002.07-.005l.006-.003c.063-.006.105-.012.213-.021.75 0 1.491.027 2.27-.064h-.001c.14.004.283 0 .43-.01 1.187 0 2.375-.003 3.568-.012.738.01 2.636.007 3.692-.018.531-.013 1.785-.02 2.386.046-.47-.043-1.076.074-1.558.005-.482-.068-1.997.033-2.01.05l-.026.035c-.015.018-.003.004-.008.004-.55.004-1.079.003-1.634.018-.022.001-.035 0-.097-.003-.471-.027-1.037-.001-1.492.019-.232.01-.37-.031-.552.008-.049.01.03-.006-.065.004s-.386.003-.477.004l-.023.001-.159-.012c-.285-.017-1.082-.052-1.41.033-.01.003-.111-.02.005.007.117.029-.323-.047.161.05.484.1 1.925.063 2.65-.033.433-.058 1.118-.03 1.608-.026.023 0-.01.009.064.003.074-.005.402-.043.476-.011l.002.002h.114c.392.004.526.01 1.306-.008 1.184-.028 3.565-.073 4.865-.058.881.01 1.522.033 2.245.025 2.124-.022 4.103-.066 6.183-.068.403 0 .686.028 1.065-.008.38-.037.637.082 1.03-.022.036-.01-.005-.036.32-.078.927-.119 2.666-.087 3.638.091.046.009.024-.008.04-.009.017 0-.001.002.008.001.211-.018.645.02.803-.013.178-.037.163-.027.358-.036.147-.007.186.033.333.034.305.004.68.01 1.012-.005.783-.033 1.652-.027 2.425-.031.449-.003.815-.04 1.226-.04 3.001.009 5.979.028 8.973.042.275 0 .573.007.842.007 3.651-.007 7.258.006 10.914.03 3.331.02 6.701-.056 10.034-.093 3.058-.034 6.1-.1 9.155-.12.006 0 .015.003.036.014.047.023.046.119-.057.14-.02.004-.023.006-.026.007-.01 0-.023 0-.059.003-.163.01.447-.019-.388.022-.836.04-2.547.063-3.757.096-1.65.045-3.771.152-5.472.142-.105 0-.274-.04-.274-.04s-.49-.064-.572-.044c-.006.002-.016-.002-.03-.002l.018.001c.006 0-.002.002-.007.001-.134-.032-.542-.036-.569-.003l-.004.007c-.03-.001-.129-.005-.411-.012-1.055-.027-2.698-.028-4.125.014-1.1.033-2.902-.012-4.129-.033-.4-.007-.749.044-1.156.045-.74.001-1.424-.1-2.1.038-.015.003.044-.01-.038.007-.083.015-.31-.01-.405-.013-.344-.012-.758.047-1.05.018l-.027-.003.011.002c-.004.002-.006.001-.009 0l.006.008c.015.025.032.013.1.063.067.048.504.101.654.084.121-.013.023-.001.03-.001.03-.001.014-.004.028-.001.14.027.467.015.574.005l.077-.006c3.763.04 7.53-.007 11.298-.039.007 0-.018-.002.005.002s-.051-.006.028.006.274-.018.38-.002c.105.016.02.024.175.046.666.097 1.537.008 2.285-.029 1.167-.058 2.333-.075 3.56-.06 4.021.048 7.755.297 11.6-.192.028-.003.055.003.1.004.372.012-.705-.022.505.02 1.92.067 4.929-.074 6.99-.17 1.566-.072 2.926-.015 4.431-.116-1.618-.092-2.965-.232-4.45.057h-.039c.058 0 .058-.002-.468-.002-1.279 0-4.021.046-5.416.074-.948.02-.708.007-1.198-.148-.012-.004.055.004.01-.003-.044-.007.088.01-.04-.01-.13-.022-.562-.019-.652-.079 1.336-.027 2.668-.029 3.982-.12h.012c.044-.003-.021.003.079-.003 1.437-.077 3.11-.094 4.536-.115.275-.004.12-.002.32-.006l.054-.001c.05-.002-.01.002.056-.001l.048-.002h.001l.118-.008c.477-.03 2.386-.205 3.12-.26-.456-.016-1.159.017-1.614.028-.455.01-.796-.014-1.194-.014-1.545 0-3.049.019-4.583.04.446-.015.886-.04 1.321-.07.116-.007.194-.049.313-.05 3.276-.034 6.723-.057 9.961-.1 3.238-.043 6.264-.049 9.469-.063 1.722-.009 3.465-.005 5.194.022.513.008 1.007-.023 1.537-.011.04 0 .064.002.166.005.814.022 1.72.02 2.549-.003h.033c.133.005.25-.018.386-.002.137.016.601.034.604-.001v-.011c.184-.105.441-.178.748-.229-2.192.02-4.382.038-6.587.038-5.764 0-11.542-.009-17.313.03-2.852.02-5.7-.015-8.54.087-.064.002-.116-.005-.176-.006-2.045-.045-3.905-.056-5.984.016-1.348.046-2.997.039-4.357.035-.4 0-.218-.004-.308-.079.873-.001 1.72.019 2.584-.002 3.042-.07 6.052-.137 9.11-.189 3.78-.063 7.603-.083 11.395-.108 1.839-.012 3.695.004 5.517-.036.16-.003.365-.01.454-.012h.034.002c.623.03 1.104.03 1.769.024.667-.007 1.505-.014 2.205-.019-.328-.019-.647-.053-.92-.107-.032-.006-.019.003-.033 0-.012-.003-.006.002-.012 0-.052-.018-.12-.029-.156-.048-.314-.16-1.634-.135-1.715-.11l-.077.023h-.002l-.007.002h-.01c-.01-.002-.007 0-.003 0l-.053-.008c-.198-.028-1.26-.012-1.432.016-.218.036.023-.004-.06.008l-.006.001c.002 0 .002-.002-.007-.002-.027-.002-.046-.002-.078-.013s-.256-.01-.247-.031c.009-.021.18-.07.354-.064 1.072.037 2.388.025 3.423-.004 1.035-.028 1.623-.018 2.54.092.286-.029.491-.09.724-.146 2.129-.055 4.251-.03 6.382-.051 1.293-.013 2.59-.14 3.888-.166-.16.043-.369.062-.563.092 1.776-.048 3.537-.071 5.32-.046.285-.103.676-.147 1.052-.215-1.306.006-2.57-.013-3.85-.092.648 0 1.293.01 1.94-.01-2.153-.011-4.272.05-6.41.12-.014-.033.017-.06.091-.082-.944-.02-1.815.08-2.75.088-2.418.023-4.858.02-7.278.087 2.067-.095 4.13-.194 6.186-.305 4.49-.034 8.948-.135 13.419-.266-.013.014.048.005-.015.024-.063.02-.325.044-.406.061-.08.017-.105.033-.035.054.07.02.012.01.172.032.16.02.402.044.688.067.285.024.829.074 1.154.116.014.001.02 0 .048.006.029.006.1.014.15.024.05.01.11.021.165.04.056.017.157.044.188.072.007.005-.021 0-.034.01-.156.148.432.255.474.165l.009-.02h.002c.274-.027.612-.041.86-.068.052-.007-.075-.038-.056-.045.02-.008-.005.001.003-.002.006-.003-.002-.002-.001-.003l.119-.016c.202-.029.84-.116 1.12-.162.02-.004-.019-.002.058-.003.076 0 .253.003.382-.006.129-.008.222-.043.346-.068.43-.087.806-.136 1.373-.125.568.011 1.176.036 1.784.076.917.06 1.79.17 2.593-.055.017-.005-.045-.005.115-.03.16-.024.847.021 1.085.054.95.131 1.693.097 2.59-.016.898-.114 1.69-.18 2.4-.37.019-.005-.04-.011-.065-.011-.41.004-1.1.026-1.453.026-.354.001-.443-.04-.696-.04h-.027c.01-.001.026-.007.026-.025 0-.037.428-.096.527-.13.1-.034-.065-.08-.212-.078-1.044.021-1.827-.068-2.942-.051-1.778.026-3.793.085-5.622.134-1.027.027-1.91.058-2.929.152-1.019.095-2.116.103-3.19.051-.088-.004-.283-.01-.288-.012-.003-.003-.023-.047.13-.034.152.013.817.039 1.069.036.212-.125-.258-.109.57-.124.145-.003.248-.037.012-.055-.237-.018-.567-.108-.858-.102-1.075.025-2.106.057-3.164-.041-.196-.018-.535-.026-.654-.033-.12-.007-.05-.018-.07-.026-.02-.008-.1-.055-.037-.055.696-.002 1.477.013 2.2-.003.001 0 0 0 0 0l.014.003c.051.01-.108-.018.07.015.176.033.592.052.88.051 2.188-.01 4.393-.008 6.584-.062.136-.004.265-.005.409 0 .452.02.786 0 1.274.004.488.005 1.125.015 1.645-.004h.412l2.061.003c.033 0-.01-.002.02.002.028.003-.05-.008.073.007.125.014.623.01.722-.005l.021-.003c-.002 0-.004 0 0 0l.037-.001h.073c.156-.002.508-.002.747 0l.812.001c.669.003 1.375-.004 2.047.004.164.002.26.02.427-.002h.001l.035-.002c.066-.002.263.003.382-.002.118-.004.286-.028.422-.028.135-.001.256-.01.4-.003.512.029 1.045.023 1.56.003l.09-.002h.077c.644.009 1.329.009 1.966.003 1.443-.014 2.873-.012 4.302-.004.384.002.716-.005 1.07-.033.014-.001 0-.015-.06-.015-.06-.001.08-.004.283-.004h.962c-.255.002-.524.008-.784.02.452.028.864.036 1.333.035 1.696-.004 3.465-.006 5.153.008 2.381.02 4.696 0 7.07.032.242.004.534-.003.784-.01.75-.02 1.494-.02 2.249-.023.03 0 .07-.005.076-.018.005-.014-.069-.027-.114-.028-.964-.03-1.927-.046-2.896-.047-.203 0-.391.026-.59.037.208-.016.32-.049.566-.052.246-.004 1.07-.006 1.09-.093.018-.088-.353-.025-.448-.053 1.983.004 3.934.002 5.939.003.676 0 1.556.026 1.73-.218.034-.05-.098-.074-.122-.111-.024-.038-.25-.013-.254-.032-.02-.128-.803-.08-1.114-.077-.312.002-.636-.009-.944-.005.702-.025 1.583.02 2.241-.037.51-.044-.003-.117-.316-.118-3.29-.01-6.61.001-9.917.008l-7.93.017.02-.015-.06.015-3.758.005c.235-.107.567-.215.27-.316.043-.007.07-.014.078-.021.006-.006.008-.01.008-.012l.032.007c.256.022.58.02.899.022h.386c.13 0 .262 0 .394-.002.739-.008 1.487-.043 2.222-.044.142-.001.283-.004.425-.009.66-.032 1.295-.025 1.938-.031 1.423-.035 2.835-.05 4.257-.082.52-.012 1.055-.016 1.427-.088.069.003.14.004.215.003l.01.002c.055.014.135.015.245.001l.54-.005c.817-.009 1.648-.057 2.461-.053.347-.006.559-.022.225-.056-.308-.03-.891.013-1.137-.04l2.444-.048c.5-.013 1.094.036 1.445-.073 1.433-.02 2.878-.018 4.295-.068 1.246-.044 2.493-.086 3.741-.127.853-.028 1.283-.148 2.048-.201.385-.027.33-.085.417-.131l-.14-.076c.167-.087.331-.166-.299-.224-.372-.035.06-.077.473-.093.346-.03.628-.065.37-.113-.057-.01-.082-.022-.09-.034.614.002 1.033-.005 1.017-.038 0-.004.622-.006.352-.023-.149-.009-.447-.014-.692-.01l-.618.003c.013-.01.023-.02.021-.03.044-.03.012-.055-.153-.072-.071-.028-.278-.032-.479-.036.957-.074.942-.072.475-.154-.33-.058-.725-.093-1.377-.084-.58.009-1.15.007-1.726.01h-.51c-.193-.004-.428.008-.583-.013l.691-.054c.487-.014.984.011 1.68-.056-.937-.04-1.824-.009-2.638-.012-.435-.001-.88-.001-.983-.068.22-.006.446-.002.743-.01.561.003 1.117.008 1.674.013.282.003.633.002.801-.01.095-.008-.03-.014-.206-.016l-1.677-.016h.005-.025l-.384-.004c-.674.004-1.192-.006-1.467-.028-.277-.023.342-.035.644-.043.838-.023.909-.032-.178-.043-1.074-.01-2.146-.017-3.253-.018-.064-.001-.131-.002-.201 0-.752-.016-1.708 0-2.424-.022-.105-.016.01-.027.487-.025 1.08.004 1.943-.01 2.65-.04.948.02 1.934.02 2.945.008.19.003.487.004.376.015-.141.016-.197.029.38.025.448-.002.716-.015.588-.032-.142-.02-.528-.03-1.088-.03-1.007-.023-.043-.027.25-.037.273-.004.802-.005.685-.017-.313-.03-.138-.077-1.592-.077-.71 0-1.331-.014-1.94-.027-.108-.005-.163-.01-.19-.014.04.004.103.008.19.014-.146-.026.166-.033.8-.026.28.003.707.011.778-.004.095-.02-.423-.02-.81-.02h-.016c.002-.007 0-.013 0-.02l.257-.004c.363-.004.8.002 1.085-.012l1.45-.025c-.288-.021-1.272-.024-.85-.053.214-.014.794-.008 1.099-.001 1.415.035.928-.021 1.143-.036.17-.012-.287-.03-.17-.048.865-.045.59-.062-1.097-.07v-.02l.548-.009-.075-.003h.023l.052.003c.424-.002.89.006 1.273-.006h.775c.09-.029.172-.058.252-.088.5.006 1.133-.003 1.58.01.548.014 1.065.025 1.513-.005.42-.028.246-.088-.35-.097-.81-.012-1.602-.027-2.434-.037.49-.228.815-.483 1.445-.69-4.47.075-8.622.018-12.833-.263.39 0 .697-.007.818-.028.506-.032 1.341-.023 2.097-.023 1.034-.01 2.043.035 3.191.007-.55-.033-1.707-.016-2.11-.052-.088-.008-.224.014-.286.023-.707 0-.944-.023-1.336-.038.143-.012.23-.026.44-.035.817-.038.775-.044-.548-.054-.375-.003-.77-.001-1.156-.002-.601-.013-1.263-.01-1.91-.01h.004c-.575-.015-1.255-.004-1.865-.01l-.212-.005-.287-.025c.111-.008.466-.007.792-.01.65-.004 1.531.008 1.82-.029l.524-.009c.95.017 1.928.02 2.938.009.18.003.476.003.4.015-.067.01-.317.021.173.026.35.003.643-.005.765-.015.603-.044-.404-.041-1.07-.048-.997-.023-.078-.026.26-.036l.591-.011c-.028-.033.143-.073-1.116-.08-.843-.005-1.559-.019-2.307-.032-.083-.023.203-.03.774-.025.31.003.79.015.847-.005.053-.019-.498-.019-.895-.02-.094-.018.216-.02.589-.021.394 0 .745-.005.99-.017l1.24-.018c-.115-.025-1.114-.024-.92-.05.141-.02.633-.012 1.005-.012 1.02.034 1.02.034 1.344-.02l-.196-.06c.651-.02.784-.04-.064-.06-.005-.002-.015-.005-.033-.007l-.545-.025c.207-.002.412-.006.623-.006.491-.001 1.13 0 1.12-.023-.009-.023-.582-.031-1.175-.03l-1.059-.019c-.196-.011-1.037-.026.117-.032.941-.004 1.879-.014 2.792.004.485.015 1.142 0 1.636.015.483.014.992.026 1.436-.002.41-.026.293-.092-.24-.099-1.212-.015-2.307-.042-3.612-.048-1.47-.015-2.822-.04-4.067-.072l-.347-.008c3.477-.018 6.944-.075 10.426-.18.168-.164.86-.202 1.163-.343-1.269-.002-2.342-.023-3.42-.236 1.088.012.988-.118 1.094-.392 1.365-.041 2.89-.048 3.005-.536 2.29-.143 4.018-.435 5.769-.886.523.06.905.025 1.41-.047.032-.005.019-.033.137-.028.117.006.264.032.397.06.134.028.467.013.614.009.147-.005.391-.02.356-.063-.035-.043-.288-.044-.341-.066-.052-.022.159.004.165-.007-2.315-.24-4.789-.199-7.14-.372-.026 0 1.545-.07 1.199-.084-.347-.013-2.49.12-2.726-.07 6.047-.041 12.143-.017 18.209-.05 1.088-.279.22-.334-.738-.477-1.725.059-3.243.128-4.822-.128-2.758.053-5.318.096-7.987-.15 3.531-.239 7.075-.314 10.683-.377 3.86-.281 7.755-.504 11.544-.862-.095-.082-.23-.147-.383-.205.552-.038 1.103-.076 1.657-.112.872.036 1.407-.095 1.774-.309l2.23-.352c.513-.04.63-.16.68-.293h.001z" mask="url(#12010my79e)"/>
                </g>
                <path fill="#000" d="M105.716 1.004L105.284.965 105.518 1.035zM260 1l-1 .49c.21.405.58.496.99.51l.01-1M100 .937l1 .167c-.255-.068.522-.302-1-.167M27.791 8.006c-.049-.01-.06-.024-.157-.026-.098-.002-.28.009-.425.014.05.01.06.025.159.026.095.002.279-.009.424-.014M216.368 26.895c-.761.012-1.674.004-2.348.141-.065.013.05.046.08.07l2.849-.012c.144-.102-.006-.208-.581-.199" transform="translate(351 1079)"/>
                <g transform="translate(351 1079) translate(196 27)">
                    <mask id="miagz4f8fg" fill="#fff">
                        <use xlink:href="#ehz9yf9buf"/>
                    </mask>
                    <path fill="#000" d="M.367.312L2.585.5C2.143.166 1.353.153.367.312" mask="url(#miagz4f8fg)"/>
                </g>
                <path fill="#000" d="M23.992 5c-.176-.004-.292-.01-.453-.01-.145 0-.437.004-.49.007-.108.007-.015.014.424.013.171 0 .318-.006.52-.01M465 7.995c-.002.03.389.02.642.026.148.002.368.003.358-.012-.019-.027-.395-.023-.637-.03-.182-.004-.362.003-.363.016M458 19.995c-.002.03.389.02.642.026.148.002.368.003.358-.012-.019-.027-.394-.023-.637-.03-.182-.004-.362.003-.363.016M454 16.998c.026.029.4.016.618.022.174 0 .415.004.378-.014-.047-.022-.406-.02-.646-.025-.196-.005-.361.004-.35.017" transform="translate(351 1079)"/>
            </g>
        </g>
    </g>
</svg>
