<svg xmlns="http://www.w3.org/2000/svg" width="60" height="60" viewBox="0 0 60 60">
    <g fill="none" fill-rule="evenodd">
        <g fill="#000" fill-rule="nonzero">
            <g>
                <path d="M57 40h-3c3.618-8.684 2.263-18.646-3.544-26.048C44.649 6.55 35.296 2.862 26 4.31V3c0-1.657-1.343-3-3-3H3C1.343 0 0 1.343 0 3v14c0 1.657 1.343 3 3 3h3c-3.618 8.684-2.263 18.646 3.544 26.048C15.351 53.45 24.704 57.138 34 55.69V57c0 1.657 1.343 3 3 3h20c1.657 0 3-1.343 3-3V43c0-1.657-1.343-3-3-3zm-5.08 0h-8.63l-4.67-2.91C39.09 37 38 37 52.94 37c-.75 2.47-1.02 2.51-1.02 3zm1.88-13h-11c-.66-.003-1.293-.268-1.758-.736-.465-.47-.725-1.104-.722-1.764 0-1.197-.477-2.345-1.325-3.19-.848-.844-1.998-1.315-3.195-1.31h-1.16c-1.38 0-2.5-1.12-2.5-2.5s1.12-2.5 2.5-2.5h5.8c2.223-.008 4.102-1.649 4.41-3.85 4.966 3.888 8.186 9.59 8.95 15.85zM2 17V3c0-.552.448-1 1-1h20c.552 0 1 .448 1 1v19.2l-6.47-4.05c-.35-.22.7-.15-14.53-.15-.265 0-.52-.105-.707-.293C2.105 17.52 2 17.265 2 17zm6.08 3h8.63l4.65 2.91c-.47.13-.25.09-5.28.09-2.485 0-4.5 2.015-4.5 4.5s2.015 4.5 4.5 4.5h9.28c1.38 0 2.5 1.12 2.5 2.5s-1.12 2.5-2.5 2.5H7.06c-2.9-9.49 1.02-16.35 1.02-17zm-.32 19h17.6c2.485 0 4.5-2.015 4.5-4.5s-2.015-4.5-4.5-4.5h-9.28c-1.38 0-2.5-1.12-2.5-2.5s1.12-2.5 2.5-2.5h4.64c.939.022 1.854-.294 2.58-.89 1.23.78 1.33.89 1.7.89.552 0 1-.448 1-1V6.34c5.904-1.015 11.973.231 17 3.49-.04.221-.06.445-.06.67.003.664-.26 1.301-.73 1.77-.469.47-1.106.733-1.77.73h-5.8c-2.485 0-4.5 2.015-4.5 4.5s2.015 4.5 4.5 4.5h1.16c1.373.011 2.48 1.127 2.48 2.5 0 2.477 2.003 4.489 4.48 4.5H54c.105 2.013-.063 4.032-.5 6H39.24c-.927-.024-1.831.285-2.55.87l-1.16-.72c-.309-.193-.698-.203-1.016-.026-.318.177-.515.512-.514.876v5.28c-.455.46-1.074.718-1.72.72H26c-2.485.127-4.397 2.245-4.27 4.73.127 2.485 2.245 4.397 4.73 4.27h1.16c.66.003 1.293.268 1.758.736.465.47.725 1.104.722 1.764v.5c-9.813.037-18.66-5.903-22.34-15zm24.36 14.9v-.4c0-2.477-2.003-4.489-4.48-4.5h-1.16c-1.38.075-2.56-.984-2.635-2.365-.075-1.38.984-2.56 2.365-2.635h6.07c.591 0 1.176-.118 1.72-.35v10c-.59.11-1.21.2-1.88.25zM58 57c0 .552-.448 1-1 1H37c-.552 0-1-.448-1-1V37.8c7.12 4.46 6.6 4.2 7 4.2h14c.552 0 1 .448 1 1v14z" transform="translate(-469 -4307) translate(469 4307)"/>
                <path d="M6 6h1c.552 0 1-.448 1-1s-.448-1-1-1H6c-.552 0-1 .448-1 1s.448 1 1 1zM11 6h9c.552 0 1-.448 1-1s-.448-1-1-1h-9c-.552 0-1 .448-1 1s.448 1 1 1zM6 11h10c.552 0 1-.448 1-1s-.448-1-1-1H6c-.552 0-1 .448-1 1s.448 1 1 1zM21 15c0-.552-.448-1-1-1H6c-.552 0-1 .448-1 1s.448 1 1 1h14c.552 0 1-.448 1-1zM55 49H39c-.552 0-1 .448-1 1s.448 1 1 1h16c.552 0 1-.448 1-1s-.448-1-1-1zM41 53h-2c-.552 0-1 .448-1 1s.448 1 1 1h2c.552 0 1-.448 1-1s-.448-1-1-1zM55 53H45c-.552 0-1 .448-1 1s.448 1 1 1h10c.552 0 1-.448 1-1s-.448-1-1-1zM39 47h10c.552 0 1-.448 1-1s-.448-1-1-1H39c-.552 0-1 .448-1 1s.448 1 1 1z" transform="translate(-469 -4307) translate(469 4307)"/>
            </g>
        </g>
    </g>
</svg>
