<svg xmlns="http://www.w3.org/2000/svg" width="3460" height="1219" viewBox="0 0 3460 1219">
    <defs>
        <filter id="dbss3z3l9a">
            <feColorMatrix in="SourceGraphic" values="0 0 0 0 0.024855 0 0 0 0 0.137611 0 0 0 0 0.362036 0 0 0 1.000000 0"/>
        </filter>
    </defs>
    <g fill="none" fill-rule="evenodd" opacity=".269">
        <g filter="url(#dbss3z3l9a)" transform="translate(771 -2044)">
            <g>
                <path stroke="#FFF1BA" d="M704.433.248L.433 1217.949M734.708.248L30.708 1217.949M764.984.248L60.984 1217.949M795.259.248L91.259 1217.949M825.534.248L121.534 1217.949M855.809.248L151.809 1217.949M886.085.248L182.085 1217.949M916.36.248L212.36 1217.949M946.636.248L242.636 1217.949M976.911.248L272.911 1217.949M1007.186.248L303.186 1217.949M1037.462.248L333.462 1217.949M1067.737.248L363.737 1217.949M1098.013.248L394.013 1217.949M1128.288.248L424.288 1217.949M1158.563.248L454.563 1217.949M1188.839.248L484.839 1217.949M1219.114.248L515.114 1217.949M1249.389.248L545.389 1217.949M1279.665.248L575.665 1217.949M1309.94.248L605.94 1217.949M1340.215.248L636.215 1217.949M1370.491.248L666.491 1217.949M1400.766.248L696.766 1217.949M1431.041.248L727.041 1217.949M1461.317.248L757.317 1217.949M1491.593.248L787.593 1217.949M1521.868.248L817.868 1217.949M1552.142.248L848.143 1217.949M1582.418.248L878.418 1217.949M1612.693.248L908.693 1217.949M1642.969.248L938.969 1217.949M1673.244.248L969.244 1217.949M1703.519.248L999.519 1217.949M1733.795.248L1029.795 1217.949M1764.07.248L1060.07 1217.949M1794.346.248L1090.346 1217.949M1824.621.248L1120.621 1217.949M1854.896.248L1150.896 1217.949M1885.172.248L1181.172 1217.949M1915.447.248L1211.447 1217.949M1945.723.248L1241.723 1217.949M1975.998.248L1271.998 1217.949M2006.273.248L1302.273 1217.949M2036.549.248L1332.549 1217.949M2066.824.248L1362.824 1217.949M2097.099.248L1393.099 1217.949M2127.375.248L1423.375 1217.949M2157.65.248L1453.65 1217.949M2187.925.248L1483.926 1217.949M2218.201.248L1514.201 1217.949M2248.476.248L1544.476 1217.949M2278.752.248L1574.752 1217.949M2309.027.248L1605.027 1217.949M2339.302.248L1635.303 1217.949M2369.578.248L1665.578 1217.949M2399.853.248L1695.853 1217.949M2430.129.248L1726.129 1217.949M2460.404.248L1756.404 1217.949M2490.679.248L1786.679 1217.949M2520.954.248L1816.954 1217.949M2551.229.248L1847.229 1217.949M2581.505.248L1877.505 1217.949M2611.78.248L1907.78 1217.949M2642.055.248L1938.055 1217.949M2672.331.248L1968.331 1217.949M2702.606.248L1998.606 1217.949M2732.882.248L2028.882 1217.949M2763.157.248L2059.157 1217.949M2793.432.248L2089.432 1217.949M2823.708.248L2119.708 1217.949M2853.983.248L2149.983 1217.949M2884.258.248L2180.258 1217.949M2914.534.248L2210.534 1217.949M2944.809.248L2240.809 1217.949M2975.085.248L2271.085 1217.949M3005.36.248L2301.36 1217.949M3035.635.248L2331.635 1217.949M3065.911.248L2361.911 1217.949M3096.186.248L2392.186 1217.949M3126.462.248L2422.462 1217.949M3156.737.248L2452.737 1217.949M3187.012.248L2483.012 1217.949M3217.288.248L2513.288 1217.949M3247.563.248L2543.563 1217.949M3277.839.248L2573.839 1217.949M3308.114.248L2604.114 1217.949M3338.389.248L2634.389 1217.949M3368.665.248L2664.665 1217.949M3398.94.248L2694.94 1217.949M3429.216.248L2725.216 1217.949M3459.49.248L2755.49 1217.949" transform="translate(-771 2044)"/>
            </g>
        </g>
    </g>
</svg>
