<svg xmlns="http://www.w3.org/2000/svg" width="60" height="54" viewBox="0 0 60 54">
    <g fill="none" fill-rule="evenodd">
        <g fill="#000">
            <g>
                <path d="M47.301 42.458c0 .712-.592 1.292-1.32 1.292H14.02c-.729 0-1.321-.58-1.321-1.292v-21.25c0-.712.592-1.292 1.32-1.292H45.98c.729 0 1.321.58 1.321 1.292v21.25zM45.981 17.5H14.02c-2.092 0-3.793 1.664-3.793 3.708v21.25c0 2.045 1.701 3.708 3.793 3.708h31.96c2.092 0 3.793-1.663 3.793-3.708v-21.25c0-2.044-1.701-3.708-3.793-3.708z" transform="translate(-1390 -4311) translate(1390 4311)"/>
                <path d="M24.29 31.875h-3.92v-2.542c0-1.056.879-1.916 1.96-1.916 1.08 0 1.96.86 1.96 1.916v2.542zm2.471 5.583v-8.125c0-2.389-1.988-4.333-4.431-4.333-2.444 0-4.432 1.944-4.432 4.333v8.125c0 .666.554 1.209 1.236 1.209.681 0 1.235-.543 1.235-1.209v-3.166h3.92v3.166c0 .666.555 1.209 1.236 1.209.682 0 1.236-.543 1.236-1.209zM35.71 27.417h1.32c1.435 0 2.6 1.14 2.6 2.542v3.75c0 1.401-1.165 2.541-2.6 2.541h-1.32v-8.833zm1.32 11.25c2.797 0 5.072-2.225 5.072-4.958v-3.75c0-2.734-2.275-4.959-5.071-4.959h-2.556c-.682 0-1.236.542-1.236 1.209v11.25c0 .666.554 1.208 1.236 1.208h2.556z" transform="translate(-1390 -4311) translate(1390 4311)"/>
                <path d="M57.528 8.75H2.472V6.208c0-2.09 1.74-3.791 3.877-3.791h47.302c2.137 0 3.877 1.7 3.877 3.791V8.75zm0 38.709c0 2.09-1.74 3.791-3.877 3.791H6.349c-2.137 0-3.877-1.701-3.877-3.791V11.167h55.056v36.292zM53.651 0H6.349C2.85 0 0 2.785 0 6.208v41.25c0 3.423 2.849 6.209 6.35 6.209h47.3c3.501 0 6.35-2.786 6.35-6.208V6.208C60 2.785 57.151 0 53.65 0z" transform="translate(-1390 -4311) translate(1390 4311)"/>
            </g>
        </g>
    </g>
</svg>
