<svg xmlns="http://www.w3.org/2000/svg" width="60" height="60" viewBox="0 0 60 60">
    <g fill="none" fill-rule="evenodd">
        <g fill="#000" fill-rule="nonzero">
            <g>
                <path d="M20.22 45.926c-.015-.075-.037-.149-.066-.22-.03-.07-.066-.139-.108-.202-.042-.064-.091-.124-.145-.178-.054-.054-.114-.103-.178-.145-.064-.042-.132-.079-.203-.108-.07-.03-.144-.053-.22-.067-.15-.03-.306-.03-.456 0-.075.014-.15.038-.22.067-.07.03-.139.066-.202.108-.065.042-.124.091-.178.145-.054.054-.103.114-.146.178-.043.063-.078.131-.107.202-.03.071-.053.145-.067.22-.015.075-.024.152-.024.229 0 .076.009.153.024.228.014.075.037.149.067.22.029.07.064.139.107.202.043.064.092.124.146.178.054.054.113.103.178.145.063.043.131.079.201.108.072.03.146.053.22.067.076.015.153.024.23.024.075 0 .153-.009.228-.024.075-.014.149-.037.219-.067.071-.029.14-.065.203-.108.064-.042.124-.091.178-.145.054-.054.103-.114.145-.178.042-.063.079-.131.108-.203.03-.07.051-.144.067-.219.015-.075.023-.152.023-.228 0-.077-.008-.154-.023-.229z" transform="translate(-776 -4307) translate(776 4307)"/>
                <path d="M53.905 46.287l-.014-.035c-1.078-2.524-3.608-3.457-6.602-2.434l-8.164 2.258c-.472-1.43-1.65-2.646-3.314-3.264l-.031-.011-8.974-3.046c-.747-.965-3.087-3.436-7.468-3.436-3.061 0-5.77 2.1-7.32 4.39H1.173C.525 40.708 0 41.232 0 41.88v14.775c0 .647.525 1.172 1.172 1.172h6.967c.648 0 1.172-.525 1.172-1.172v-1.012h3.268c.647 0 1.172-.524 1.172-1.172v-.337c1.905.166 2.531.528 4.28 1.536 1.346.776 3.379 1.949 7.04 3.595l.052.022c.703.276 2.077.71 3.77.71 1.18 0 2.513-.21 3.883-.831l18.046-6.461c.032-.012.064-.025.094-.039 1.725-.793 4.295-3.03 2.99-6.379zM6.968 55.483H2.344v-12.43h4.624v12.43zm4.439-2.184H9.311V43.052h2.096V53.3zm38.573-2.783l-18.038 6.459-.053.02-.047.02c-2.512 1.155-4.9.464-5.836.1-3.537-1.591-5.424-2.68-6.804-3.475-1.917-1.106-2.841-1.64-5.451-1.855v-9.438c1.11-1.82 3.265-3.684 5.587-3.684 3.983 0 5.67 2.59 5.737 2.695.143.232.363.408.622.496l9.313 3.16c1.487.559 2.274 1.833 1.912 3.103-.166.587-.552 1.073-1.085 1.37-.528.294-1.138.367-1.72.206l-10.5-3.327c-.617-.196-1.275.146-1.47.763-.196.617.146 1.276.763 1.471l10.517 3.333.034.01c.42.12.847.179 1.272.179.778 0 1.547-.199 2.245-.588 1.08-.601 1.86-1.587 2.199-2.776.027-.095.05-.19.071-.285l8.799-2.437c1.27-.434 2.939-.59 3.682 1.12.768 2.008-1.23 3.113-1.749 3.36zM42.077 15.415c-.015-.075-.037-.149-.068-.22-.029-.07-.064-.138-.107-.202s-.092-.124-.146-.178c-.054-.054-.113-.103-.178-.145-.063-.042-.131-.079-.201-.108-.072-.03-.146-.053-.22-.067-.15-.03-.307-.03-.458 0-.075.014-.149.038-.219.067-.071.03-.14.066-.203.108-.064.042-.124.091-.178.145-.054.054-.103.114-.145.178-.042.064-.079.132-.108.202-.03.071-.053.145-.067.22-.015.075-.023.153-.023.229 0 .076.008.153.023.228.014.075.038.15.067.22.03.07.066.139.108.202.042.065.091.124.145.178.054.054.114.103.178.146.064.042.132.078.203.107.07.03.144.052.22.067.074.015.152.024.228.024.076 0 .153-.009.23-.024.073-.015.147-.037.219-.067.07-.029.138-.065.201-.107.065-.043.124-.092.178-.146.054-.054.103-.113.146-.178.043-.063.078-.131.107-.203.03-.07.053-.144.068-.219.016-.075.023-.152.023-.228 0-.076-.007-.154-.023-.229z" transform="translate(-776 -4307) translate(776 4307)"/>
                <path d="M58.828 3.972h-6.967c-.648 0-1.172.524-1.172 1.171v1.012H47.42c-.647 0-1.172.525-1.172 1.172v.337c-1.905-.166-2.531-.527-4.28-1.536-1.346-.776-3.379-1.948-7.04-3.594l-.052-.022c-1.192-.47-4.316-1.392-7.652.12l-4.716 1.689L18.534.346c-.458-.458-1.2-.458-1.657 0l-13.05 13.05c-.422.422-.503 1.154 0 1.657l22.3 22.3c.356.356 1.192.464 1.657 0l11.913-11.915c.31.027.632.042.965.042 3.061 0 5.77-2.1 7.319-4.39h10.847c.647 0 1.172-.524 1.172-1.172V5.143c0-.647-.525-1.171-1.172-1.171zm-41.123-1.14l2.671 2.67c-.794.492-1.712.755-2.67.755-.96 0-1.878-.263-2.672-.754l2.671-2.671zM8.984 16.895l-2.671-2.67 2.67-2.672c.492.794.755 1.712.755 2.671 0 .96-.263 1.877-.754 2.671zm17.971 17.971l-2.67-2.67c1.63-1.006 3.71-1.006 5.34 0l-2.67 2.67zm4.359-4.358c-2.59-1.879-6.128-1.879-8.718 0L10.672 18.583c.915-1.258 1.41-2.77 1.41-4.359s-.495-3.1-1.41-4.359l2.674-2.674c1.259.915 2.77 1.41 4.36 1.41 1.588 0 3.1-.495 4.359-1.41l2.534 2.535c-.547.08-1.08.26-1.577.538-.84.468-1.5 1.169-1.91 2.017-1.322.245-2.545.885-3.505 1.845-2.605 2.604-2.605 6.842 0 9.447 1.302 1.302 3.012 1.953 4.723 1.953 1.71 0 3.421-.651 4.724-1.953.847-.848 1.44-1.889 1.738-3.024l3.957 1.343c-.446 2.063.01 4.234 1.241 5.94l-2.676 2.676zm-7.125-11.522l.031.011 2.343.796c-.177.798-.577 1.533-1.166 2.122-1.691 1.69-4.442 1.691-6.133 0-1.69-1.69-1.69-4.441 0-6.132.408-.408.89-.727 1.414-.943.216 1.8 1.512 3.405 3.511 4.146zm11.49 7.157c-.453-.737-.709-1.579-.75-2.437.562.405 1.248.803 2.068 1.119l-1.318 1.318zm10.57-6.692c-1.11 1.821-3.265 3.685-5.587 3.685-.435 0-.842-.031-1.223-.086l-.004-.001c-2.531-.368-3.892-1.806-4.341-2.376-.024-.035-.126-.168-.141-.19-.136-.244-.36-.44-.646-.537l-9.317-3.163c-1.487-.558-2.273-1.83-1.913-3.1l.001-.003v-.003c.168-.585.553-1.07 1.084-1.366.528-.294 1.139-.367 1.721-.206l10.5 3.327c.616.196 1.275-.146 1.47-.763.196-.617-.146-1.276-.763-1.471l-8.35-2.646-.073-.073-.002-.002-4.323-4.323 3.716-1.33.04-.016.012-.005.048-.02c2.512-1.155 4.9-.464 5.836-.1 3.537 1.591 5.424 2.68 6.804 3.475 1.917 1.106 2.841 1.64 5.451 1.855v9.438zm4.44-.705h-2.096V8.5h2.096v10.247zm6.967 0h-4.624V6.316h4.624v12.43z" transform="translate(-776 -4307) translate(776 4307)"/>
            </g>
        </g>
    </g>
</svg>
