<svg xmlns="http://www.w3.org/2000/svg" xmlns:xlink="http://www.w3.org/1999/xlink" width="676" height="28" viewBox="0 0 676 28">
    <defs>
        <path id="pqvo5f4yob" d="M0.25 0.063L0.75 0.063 0.75 0.5 0.25 0.5z"/>
        <path id="kymakvk11d" d="M0 0.04L675.882 0.04 675.882 26.851 0 26.851z"/>
        <path id="5lz6wujpwf" d="M0.489 0.107L3.446 0.107 3.446 0.5 0.489 0.5z"/>
        <filter id="8mzecqvh2a">
            <feColorMatrix in="SourceGraphic" values="0 0 0 0 0.835294 0 0 0 0 0.156863 0 0 0 0 0.156863 0 0 0 1.000000 0"/>
        </filter>
    </defs>
    <g fill="none" fill-rule="evenodd">
        <g filter="url(#8mzecqvh2a)" transform="translate(-211 -999)">
            <g>
                <path fill="#000" d="M76.631 1.04c.131-.014.453-.051.349-.09-.104-.041-1.05-.009-.976.073.073.082.496.03.627.016M54.904 1.976c-.39.06-.999-.06-1.352-.046-.353.014-.257.077-.552.095.403.015 2.464.122 1.904-.05M384.565 26.994c-.353.003.08.024 0 0M442.49 27h.02-.02M105.528 25.996c-.143.005.026.014 0 0M535 26.047c1.332-.01 2.665-.019 4-.026-1.47-.073-2.977-.117-4 .026M442.495 26.999l.01.002L442.5 27h-.005M543.896 26.004c.01-.003-.01-.005.102-.003.112.001 1.058-.002 1-.048-.06-.046-.791-.038-.939-.038-1.693 0-3.378.005-5.059.013 1.313.056 2.596.128 3.566.142.502.007.974.054 1.33-.066M33.62 12.998c-.068-.007-.385.013-.162.002.086-.004.105 0 .113.003l.037-.001c.003 0 .01-.002.012-.004M460.493 27h.014-.014M79.5 2h-.001.002-.001M258.524.998c.08-.008-.082 0-.07.004.013.005-.011.005.07-.004M533.495 2h-.003H533.495M483.467 2c-.009 0-.002.001.001.001.02 0 .052.002.067 0l-.034-.003c-.004 0-.018.003-.022.002-.005-.001.017-.003.018-.002.002.002-.023.001-.03.002M30.504 10.001c.007.002.013 0 .008 0-.048-.005-.018-.002-.008 0M485.45 1.394c-.677.062-1.19.158-1.829.231-.146.017-.127.042-.04.054l.04.006h-.002.005c.017.001 0-.003.026 0s-.03-.002-.026 0c.002 0 .007.003-.002.002-.275-.03-.17-.053.064-.081-1.04-.206.988-.197 1.763-.212zm9.392.057c.3-.014 1.094-.056 1.358-.064.264-.009.424-.03.524-.024.101.005.164.044.161.06-.015.088-.59.02-1.01.022-.419.002-1.054.011-1.447.07-.008-.05.115-.049.414-.064zm-27.956.086c3.672-.033 7.308-.108 10.947-.146.283-.003.595.005.783.01.188.004.253.012.167.035-.087.023-.478.037-.59.053-.114.016-.16.027-.06.046s.016.01.244.028c.227.018.573.038.98.057.405.02 1.18.064 1.643.099.019.002.029 0 .069.005.04.005.143.014.213.021.07.008.163.02.233.033.068.012.218.048.258.058-.013.003-.051.013-.144.04-.285.086.417.154.702.11l.096-.014c-.008.001-.019.003 0 0l-.01.002c.008 0 .016 0 .014-.002h-.002-.002c.016-.002 0 0 .006 0 .008-.001-.006 0 0 0 .394-.02.887-.034 1.245-.057.075-.004-.108-.032-.076-.038l.005-.001c-.009 0-.01 0 0-.001 0-.001-.015-.003.006-.001h-.002l.17-.019c.295-.03 1.206-.102 1.645-.133.031-.002-.025-.002.087-.002.11 0 .372.003.555-.005.182-.008.34-.035.513-.058.6-.08 1.25-.106 2-.108.751-.002 1.877.063 2.56.061 1.078-.002 3.052-.11 3.622-.054l.138.014c.218.004-.067.002.208-.014.285-.017 1.19.014 1.543.04 1.403.108 2.486.084 3.804-.012 1.32-.096 2.474-.15 3.538-.314.03-.004-.061-.01-.097-.01-.565.004-1.661.02-2.121.022-.46.001-.8-.033-.99-.035h-.046c.243-.035.634-.081.787-.126.153-.044-.08-.072-.297-.07-1.525.011-2.65-.062-4.273-.05-2.588.02-5.484.07-8.16.11-1.5.022-2.747.05-4.283.129-1.537.08-2.936.082-4.695.043-1.758-.04-4.003-.04-5.863-.07-.193-.004-.25.061-.52.051-.27-.01-1.27-.042-1.525-.008-1.344.18-2.387.143-3.938.15-1.981.009-4.008.05-5.973.116.148.006.307.019.463.02 1.457.017 2.983.008 4.423-.005z" transform="translate(211 999)"/>
                <path fill="#000" d="M483.502 2h-.002.002c-.015.002-.006 0 0 0 .004 0 .006 0 .004-.001h-.005s.003.001 0 .001M494.464.997c-.077.012-.004.004.001 0h.001c.103.01.261.022-.046-.005h-.019l.063.005" transform="translate(211 999)"/>
                <path fill="#000" d="M483.643 2.002c-.026-.016-.284-.011-.287-.005-.003.006.314.02.287.005M7.556 14.001c0-.003-.102-.005-.111-.003-.004.001.049.004.06.004.01 0 .05.002.05 0M531.916 1c.409-.072-.798-.089-1.051-.084-.68.014-1.342.044-1.865.142.944.017 2.165.074 2.916-.058M82.508 2h-.016.016M482.5 2c.002 0 0 0 0 0-.002 0 0 0 0 0M440.59 26.926c-.277-.007-.757-.02-.531.065.225.085 1.14.09 1.45.088.309-.003.585.004.46-.06-.125-.063-1.102-.087-1.379-.093M341.45 26.958c-.476-.022-.949-.027-1.404.03-.095.013-.025.037.046.046.386.046 1.076.012 1.38.01.306-.004.598-.025.513-.065-.086-.04-.374-.014-.534-.021M538.585 26.018c-.09-.01-.5-.028-.569-.01-1.34.36-2.683.538-3.989.881-.03.009-.035 0-.015.002.962.151 1.948.114 2.92.071l.1-.004.02-.001h-.008.014l.01-.001h.002c.025-.002.023-.002.015 0h-.016l.012-.002c.017-.003.014-.002.01.001h-.005l-.015.001h-.007.026c-.007.004-.005.006.049-.003l.046-.008c.177-.035.877.03 1.123-.077.247-.106.424-.52.638-.646.213-.127-.269-.193-.36-.204M503.275 26.98c-.127.01-.278.03-.227.04.052.011.545.01.678.007.133-.002.32-.013.196-.038-.124-.026-.52-.019-.647-.009M540.922 25.927c-.798.01-.73.016-.922.15 1.319-.019 2.596-.033 3.9-.056.05 0 .153-.039.067-.045-.893-.06-2.246-.058-3.045-.049" transform="translate(211 999)"/>
                <g transform="translate(211 999) translate(242 27)">
                    <mask id="jgbja0t2qc" fill="#fff">
                        <use xlink:href="#pqvo5f4yob"/>
                    </mask>
                    <path fill="#000" d="M.518.244C.102.339.461.392.66.383.716.38.59.227.518.243" mask="url(#jgbja0t2qc)"/>
                </g>
                <path fill="#000" d="M142.629 26.003c0-.01-.261-.016-.258-.007.005.014.258.016.258.007M142.852 26.445c.464.257-1.41.214-2.194.22.798-.061 1.514-.167 2.28-.237.18-.017.238-.038.203-.061-.009-.006-.016-.009-.02-.01 0 0 0-.002.002-.001.225.05-.054.07-.271.09m-10.842.074c-.324.013-1.167.052-1.441.06-.275.007-.47.027-.554.022-.083-.006-.035-.052.002-.068.215-.093.542-.016 1.001-.016.46 0 1.092-.013 1.549-.065-.12.057-.233.053-.557.067m26.4.165c-3.55 0-7.108.046-10.634.053-.272 0-.541-.01-.724-.02-.183-.01-.168-.023-.046-.041.124-.018.542-.037.679-.05.136-.014.22-.024.18-.05-.038-.026.018-.01-.155-.034s-.444-.048-.77-.074c-.323-.026-.934-.081-1.289-.126-.015-.002-.03-.002-.055-.008-.024-.006-.102-.013-.137-.024-.036-.01-.126-.019-.126-.04-.001-.02-.153-.045-.09-.07.31-.12.045-.26-.191-.174l-.059.022c-.434.019-.917.03-1.331.052-.07.004.001.039-.027.043l-.008.002c-.005.002.01.004-.006.002-.004 0-.001 0 .001-.001l-.172.017c-.263.023-1.475.108-1.75.125l-.133.009-.034.002-.048.001c-.116.004-.36-.005-.561.002-.201.006-.425.04-.647.061-.642.063-1.42.117-2.134.098-.715-.018-1.603-.047-2.232-.094-1.106-.085-2.79-.06-3.52.002l-.183.015.084-.008-.04.004c.057-.007.012-.003.001 0h-.002l-.057.005-.028.003c-.019 0-.026.001-.07.004-.29.018-1.039-.021-1.375-.053-1.349-.126-2.266-.1-3.64-.012-1.375.088-2.822.157-4.075.312-.025.003.032.011.061.012.558.002 1.564-.01 2.026-.005.461.005.57.034.831.052h.018c-.013.002-.026.004-.042.01-.077.026-.805.1-1.002.12-.196.02-.138.08.065.08 1.436 0 2.36.091 3.916.091 2.479 0 5.335-.03 7.933-.05 1.457-.013 2.79-.034 4.289-.104 1.498-.07 2.854-.07 4.493-.008 1.638.061 3.639.083 5.355.136.216.007.35-.065.63-.053.28.013 1.149.054 1.42.024 1.43-.157 2.49-.132 4.03-.126 1.965.008 4-.016 5.971-.067-.127-.007-.247-.025-.382-.029-1.39-.032-2.815-.038-4.207-.038M146.469 25.998c-.002.002.063.008.063.004 0-.005-.061-.007-.063-.004" transform="translate(211 999)"/>
                <path fill="#000" d="M145.474 25.996l-.016.008c0-.001 0-.002-.002-.002-.107.002-.382.041-.426.049-.043.008-.042.007.016.002l.44-.049.464-.051c.074-.009.033 0 .048-.007.015-.005-.054-.001-.052.001.003.003.017 0 .014.002-.004.002-.004 0-.02 0-.148-.008-.413.024-.466.047M142.527 26h.004c-.02-.002-.046-.004-.063-.002-.009.001.017.004.024.004.006 0 .03 0 .026-.002-.005-.002-.028 0-.024.002.005.002.028 0 .033-.001M94.114 25.99c-.45.06.566.093.823.089.688-.012 1.453-.043 2.063-.127-.944-.022-2.059-.073-2.886.037M544 26.014c.018-.01-.352-.025-.457-.034-.104-.009-.54-.022-.543.013-.004.035.29.035.422.037.133.002.558-.005.577-.016M177.443 26.008c.194.002.197-.014.158-.016-.04-.002-.352.013-.158.016M146.439 25.997c-.002.013.128.016.122.007-.007-.01-.12-.02-.122-.007M301.343 26.969c-.12-.005-.214.063-.102.063.61-.003.85-.036.102-.063M306.427 27.127l.418-.254c-.68.076-.93.138-.418.254M310.29 26.91c-.214.001-.282.061-.29.087-.006.026.042.083.218.09.176.009.698-.006.775-.06.078-.052-.49-.117-.703-.117" transform="translate(211 999)"/>
                <path fill="#000" d="M177.531 25.999h-.009l-.014-.001h-.017c-.011 0-.03.002-.024.003.014.003.057.002.063 0 .001-.001-.002-.001-.003-.001h.004c.006 0 .002 0 0-.001M148.758 26.077c.208-.007.352-.04.131-.1-.22-.059-.616-.037-.889-.056.066.048-.023.07.119.113.14.043.431.05.639.043M146.77 26.114c-.61-.037-.147-.178-.535-.247-.022-.004.025.01.029.013.06.043.192.331.507.234M311.347 26.95l-.168-.002c-.046 0-.176-.016-.179-.009-.004.008.135.032.194.04.059.006.33.028.345.034.014.005-.141.019-.039.028.103.01.31.03.349.02.037-.011.17-.07.149-.076-.032-.01-.429-.044-.506-.048-.077-.004-.086.014-.145.013M155 25.975c-.253.013-.63-.067-.862-.034-.265.039-.112.115.155.122.268.006.544.02.707-.088M349.137 26.995c.001.002.721.012.725.01.004 0-.726-.012-.725-.01M407.43 27.009c-.01.01.182-.015.133-.02-.05-.004-.123.01-.133.02M501 26.01c.217 0 .393.005.615.008.786.01 1.592.009 2.385 0-1.018-.062-1.967-.05-3-.009M496.456 26c-.025.003.18-.002.042 0h-.042M184.288 26.999l.424.002-.424-.002M505.015 26.062c-.291.028-.7.053-1.015.065.509.117.877.253 1.316.478.02.01-.1.024.274.07.373.047 1.125-.264 1.893-.085.05.013.073.017.078.015l.313.103c1.595.523 6.507.249 9.399-.09 2.364-.277 5.71.058 8.228-.103.843-.053 1.714.013 2.499-.216-6.876.036-13.766.057-20.644.09-.724-.458-1.318-.428-2.341-.327M414.624 26.035c-.145-.048-.504-.045-.583-.002-.08.04-.018.014-.018.014-.062.343.249.926.572.95.77.055.24-.597.043-.95-.003-.007-.008-.01-.014-.012M496.467 26h-.025.025M496.51 26h-.002.001M519.474 25.001l.034.001h.008c.012 0 .02-.002.015-.003-.017-.003-.055 0-.06 0-.004.003.009 0 .007.002h-.004" transform="translate(211 999)"/>
                <path fill="#000" d="M519.437 25.008c.058.001.275-.015.1-.016-.176-.001-.159.015-.1.016M159.756 26.145c-.55.02-1.395-.003-1.856-.075-.827-.13-1.16-.065-1.9.087.899.423 1.531.395 2.607.326.333-.02.924.164 1.295 0 .01-.005.01-.003.022 0 0 0 .032.002.188.019.365.035 1.4-.014 1.855.015.226.014.07.45.28.474.39.046.956-.096 1.366-.14.014-.002.013-.003.01-.004l.033.002c.084.003.226-.005.332.001.106.006.245-.02.35-.005 1.351.186 2.555.102 3.926.007.923-.064 1.861.288 2.637-.247.017-.01.03.003.09-.008.059-.01-.258.046.387-.03.263-.031 1.248-.205 1.622-.275-.221-.01-.474-.01-.721-.019-4.177-.136-8.334-.28-12.523-.128M160.479 26H160.478M523.554 25.964c-.397.013-.937.021-.155.066.378.022 1.154.025 1.596.031.09-.184-1.044-.11-1.44-.097M25.556 25.001c0-.003-.102-.005-.111-.003-.003.001.049.004.06.004.01 0 .05.002.05-.001M519.632 26.018c.13-.002.387-.02.367-.028-.021-.008-.417-.009-.56-.014-.143-.006-.59.003-.387.033.204.03.45.01.58.009M542 25.036l.964.031c.125-.105-.095-.119-.364-.129-.268-.01-.55-.02-.6.098M435.568 26.913c-.254 0-.387-.008-.626-.007-3.03.004-5.87.015-8.961.023-3.092.01-6.45-.003-9.596.003-.128 0-.265.012-.385.017l4.515.042.207.001H420.754h-.004.01H420.778l.087.002c4.732.048 9.747.07 14.396.086.811.003 1.287.056 1.674-.064.389-.12-1.114-.103-1.368-.103M551.528 24.997c.007-.002-.064.004-.056.005.01.002.007.001.013 0 .011 0 .037-.003.043-.005M602.487 25c.05.003.02 0 .01 0-.009-.002-.015-.001-.01 0M588.073 24.639c-.82.003-2.065-.009-2.895.111.464-.126 1.167-.151 1.42-.334.302.012.297.022.677.031.382.01 1.28.024 1.698.023.416 0 .59-.017.968-.033-.014.26-1.048.2-1.868.202m-4.718.22c-.935 0-1.918.008-2.858.03-2.254.05-4.602.097-6.825.075-1.678-.017-3.05.037-4.69.088-2.432.074-4.666.099-6.756.5-.037.008-.081-.003-.11-.008-.028-.005-.075-.036-.1-.04h-.008c0-.017.01.013.036-.014.027-.027.011.058.174-.063.141-.105-.666-.248-1.23-.239 2.33-.16 4.677-.258 7.069-.307 3.477-.071 6.959-.11 10.43-.22.237-.007.446-.05.687-.05 1.499 0 2.857.023 4.165.245.011.001.037.002.016.002m18.513-.075c-.198-.018-.884-.054-1.306-.04-.42.014-1.083.04-1.2-.132-.566-.082-.963-.111-1.622-.095-1.135.027-3.289.043-4.152.044h-.115c-.153-.012-.042-.007-.086-.027-.397-.185-.745-.148.626-.157.652-.005 2.296-.068 3.065-.156-2.4-.044-4.834-.004-7.257.052-.013 0 .015.005-.021-.006-.036-.012.109.04-.09-.03-.198-.07-.745-.3-1.282-.219-.017.003-.008-.005-.022-.004-1.123.14-2.364.1-3.488.06-1.12-.04-1.762-.144-2.763.04.005-.001.01-.003.01-.006-.004-.008-.098.008-.062.013.016.002.027 0 .038-.002-.007.007.062.027-.344.066-.44.042-2.122.093-2.87.178-.011.001-.741.012-.806.007-1.117-.103-1.614-.045-2.63.074h.004l-.034.002c-.098.008.244-.022-.2.01-.444.034-1.87.116-2.407.036-.921-.136-1.528-.125-2.482-.11-.954.014-1.793.022-2.772.05-.98.027.672.135-.904.105-1.576-.031-3.279-.049-4.882.043-.011 0 .124.024-.011.001-.135-.022-1.154-.108-1.343-.08-1.12.17-2.86.162-3.815.171-.955.009-.904-.004-1.34.14-.042.014.03.004.016.006-.756.142-1.485.141-2.341.16-.251.007-.61.011-.82.046-1.039.17-.15.238.804.243.954.006 2.995-.168 3.457.22-1.086-.052-2.13-.046-3.223.015-.413.023-.803.084-1.225.09-1.655.025-3.31.07-4.973.085 1.355.123 2.548.188 4.036.179.19-.002.874-.168 1.072-.18.043-.003.054-.006.057-.007l.112.008c.314.017.734.066 1.043.15.71.193 1.55.206 2.471.132.025-.002-.03 0 .01 0h.012.001c.001-.001.014-.001.08.001.202.009 1.039.053 1.243-.021.061-.023.014.005.037-.003.024-.008-.034.005.076.005.112 0 .34.042.513-.004.173-.047-.021-.045.49-.12 1.238-.18 3.625-.245 5.095-.04.051.006.05-.015.072-.014h.008c.017 0-.003-.002.021 0 .022 0 .049-.006.1-.005.814.002 1.675-.115 2.44-.145.908-.035 2.013.038 2.85-.006.839-.043 1.515-.229 2.124-.29.61-.06.489.022 1.001.03.54.26 2.109.182 2.85.16.74-.02 1.631-.022 1.32-.227l-.02-.002c.038 0 .087-.002.18-.007.424-.02-.888.033.86-.038 1.747-.07 6.059-.199 8.288-.176.638.006.942.057 1.394.12.115.016-.058-.007.03.009-.048-.008-.15-.024.094.032.349.08 1.595.073 2.147-.01.012-.002-.041.002.1.01.142.006.534.04.827.05.292.01.954-.046 1.195-.082.243-.035.503-.057.603-.08l.024-.006h.022l.085.004c.207.009-.557-.022.457.021 1.014.044 3.667.05 4.923-.114.834-.11 1.882-.087 2.67-.112.788-.024 1.312-.016 1.96-.103.014-.002.092.008-.105-.012M555.5 26L555.5 26 555.5 26zM550 25.071c-.214-.04-.176-.075-.483-.106-.308-.032-.79-.047-1.21-.028-.419.019-.414.062.045.1.461.04 1.124.03 1.648.034M569 26.055l3-.105c-1.073-.014-2.013-.005-3 .105" transform="translate(211 999)"/>
                <path fill="#000" d="M555.477 26h.011c.014 0 .071.002 0 0h.002H555.477M578.673 25.038c.163.007.451-.025.269-.055-.183-.03-.47-.017-.65-.021-.177-.004-.412.017-.22.047.192.03.437.022.6.029M568.387 26.398c-2.478.068-4.804.084-7.224.24-.427.028-.937.021-1.38.026-2.987.032-6.107.102-9.035.147-1.166.018-1.776.021-2.748.182 1.17.005 2.168.032 3.315-.068.535-.047 1.282-.064 1.878-.062 2.259.008 5.545-.097 7.439-.136.643-.014.672-.012.726-.012l-.033.001c-.04.005.13-.001.13-.001h-.016l.067-.002c1.204-.003 2.53-.03 3.793-.055 4.288-.083 8.257-.197 12.628-.292 4.371-.096 9.189-.203 13.627-.274.585-.009.936-.04 1.446-.092-1.737.012-3.64.006-5.338.027-6.472.082-12.872.196-19.275.371M557.44 26.011c.013.005.153-.022.116-.023-.037 0-.13.019-.116.023M551.178 25.029c.131-.012.571-.047.633-.054.062-.007.047-.004-.01-.004-.056 0-.509.025-.489.037.02.014-.002 0 .003.004.005.003 0 0-.002 0-.003 0-.024 0-.022-.001l.021.001-.037.003c-.004.002.041-.002.03-.001l-.154.014c-.01.002.013.002.027 0M550.45 25.005l.13-.012c.001 0-.028-.002-.044 0-.027.002-.09.012-.114.015l.028-.003M550.505 25h-.01.009c.003 0 0 0 0 0M525.604 25.66c-.678.067-1.835.248-2.604.334.63-.001 1.27-.012 1.917-.008 4.147.027 8.26.044 12.4-.242.545-.038 1.42-.04 1.88.013.826.093 1.1.053 1.803-.146-.987-.323-1.679-.33-2.781-.233-.34.03-.942-.16-1.294.044-.012.008.004.001-.05.001-.055 0 .184.007-.163.003s-1.431.079-1.822.034c-.392-.046-.326-.404-.672-.452-.345-.048-.872.125-1.232.178-.037.006.047.003-.039.004s-.224.012-.33.01c-.104-.003-.24.027-.344.016-1.315-.141-2.487-.044-3.796.102-.824.093-1.63-.16-2.302.231l-.485-.331c.085.092.032.277.027.431-.036.004-.066.007-.113.01M523 25.99c-.666.001-1.334.002-2 .005.675.024 1.327.016 2-.005M562.492 24.999c-.032.011.036.005.023-.003-.003-.002-.016 0-.023.003" transform="translate(211 999)"/>
                <path fill="#000" d="M550.408 25.01c.019 0 .194-.018.193-.02l-.17.007c-.028.002-.042.012-.023.012" transform="translate(211 999)"/>
                <path fill="#000" d="M550.74 24.979h-.033c-.018 0-.09.008-.107.01-.017 0 .092-.01.057-.007l-.12.011c-.1.01.12-.01-.167.017-.286.028.03 0 .37-.031M552.362 24.997c-.002.005.302.02.275.005-.026-.016-.273-.01-.275-.005" transform="translate(211 999)"/>
                <path fill="#000" d="M552.469 25c-.01 0-.002.001 0 .001.02 0 .05.002.065 0l-.033-.003c-.004 0-.017.003-.021.002-.005-.001.016-.003.018-.002 0 .002-.022.001-.03.002M599.92 23.997c.402-.073-.823-.088-1.075-.082-.679.016-1.34.046-1.845.147.948.015 2.18.07 2.92-.065M519.478 24.965L519.283 24.996 519.717 25.035zM496.53 25.999c-.24.008-.1.004.005 0l.063-.002-.069.002M119.502 26h-.004.004" transform="translate(211 999)"/>
                <g transform="translate(211 999) translate(0 1)">
                    <mask id="tr7frtxive" fill="#fff">
                        <use xlink:href="#kymakvk11d"/>
                    </mask>
                    <path fill="#000" d="M652.196 9.43l-3.088.005-21.562-.052 1.056-.026c.322-.008.946-.018.536-.038-.727-.002-1.165.024-1.945.017-1.948-.015-2.095-.013-1.905.022.066.006.25.013.13.02l-1.304-.003c-1.02-.015-1.615-.04-2.003-.069.15-.032 1.005-.03 1.876-.03 1.052.002 2.058 0 2.516-.033.153-.011.391-.023-.04-.032-.453-.008-.813 0-1.008.012-.574.032-1.29.02-2.03.006l1.129-.022c.048-.003.056-.006.027-.01.267-.018 1.033-.034.427-.056 2.316-.005 4.627-.029 6.947-.074.422.02.844.033 1.263.056.198.011.488-.025.69-.054.213-.03.423-.057.632-.081.681-.002 1.361-.006 2.041-.01l.816.003c.244.041.484.092.716.165 1.425-.184 2.922-.3 4.624-.23.253.01.568-.007.762.02 2.067.285 4.034.31 6.34.06.935-.102 3.112-.097 2.357.434zm-43.881 7.91l-.034-.002h.08l-.046.001zm5.764 2.055c-.342.004-.718.004-1.1.005l1.245-.018c-.03.006-.035.011-.145.013zm-27.567 2.667c-.133.048-.113.092-.005.134-1.463.001-2.924.004-4.39.004-1.594-.157-3.32-.16-5.04-.175-.467.03-.776.101-1.07.176h-.014c.112-.09.528-.126.8-.186.48-.007.958-.019 1.43-.037 1.445-.064 2.806-.026 4.22-.052.204-.003.408-.008.613-.013.285-.01.57-.016.853-.019h.02c.324.025.749.027 1.183.027l.513-.001c.256-.001.515-.003.775-.007.076 0 .151-.002.225-.004.112.048.03.1-.113.153zm-72.998 2.609c.014.005.005.002-.008 0h-.01c-.002 0 0 0 0 0h-.048c-.112-.002-.448-.004-.581-.002-.058 0 .028.002-.1-.004-.127-.006-.67-.032-.787-.035l-.064-.002h-.007-.001.006c.006-.001-.01-.005.009-.005.543 0 1.219-.002 1.717.003.073.001-.145.038-.126.045zm-9.405.042l-.246.001c-.925.006-2.38.051-3.472.049-.231 0-.623-.017-.876-.018 1.636-.022 3.13-.045 4.807-.066 2.185-.028 4.536-.045 6.758-.054.045 0 .071.01.11.011l-7.081.077zm-10 .041c-.052 0 .107-.008.162-.008.056-.001.612 0 .594.002l-.755.006zM364.92 25.957c-.093-.015.36-.04.512-.043.15-.002.696.017.88.034-.375.011-1.13.05-1.392.009zm-13.708.329c-.764.005-1.525.007-2.287.01-.149-.02-.364-.041-.287-.043.162-.005 3.065.081 2.558-.018l.997.025c-.222.014-.536.023-.98.026zm-5.93.027c.766-.018 1.535-.034 2.297-.054.341-.009.672.016.993.04l-3.29.014zm-16.613-.106c-.03 0-.006-.001.002-.01.009-.009.301-.081.337-.069.037.013-.19.082-.34.079zm-1.809.143c-.022.004-.009.003.003-.002.011-.004.152-.004.147-.002-.004.002-.13 0-.15.004zm-60.305-.214c-.63-.007-1.265-.011-1.902-.015.35-.047.728-.08 1.097-.119.967.073 1.78.06 2.757.003.47.086 1.057.094 1.608.145-1.188.003-2.374-.006-3.56-.014zm-47.494-.07c-.618-.002-1.403.004-2.001-.002-.038 0-.095-.011.081-.03.178-.019 1.021-.004 1.311 0 .29.004.671.023.867.026.057 0-.178.006-.258.006zm-3.841.003c-3.625.002-7.243.012-10.829.157-.415.017-.855.014-1.237.01-.383-.003-.485-.01-.897-.01-.411 0-1.252-.011-1.65-.024-.398-.013-.55-.02-.878-.02-.328.002-.418.01-.774.03-.355.021-.711.068-1.18.06-1.098-.017-1.942-.128-3.135-.151-1.834-.036-3.93-.01-5.838-.004 1.898-.06 3.36-.1 5.393-.11 2.033-.01 4.594-.03 6.734-.067.185-.004.385.005.576.019.19.013.379.02.598.027.56.015 1.118.046 1.699.05.1 0 .231-.002.346.002.115.003.192.028.319.03.126 0 .275-.029.424-.029 1.375.002 2.758.008 4.138.011 1.38.004 2.775-.014 4.153-.017.74-.001 1.492.018 2.219.013.085 0 .375.02.335.022-.04.002-.338.001-.516.001zm-87.385-.576c-3.656.017-7.318.012-10.975.061-.273.004-.525.032-.802.033-.72 0-1.441-.018-2.173-.038 1.662-.01 2.908-.013 4.665-.031 1.756-.018 3.894-.102 5.784-.126.59-.008 1.29-.014 1.944-.02 2.913-.026 5.905-.042 8.833-.058.231 0 .434.015.661.019-2.632.085-5.27.148-7.937.16zM39.917 2.233h-.123.123zm1.271-.202h-.249.25zm4.559.183h-.067c-.15-.005.1-.004.067 0zM266.619.546c.047-.003.32 0 .387 0 .066 0 .036-.002.02.001-.015.002.012 0-.039.002-.05.003-.364.022-.402.02-.037-.001-.013-.021.034-.023zm31.15.12c.03-.002.5.005.495.007-.003 0-.487.018-.516.018-.028 0-.01-.022.02-.024zm67.309.22h.007c.003.001-.003.001-.005.001-.018.002-.045.007-.063.007-.017 0-.08-.006-.073-.007h.134zm4.74-.02l.046.002h-.003c-.026 0-.075.003-.094 0-.012-.002.044-.003.052-.002zM442.776.48c-.864-.048-1.691-.046-2.576-.03.897-.025 1.706-.029 2.576.03zM510.4.786c.241-.004.467-.04.71-.039 1.53.005 2.927.022 4.261.196.011.002.03.003.019.003-.49-.004-1 0-1.496 0L502.363.92c2.682-.036 5.355-.088 8.036-.134zm8.363-.176c.31.01.304.017.695.025.39.007 1.312.02 1.74.02.426 0 .6-.011.987-.023-.058.2-1.085.151-1.927.152-.841 0-2.126-.01-2.987.081.484-.096 1.214-.115 1.492-.255zm92.31 1.229c-1.516.002-3.013 0-4.482-.014 1.417.004 2.928.011 4.483.014zm7.663 2.072c.884.031 1.766.07 2.642.117.199.011.488-.025.691-.054.166-.023.33-.045.494-.065h.674c.626-.043 1.136-.078 1.556-.111.516.028 1.011.106 1.48.254 1.426-.185 2.923-.301 4.625-.232.253.01.567-.006.761.02 2.068.286 4.034.31 6.34.06.936-.101 3.112-.096 2.357.435l-3.087.005-23.514-.057c-.137-.057-.36-.11-.66-.16-.004-.004.001-.008-.005-.013-.122-.112-.501-.167-.97-.197l6.616-.002zm-2.836-2.091c1.052-.012 2.11-.002 3.168.01-1.53-.007-3.05-.005-4.56 0 .463-.003.926-.005 1.392-.01zm-422.92 24.016l.103-.053c1.259 0 2.6-.04 3.81-.019 1.209.02 2.29.055 3.446.059.041 0-.018.018-.056.02-2.395.04-4.794.064-7.226.067h-.415c.157-.02.278-.044.337-.074zM287.41.98h-.004c-.02.003-.044.008-.063.008-.019 0-.08-.007-.073-.008h.14zm-94.696 24.58c1.534-.015 3.076-.03 4.609-.034l2.18-.006c-.066.026-.086.047.04.064-2.276-.007-4.553-.015-6.829-.024zm7.38.024l.196.002h-.238l.02-.002h.022zM60.088 4.202c.084.001.16.003.203.005h-.123l-.08-.005zm96.127-3.189c.574-.028 1.238-.03 1.854 0h-1.854zm-40.971.511l-.14.001-.014-.001h.154zm-.377-.36l.006.001h-.103l.097-.002zm5.191.27l-.03.001h-.067.097zm19.004-.12h-.176H139.062zm6.121-.009l-.096.001-.013-.001h.11zm491.69 7.609c-.523.002-1.04.002-1.547 0 .53-.038 1.049-.043 1.547 0zm-46.72 14.04l.162-.001c-.063.001-.159.005-.425.006-.267 0-1.084-.002-1.445-.006l1.707.001zm19.265-.645c.771 0 1.543.001 2.316.004-1.112-.002-2.223-.002-3.335-.002l1.019-.002zm-59.946.954c.02-.002.156-.005.147-.003-.008.002-.245.026-.254.027-.011 0 .088-.021.107-.024zm4.707.343c-.633.073-1.095.185-1.69.272-.135.02-.111.05-.03.064l.04.006h-.003.005c.001 0 .009.004-.002.003-.255-.035-.174-.062.049-.096-.99-.237.853-.23 1.63-.25zm8.87.062c.283-.018 1.027-.067 1.276-.077.249-.01.397-.034.493-.028.096.006.16.051.16.07 0 .103-.549.023-.95.026-.403.003-.998.014-1.362.083-.017-.058.097-.057.382-.074zm-77.727 1.998l.242-.003c1.017-.014 2.114-.023 3.104-.03-.809.011-2.694.029-3.25.033-.434.004-.096 0-.096 0zm-99.482.834l-.128.001c.03 0 .391-.003.128 0zm-199.304-.369c-.036 0-.093-.016-.07-.018.023-.001.34.015.343.018.002.003-.24.001-.273 0zm-5.308.327c.804.063 1.575.064 2.42.054-.863.018-1.615.023-2.42-.054zm-73.08-.806c-.222.012-.27-.02-.622-.025-.35-.005-1.28-.031-1.678-.034-.398-.003-.707.01-1 .014-.073 0-.002-.045.071-.045 1.226-.002 2.535.001 3.795.002-.256.009-.344.076-.566.088zm-76.096-3.757c-1.951-.236-3.824-.243-5.986-.002-.931.103-3.107.103-2.38-.43h.001l3.086-.011h5.158c.644.143 1.338.276 1.92.43-.594.006-1.197.01-1.799.013zm-5.41.448c.322-.025.644-.039.982-.047-.338.008-.66.022-.982.047zm2.354-18.477l.349-.001.04.004c-.132 0-.248-.002-.389-.003zm-1.895-1.083l.116-.003h.023l-.139.003zM674.772 10c1.7-.64 1.606-.66-1.394-.694-3.158-.034-6.306.149-9.454.002l-9.244-.022.001-.14 7.713-.229c-.445-.144-.804-.201-1.155-.199-6.329.042-12.657-.014-18.99.012-2.66.011-5.318.012-7.978.009.716-.057 1.52-.076 2.376-.096-1.085-.466-3.136-.702-5.485-.842.048 0 .097 0 .146-.002-.094-.005-.24-.009-.4-.012-.256-.014-.514-.028-.773-.04h.009c.294-.015 1.086-.01 1.502-.002 1.938.035 1.27-.021 1.566-.036.233-.012-.393-.03-.232-.047 1.183-.046.805-.063-1.502-.07v-.02l.75-.01-.103-.002h.032l.071.002c.63-.002 1.33.008 1.88-.008.888-.028-.04-.037-.698-.045-.847-.012-1.748-.02-2.625-.03-.011-.01-.025-.022.453-.021 1.18.002 2.325-.014 3.51-.004.678.03 1.966.007 2.79.023.748.015 1.456.026 2.07-.004.574-.028.337-.087-.48-.097-1.547-.017-3.046-.039-4.716-.047-2.852-.015-5.11-.07-7.844-.093-.017-.052-.035-.105-.062-.156l.085-.001c.54-.007.914-.017.46-.035.159-.009.484-.01.793-.011.994.012 1.304.036 1.576.062.132.013.484.03.98.02.685-.015 2.005-.005 2.128-.037.07-.019-.603-.028-1.219-.03-1.06-.004-1.919-.018-2.682-.037 0-.003-.024-.005-.072-.008.16-.008.435-.008.711-.008 1.558-.003 3.054.007 4.503.025l.204-.01-1.032-.037c-.083-.01-.251-.017.284-.022.538-.006.72-.017.07-.027h-1.452c-1.77.005-3.384-.015-5.068-.023l-.368-.007c3.769-.012 7.537.045 11.306.031 1.896-.007 3.92.07 5.482-.268 4.34-.344 8.818-.582 13.325-.797h.001c1.193.036 1.925-.094 2.428-.308l3.052-.353c.701-.04.862-.16.931-.293 1.699-.642 1.605-.662-1.395-.695-3.157-.035-6.305.149-9.454.002l-9.244-.021.002-.141 7.713-.229c-.446-.144-.804-.201-1.155-.199-6.33.042-12.659-.013-18.992.012-1.44.006-2.88.006-4.321.007.572-.129.539-.328.452-.774-.032-.164-.15-.326-.226-.489-.076-.064-.26-.108-.549-.131.969-.426-.909-.335-1.917-.358-.633-.014-1.267-.025-1.9-.034 1.43.003 2.855-.021 4.266-.12 1.02-.258.523-.443-.618-.598-6.195-.03-12.373.001-18.57.06-7.347.069-14.707.122-22.061.15-.113-.008-.225-.015-.334-.02-.18-.005-.403-.012-.572-.013-.17-.001-.397-.001-.521-.004-.124-.002-.153-.017-.23-.019-2.58-.037-5.046-.06-7.658-.08-.444-.004-.813-.005-1.38-.008-5.284-.032-9.707-.052-15.283-.09-8.194-.057-17.436-.097-25.835-.122.092-.007.588-.032.604-.05.003-.004.009-.005.016-.006-.017 0-.046-.002-.102-.007-.197-.02-.826-.043-1.23-.035-.403.007-1.042.024-1.102-.107-.625-.06-.79-.096-1.548-.073-1.304.04-2.77.082-4.132.018-.012 0 .003.006-.012 0-.04-.012-.031-.006-.11-.03-.513-.145-.616-.117.74-.11.645.003 2.356-.05 3.136-.113-2.435-.056-4.87-.055-7.32.026l-.043-.003c-.085-.007.076.004-.183-.017-.258-.02-.905-.132-1.179-.174-.04-.006-.06-.01-.073-.013-.023.004-.099.007-.318.003-.625-.008-2.383.042-3.316.033-.926-.01-1.877-.123-2.75.035.003 0 .006-.002.008-.004.004-.007-.096.005-.055.01h.027c-.003.005.064.015-.346.047-.451.035-2.206.07-2.983.134-.012 0-.76.008-.827.003-1.146-.082-1.66-.037-2.713.053h.004l-.036.002c-.098.006.254-.017-.2.007-.454.025-1.913.086-2.452.024-.93-.107-1.62-.098-2.565-.088-.944.01-2.01.017-2.873.034-1.213.024.773.106-.975.08-1.748-.025-3.46-.04-5.208.029-.016 0 .136.018-.01 0-.145-.017-1.202-.084-1.404-.061-1.191.129-3.03.121-4.035.128-1.005.006-.923-.01-1.439.108-.009.001.007.002.017.002.014 0 .182 0-.398.04-.671.048-2.068-.029-3.232-.034-11.879-.051-24.037-.035-36.003-.05-1.347-.001-2.705-.005-4.045-.007.155-.016.308-.063.158-.094-.149-.03-.474-.056-.68-.057-.205-.002-1.32.01-.826-.06.495-.072 1.257-.049 1.706-.115l.019-.003h.111c.396-.006 1.671.055 2.203-.024.532-.079.56-.138-.162-.2-1.14-.1-2.36-.14-3.726-.156-.794-.01-2.137-.077-2.558.156-.104.058-.787.034-1.087.026-1.788-.044-3.164-.064-4.803.146-1.197.153-2.67.185-4.047.207-1.378.022-2.677.025-4.029.038-2.668.025-5.317.049-7.979.095-11.01-.02-22.065-.043-33.057-.054-1.269-.002-2.601-.002-3.762.02-1.158.021-2.107.015-3.167.012-4.337-.01-8.6-.033-12.922-.026h-.038c-2.212-.008-4.424-.013-6.637-.017-.134-.013-.267-.026-.405-.036-.354-.025-.449-.008-.275.035-2.093-.004-4.186-.007-6.277-.014-21.667-.07-43.35-.152-65.007-.242-7.086-.03-14.137-.036-21.202-.095-1.881-.015-3.423-.17-5.287.006-.047.005-.072.013-.256.024-.768.045-1.576-.034-2.447-.037-17.56-.065-35.189-.1-52.78-.142-1.357-.003-2.686.002-4.074-.01-.257-.002-.36-.004-.775 0-.415.002-1.145.002-1.716-.001-2.83-.015-5.736-.061-8.597-.048-4.595.02-9.211.026-13.803.009-1.412-.006-2.7.033-4.107.05l-.276.002c-.614-.082-1.312-.13-2.08-.149-.176.063-.261.115-.285.16-.904 0-1.803 0-2.7.007-.339-.056-.791-.117-1.4-.199-.282.049-.164.132.004.22-1.06.021-2.117.06-3.175.134-.013.001.026 0-.036-.004-.063-.003.187.009-.153-.016-.34-.025-1.268-.005-1.594.087-.002 0 0 0 0 0-.007 0-.034-.001-.132.003-.212.009-.751.033-1.04.033-10.075-.008-20.131-.021-30.206-.033-1.346-.001-2.665-.007-4.041-.015-.262-.001-.357-.005-.77-.001-.415.004-1.14.004-1.706 0-2.803-.015-5.727-.068-8.552-.054-4.535.024-9.273.041-13.727.013-1.37-.01-2.979.063-4.075.06-2.611-.008-8.002.06-9.418.175-1.387.113-.272.022-.322.027l-.15.012c.025-.002.065-.006.006-.004l-.013.001h-.164c-.34.004-1.183.017-1.546.076-.01.002.005 0-.01 0-.013.002.002.002-.018.003-.013 0 .025-.003 0-.001l-.161.009c-.545.03-1.515.06-1.992.078-.479.019-.373.074-.763.077h-.004c.001 0 .003 0 .002-.001h-.002l-.002.001c-.003 0-.007.001-.003.002.001-.001.004-.004.003-.002 0 .002-.002.003-.003.003.001 0 .006 0 .002.003-.01.005-.008 0-.004-.003-.005-.001-.011-.004-.01.02.001.034-.09-.048-.088.067.001.014-.001.027-.002.04-4.18.037-8.316.079-12.355.128-3.854.046-7.826.088-11.347.154-3.463.03-6.546.079-9.347.144-.997.023-1.94.042-2.223.079l-.835.026c-3.649-.018-6.588.008-8.452.102h-.001c-.463.01-.813.022-1.13.035-1.69-.02-3.376-.05-5.066-.085-1.21.117-2.443.162-3.364.382.265.004.766.018 1.354.031-1.57.044-2.003.105-1.05.167.134.009.131.019.192.028-.704.002-1.318.016-2.06.011v.03c.512 0 .674.014 1.008.021.152.013.377.025.442.038.174.034 1.246.065.916.099-.321.032-.172.058.49.084-.281.016-1.04.032-.028.05 2.414.055 2.495.076.44.117-1.281.03-.875.061-.071.092.15.032-.092.068 1.145.089l.35.01c-.03.004-.003.012-.1.013-2.437.036-3.003.077-2.084.157h.003c.264.03 1.16.046 1.755.07.124.017 1.08.034-.147.052-1.585.024-1.716.068-.5.116h.01c.105.002.164.004.207.007l-.208-.007c.46.026-.738.03-.884.046.225.012.583.012.947.013.416 0 .861-.003 1.24 0 .916.008.712.023-.661.049l-1.266.001c-.658 0-1.483-.005-1.71.017-.212.02.63.026 1.1.034 1.07.018.994.037.138.058-2.212.047-2.217.055-.113.093.174.003.237.01.352.016-.48.043-1.358.085-.6.132.113.002.155.005.176.008l-.176-.008c-.17.019.158.033.47.05.628.033 1.348.068.561.108-.477.002-.857.008-1.023.021-.61.033-1.258.066.118.097 1.348.029 1.139.056-.065.083-.31.001-.872-.006-.833.007.047.016.605.023 1.196.022 2.236.037 2.397.048 1.358.09-.357 0-.775-.002-1.058.002-.674.01-1.955-.012-2 .012-.045.024 1.31.018 2.027.026.092.008.553.02.096.025-1.228.013-.629.026-.076.04l1.059.025c.009.046 1.202.06 2.55.07h-.018c.72.015.595.042 1.11.06.257.016.474.032.34.05-.634.021-.01.035.536.042 1.836.022 1.564.058.983.098-.244.013-.964.001-1.183.016-.73.025-.697.05.023.073.425.03-.005.068 1.06.093l.681.019c-.006.003.033.008-.024.01-2.561.04-3.175.09-2.07.168l.283.01c.219.017.678.028 1.13.04-.11.02 1.452.035.242.059-1.691.033-1.866.07-.618.121h.001-.001l.063.004-.45.026c-.237.005-.475.01-.494.02h.13l-1.092.059c-.23.002-.417.006-.514.015-.052.004-.046.008-.003.012-.696.036-1.391.073-2.088.108-1.195-.033-1.921.099-2.413.314l-3.034.36c-.7.041-.854.161-.916.294V6.5c-1.667.646-1.572.665 1.43.691 3.159.028 6.296-.163 9.453-.024h6.6c-.14.03-.264.066-.38.104-.187-.003-.406-.003-.655.003l-.072.143-.135.016-3.809.122c.195.061.371.104.538.136-.235.014-.475.027-.755.027l.031-.063c.012 0 .021-.001.03-.003.251-.022.114-.028-.114-.031-.672.03-1.259.023-1.884.01-1.187-.024-2.417-.006-3.625.073-1.936.05-3.856.106-5.473.234-.022.04.164.043.335.045.381.004.985-.012.854.048-.08.038-.548.052-.924.063l-4.571.144c-1.125.02-1.155.025-.826.114-.827.103-.843.13-.132.218.594.074.522.107-.424.152-.46.021-.968.03-1.454.044-.7.014-1.486-.008-2.333.1l3.008-.046-.105-.008c.047.001.086.004.105.008.933-.016 1.64.036 2.542.029l4.611-.067c.189-.003.234.001.126.016-.24.04-.797.006-1.037.054.431.02 1.03-.025 1.525.02-1.541.01-2.82.082-4.547.117 3.055.024 5.783-.12 8.776-.135-.86.04-1.539.052-1.784.12-3.007.082-6.019.161-9.022.247-.877.026-1.723.075-2.43.158 5.1-.08 10.184-.158 15.257-.22-.289.008-.572.02-.905.041-.017.001-.073-.005.101.012.101.01.367.024.648.034-3.907.082-7.823.143-11.71.27l4.884-.075c.792.043 1.754-.008 2.627-.01.394 0 .961-.034 1.145.006.289.064.878.029 1.374.025.72-.007 1.472-.032 2.156-.017.532.012 1.06.002 1.588-.016.263.027.495.034 1 .021h.019c.128.004.28.005.445.006-.385.035-.823.032-1.249.04l-11.209.225c1.845.048 3.647.04 5.48.011 2.037-.033 4.045-.047 6.055-.058.367.023.784.028 1.22.026.573.012 1.147.022 1.723.027-.062.061-.138.122-.234.18l-2.394.015c.097-.014.207-.026.3-.041-.956-.022-1.988-.068-2.848.038-.467.058.622.095.763.09.14-.004.238.007.368.003-1.195.067-2.316.03-3.54.01-.971.14-2.399.032-3.387.033-2.42.002-4.548.066-6.889.118 1.537.034 3.04.021 4.586.026-.316.06-.401.119-.929.123-.527.005-1.245-.015-1.716.088 1.229-.006 2.46.014 3.684.05-1.883.08-3.677.11-5.586.059-1.884.061-3.767.079-5.67.089-1.307.148-2.58.12-4.011.1-.764.093-1.525.165-2.383.209.564.009 1.129.01 1.69.027-1.013.15-2.029.207-3.243.235.201-.028.4-.055.619-.079-1.29-.001-2.171.09-3.532.122-.784.017-1.32.01.484.053 2.854.068 6.595.07 9.586.244-.324-.004-.708-.005-1.051-.007-.031 0 .153.007.05.006-.104 0-.693-.009-.814-.01-.12-.002.056-.001.015-.002-1.805-.016-3.614-.021-5.418.013.131.003.362.01.468.01.106.002-.026-.008.075-.007.102.002.259.014.396.015 1.157.01 2.303.012 3.434.076-.605-.002-1.212-.005-1.816-.01 1.326.019 2.683.036 3.992.051.042 0-.141-.005-.103-.005.387.003.882 0 1.258.005.056.001.09.014-.069.013 2.05.001 4.128.007 6.178.017l.08.003c.35.007 1.56.006 1.743.007 4.202.025 8.079.067 12.165.11-.267.098-.691.166-.92.27 1 .036 1.715.084 2.265.28-.442-.04-.734.051-.857.094l-.03.01h.001l.017.002-.026.001c-.02.007-.022.006-.028.002-.296.016-.131 0-.657.01-2.86.048-6.312.086-9.228.108-.719.005-1.425.027-1.914.036-1.898.031-3.45.05-5.278.078-.493.07-1.503.042-2.003.05-.5.006-.963.02-1.324.024-2.428.03-4.7.091-7.063.161-.996.03-1.981.032-2.95.084-.061.003-.004-.011-.346.016-.342.027-.38.045.433.06.814.016 2.04.1 2.995.125.302.009.697.016 1.047.018.986.007 2.025.013 3.023.029l.559.011.579.008.593.005c.812.004 1.597 0 2.423-.009 0 0-.001 0 0 0l.056.002c.132.006.666.027.876.033.211.005.302.008.535.012.232.004.542.007.812.01.27.002.253.001.628.005s1.006.004 1.514.011c3.27.043 6.618.063 9.915.072-.85.142-1.486.313-2.126.5-.18-.08-.667-.034-.865-.011-.198.023-.012.03-.167.03s-.164-.042-.247-.067c-.084-.025-.293-.03-.424-.027-.132.002-.298.023-.245.048.052.026.225.052.224.072 0 .02-.158-.004-.121.003 1.296.268 3.057.338 4.484.56-.045-.01-1.114.007-.807.044.307.036 1.8-.034 1.703.123-4.038-.093-7.984-.305-11.977-.47-.716.21-.282.304.35.493 1.32.017 2.372.04 3.195.282 1.888.042 3.531.074 5.043.341-2.35.147-4.593.134-7.01.092-2.69.157-5.423.252-8.024.472.16.372 1.226.535 2.625.719 3.483.016 6.845.052 10.31-.086.718.259 2.56.08 3.376.248.815.169-.815.327.182.473.542-.084 1.183-.06 1.831-.048 1.09.414.984.869 1.556 1.318-1.84-.082-3.687-.101-5.559-.124-.553.209-1.326.251-2.38.263.038.079.114.15.21.216-.935.026-1.825.093-2.595.263-4.323.355-8.788.603-13.285.829h-.001c-1.194-.034-1.92.098-2.412.314l-3.034.359c-.7.042-.855.162-.917.295-1.666.646-1.57.666 1.43.692 3.16.027 6.297-.164 9.454-.024h9.244l.006.14-7.7.247c.452.143.813.2 1.164.196 3.582-.032 7.165-.033 10.749-.035-.234.017-.46.037-.708.05.564.009 1.129.01 1.69.027-1.013.15-2.03.207-3.244.235.202-.029.4-.055.619-.079-1.289-.001-2.171.09-3.532.121-.784.018-1.32.01.483.053 2.856.07 6.597.07 9.587.245-.323-.004-.707-.005-1.05-.007-.03 0 .153.007.05.006-.104 0-.693-.009-.814-.01-.12-.002.056-.001.014-.002-1.805-.016-3.614-.021-5.418.013.13.003.361.01.468.01.106.001-.027-.009.075-.007.102.001.26.014.397.015 1.157.01 2.302.011 3.434.076-.606-.002-1.212-.005-1.817-.01 1.326.019 2.684.036 3.994.05l-.104-.003c.386.002.881-.001 1.258.004.057.001.09.015-.07.011.365.027.745-.03 1.103.011 1.706.195 2.77.435 4.823.549 2.62.145 5.845.115 8.63.206.611.02 1.297.06 1.889.092-1.834.026-3.98.043-5.737.058-.735.006-1.427.027-1.918.035-1.903.032-3.448.051-5.277.079-.494.07-1.504.042-2.004.05-.5.006-.962.02-1.323.024-2.428.03-4.7.091-7.062.162-.996.03-1.979.031-2.95.083-.06.003-.006-.01-.346.016-.34.028-.38.046.433.06.814.016 2.04.101 2.994.126.303.008.697.015 1.048.017.986.007 2.024.013 3.023.03.183.002.369.008.558.01l.578.008.594.005c.812.004 1.597 0 2.422-.009h-.001l.057.002c.132.006.665.027.876.033.212.005.302.008.534.012.232.004.542.007.813.01l.628.005c.376.003 1.002.004 1.514.01 6.134.076 12.335.071 18.497.1l1.944.008.63.003c.242 0 .635.002.9.004l2.045.01 1.214.006.637.004 2.239.012c.92.004 2.182.01 3.205.017l1.663.009c8.244.035 16.51.083 24.757.121 1.307.006 2.639.014 3.926.019l1.236.004.645.002c.282 0 .59-.003.885-.005 1.069-.006 2.133 0 3.206.003-.288.01-.111.039.012.04.123 0-.032-.036.083-.04.114-.003.221-.003.405-.003.183 0 .465-.018.702-.014 1.25.02 2.53.036 3.794.028.417-.003.831.001 1.245.006-.853.01-1.751.029-2.591.034-.243.002-.455.002-.646.007-.19.004-.14.01-.34.002-.198-.007-.403-.021-.68-.043-.276-.022-1.402-.005-1.408.042l-.002.012c-.044.006.01.004-.074.006-.085.001-.203.013-.345.014-.644.004-1.277.02-1.955.017-1.34-.006-2.747-.027-4.082.035-5.58.035-11.157.054-16.738.066-.686.105-1.55.091-1.94.27 7.325.038 14.605.087 21.959.114.177.134-.28.073-1.17.062-.493-.007-2.56.03-3.292.085 2.422.06 4.953.056 7.42.034l.032.004c.066.009-.072-.009.114.017.185.026.653.143.808.183.018.004.024.007.028.01.052-.002.154-.003.365.002.726.014 2.395-.023 3.36-.005.962.019 1.911.146 2.805-.014l-.009.005c-.014.009.097-.003.052-.008-.015-.002-.019-.001-.025 0 .023-.008.017-.02.272-.044.899-.081 2.313-.081 3.44-.107.017 0 .759-.004.81.002.871.1 2.11.015 2.714-.022l.11-.007c-.05.003-.09.006-.002 0 .072-.005-.004 0 .006 0h.002l.03-.002c.103-.006-.266.019.188-.006.454-.024 2.032-.083 2.522-.004.844.137 1.461.115 2.359.11.898-.003 2.067.005 2.823-.01 1.197-.024-.957-.125.944-.076 1.9.048 3.43.06 5.28.025l-.005-.001c.162.016 1.01.089 1.218.072 1.245-.1 3.102-.09 4.146-.089 1.045 0 .975.003 1.61-.094.05-.007-.021-.003-.004-.004.888-.085 1.705-.09 2.644-.097.282-.002.654-.004.91-.025 1.299-.102.9-.162-.352-.193-.774-.02-2.304.06-3.066-.073 6.033-.026 12.129-.052 18.173-.063.444 0 .929-.006 1.308.01.151.005-.05.088.039.106 4.369.031 8.762.064 13.14.098l-.46.022c1.307.014 2.664.012 3.96.024-.06 0-.084-.024-.152-.021 1.88.01 3.765.022 5.636.027.184-.113 1.438-.106 2.012-.104.573.002 1.597-.037 2.185-.004.487.027.803.125 1.28.157-1.776-.01-3.571-.026-5.327-.013-.219 0-.519.006-.64.006h-.04c-.799-.04-1.543-.043-2.374-.043-.836 0-1.721-.005-2.58-.005.236.002.383.096.471.11.09.015.038-.001.068.003.026.004.008 0 .016.001.067.01.061.042.102.05.386.077 1.977.106 2.165.103l.124-.002h.002c-.002 0-.005 0 0 0l.021.001c.554.068 1.71.028 2.084.007l.056-.003.044-.002c.03-.002-.004 0 .01 0 .513.023.972.065 1.419-.01.014-.002.008 0 .008 0h.007l.052.002c.11.004.459.006.571.007h.042l.05.005c.124.01.607.047.738.043.131-.003.02 0 .026.002.005.002.006-.001 0 0l-.013.004-.063.01c-.12.023-.522.107-.005.115-.487.009-.958.01-1.439.017 1.322.01 2.622.027 3.923.08-.554-.012-1.063-.024-1.604.012.566.01 1.128.018 1.686.042-.892-.004-1.798-.022-2.68-.025.248 0 .28.063-.095.076-.375.012-1.13-.01-1.592-.014-.465-.005-1.023 0-1.143.098-.045.036.344.061.517.062.173.002 1.235.018.66.065-.575.047-1.84-.012-1.971.092-.009.006-.008.007-.012.01-.057.01-.06 0-.15-.003-.6-.02-1.553-.047-2.098-.005-.546.042-1.005.106-.364.196 1.01.14 2.011.166 3.356.2.782.021 2.106.075 2.736-.13.156-.052.795-.025 1.099-.015 1.82.055 3.219.062 4.985-.1 1.29-.118 2.939-.154 4.334-.164 1.395-.01 2.645-.002 3.99-.002 3.92 0 7.58.02 11.49-.162.415-.02 1.14-.02 1.715-.018 2.185.004 4.486-.01 6.684.067.541.02 1.164-.003 1.674-.018 2.113-.06 4.558-.079 6.555-.1 1.466-.016 2.204.11 3.544.114 1.34.005 2.68-.071 4.03-.021.456.017 1.033.02 1.437.057.367.034.485.164.806.215.13-.11-.118-.162-.544-.22 1.43 0 2.86-.033 4.26-.079.23-.007.483-.021.654-.02.173 0 .148.046.277.047.13 0 .142-.054.278-.06.837-.03 1.835 0 2.696.024l-.43.007c.29.056.812.074 1.423.07 3.794-.026 7.492-.007 11.21.002.195.009.38.017.537.02.57.013.618.01.548-.019.457.001.912.003 1.37.003 1.718 0 3.407.012 5.094.024.89.013 1.8.019 2.795.019h.473c.755.004 1.516.006 2.277.006 1.538.006 3.123.016 4.629.025.878.006 1.791.006 2.704-.007 2.089.046 4.258.052 6.635-.047.78-.032 1.47-.026 1.874.032.862.125 2.112.02 3.227-.005-.266-.15-1.403-.15-2.62-.139-1.674.016-3.3.005-4.939.002 3.699-.153 7.398-.19 11.206-.193.389 0 .779-.002 1.169-.005l-.258.042c.182.004.395.02.54.011.155-.008.34-.04.35-.06.892-.01 1.782-.027 2.657-.058.482-.018 1.034-.007 1.444-.014.099-.001-.308.038-.211.039.066 0 .144-.002.225-.006-.194.027-.26.06-.073.074.788.061.159.193.69.263h1.259-.001c1.014-.012 2.058.035 3.015-.093h-.031c-.87-.15-2.968-.125-3.888-.27.251.001.53.006.67.012.203.01.258.046.362.048.104.002.056-.038.132-.036.656.02 1.554.054 2.13.097.575.043 1.28.071 1.65-.005.687-.14 1.455-.099 2.125-.048.671.05.768.042 1.31.007.543-.036.824.005 1.34 0 1.018-.007 1.773-.019 2.883-.024l.607-.001-2.59.043c.494.102 1.539.082 2.458.064 1.107-.022 2.217-.035 3.323-.047.004.051.004.102.01.153-.845.01-1.685.019-2.53.04-.086.039-.134.14.22.124.732-.035 1.51-.123 2.312-.13.01.132.022.266.031.402.406-.012.731.048 1.126.044.633-.005 1.225-.07 1.732.056.81-.034 1.66-.101 2.436-.133.23-.01.178.074.19.098.773-.015 1.61.016 2.364.016.395 0 .808-.094 1.139-.1.33-.007.865.015.493.075 2.11-.055 4.203-.152 6.317-.209.858-.191 1.807-.118 2.883-.066-.053-.004-.182-.03-.253-.054l.129-.005c-.037-.012-.066-.025-.102-.036.016-.001.027-.003.05-.003.822 0 1.71.023 2.571.013.138.006.276.013.419.018-.044.05-.207.078-.39.113.646-.012 1.294-.016 1.936-.034-.337-.015-.658-.036-.973-.063.602.013 1.229.016 1.868.014.01.007.026.014.051.016l1.063-.022c.566-.003 1.134-.007 1.69-.008 1.161.015 2.325.028 3.495.039-.203.012-.327.034-.133.068.372.065.91.014 1.247.014.278 0 .666-.025.675-.068 1.415.007 2.855.004 4.32-.01-.868.071-1.87.067-2.781.06 1.018.025 1.979.048 2.882-.06.282-.004.557-.004.84-.007 1.401.005 2.798.012 4.196.019-.085.02-.219.034-.354.048.426.015.764-.026 1.141-.046l.587.002c.232.013.454.037.653.061-.33.004-.634.003-.94.033.868-.004 1.671.009 2.495.07 2.119-.032 4.185-.046 6.32-.058.524-.003.819.005 1.458-.03.64-.036 1.768-.073 2.517-.075.747-.002 1.253.019 2.037-.024l-.08.007c-.16.012.09.002.095-.005.002-.001.006-.003.01-.003.085-.006.143-.012.291-.021 1.027 0 2.04.027 3.105-.064.191.004.387 0 .588-.01 1.624 0 3.25-.003 4.883-.012 1.01.01 3.608.007 5.052-.018.727-.013 2.443-.02 3.265.046-.642-.043-1.473.074-2.132.005-.659-.068-2.733.033-2.75.05l-.036.035h-.001c-.02.018-.003.004-.01.004-.752.004-1.476.003-2.237.018-.03.001-.047 0-.132-.003-.644-.027-1.418-.001-2.041.019-.317.01-.507-.031-.755.008-.067.01.04-.006-.09.004s-.527.003-.652.004l-.032.001-.217-.012c-.391-.017-1.481-.052-1.93.033-.013.003-.152-.02.007.007.16.029-.442-.047.22.05.662.1 2.635.063 3.626-.033.594-.058 1.53-.03 2.202-.026.03 0-.014.009.087.003.1-.005.55-.043.65-.011.003 0 .001 0 .003.002h.156c.537.004.72.01 1.787-.008 1.621-.028 4.879-.073 6.658-.058 1.206.01 2.083.033 3.073.025 2.905-.022 5.614-.066 8.46-.068.552 0 .94.028 1.458-.008.519-.037.87.082 1.41-.022.049-.01-.008-.036.436-.078 1.27-.119 3.649-.087 4.98.091.062.009.033-.008.054-.009.023 0-.002.002.01.001.29-.018.884.02 1.1-.013.243-.037.223-.027.49-.036.2-.007.254.033.455.034.418.004.931.01 1.385-.005 1.072-.033 2.26-.027 3.319-.031.614-.003 1.115-.04 1.678-.04 4.107.009 8.18.028 12.278.042.377 0 .784.007 1.152.007 4.996-.007 9.933.006 14.935.03 4.559.02 9.17-.056 13.731-.093 4.185-.034 8.347-.1 12.528-.12.008 0 .02.003.05.014.063.023.062.119-.079.14-.026.004-.03.006-.035.007-.014 0-.032 0-.08.003-.225.01.61-.019-.532.022-1.144.04-3.485.063-5.142.096-2.257.045-5.16.152-7.487.142-.144 0-.375-.04-.375-.04s-.671-.064-.783-.044c-.008.002-.022-.002-.04-.002l.023.001c.008 0-.003.002-.009.001-.183-.032-.741-.036-.778-.003l-.007.007c-.04-.001-.175-.005-.561-.012-1.444-.027-3.692-.028-5.646.014-1.505.033-3.97-.012-5.649-.033-.549-.007-1.025.044-1.582.045-1.012.001-1.948-.1-2.875.038-.02.003.061-.01-.052.007-.112.015-.423-.01-.553-.013-.471-.012-1.037.047-1.437.018l-.037-.003.016.002c-.006.002-.01.001-.013 0l.008.008c.021.025.044.013.136.063.092.048.691.101.896.084.166-.013.032-.001.04-.001.043-.001.02-.004.04-.001.192.027.639.015.784.005l.105-.006c5.15.04 10.306-.007 15.461-.039.01 0-.024-.002.007.002s-.07-.006.038.006c.108.012.375-.018.52-.002.144.016.028.024.24.046.912.097 2.104.008 3.127-.029 1.597-.058 3.192-.075 4.873-.06 5.5.048 10.611.297 15.873-.192.037-.003.074.003.136.004.509.012-.965-.022.691.02 2.627.067 6.745-.074 9.565-.17 2.143-.072 4.005-.015 6.064-.116-2.214-.092-4.058-.232-6.089.057-.002 0 0 0 0 0h-.054c.08 0 .08-.002-.64-.002-1.75 0-5.503.046-7.412.074-1.297.02-.968.007-1.64-.148-.016-.004.077.004.015-.003-.06-.007.12.01-.056-.01-.176-.022-.769-.019-.892-.079 1.829-.027 3.65-.029 5.45-.12h.016c.06-.003-.029.003.108-.003 1.966-.077 4.256-.094 6.207-.115.377-.004.165-.002.438-.006l.074-.001c.069-.002-.012.002.076-.001l.067-.002h.001l.16-.008c.654-.03 3.267-.205 4.27-.26-.624-.016-1.585.017-2.208.028-.623.01-1.089-.014-1.634-.014-2.114 0-4.172.019-6.271.04.61-.015 1.212-.04 1.808-.07.158-.007.265-.049.428-.05 4.483-.034 9.2-.057 13.63-.1 4.432-.043 8.573-.049 12.958-.063 2.357-.009 4.742-.005 7.108.022.702.008 1.378-.023 2.103-.011.054 0 .087.002.227.005 1.115.022 2.354.02 3.488-.003h.045c.182.005.342-.018.529-.002s.822.034.827-.001v-.011c.25-.105.603-.178 1.023-.229-3 .02-5.997.038-9.015.038-7.887 0-15.793-.009-23.69.03-3.904.02-7.802-.015-11.688.087-.087.002-.158-.005-.24-.006-2.798-.045-5.344-.056-8.188.016-1.844.046-4.101.039-5.962.035-.549 0-.299-.004-.423-.079 1.196-.001 2.354.019 3.536-.002 4.164-.07 8.283-.137 12.467-.189 5.172-.063 10.405-.083 15.594-.108 2.516-.012 5.055.004 7.549-.036.22-.003.499-.01.621-.012h.047.003c.852.03 1.51.03 2.42.024.912-.007 2.06-.014 3.017-.019-.448-.019-.885-.053-1.258-.107-.044-.006-.026.003-.046 0-.016-.003-.008.002-.016 0-.071-.018-.163-.029-.213-.048-.43-.16-2.236-.135-2.347-.11l-.106.023h-.002l-.01.002H517c-.015-.002-.01 0-.004 0l-.074-.008c-.27-.028-1.722-.012-1.958.016-.299.036.031-.004-.082.008l-.01.001c.003 0 .003-.002-.008-.002-.037-.002-.064-.002-.108-.013s-.35-.01-.338-.031c.012-.021.248-.07.485-.064 1.467.037 3.268.025 4.684-.004 1.417-.028 2.22-.018 3.475.092.392-.029.673-.09.992-.146 2.913-.055 5.817-.03 8.734-.051 1.769-.013 3.543-.14 5.319-.166-.218.043-.505.062-.77.092 2.43-.048 4.84-.071 7.28-.046.39-.103.925-.147 1.44-.215-1.788.006-3.517-.013-5.27-.092.888 0 1.77.01 2.656-.01-2.947-.011-5.847.05-8.773.12-.018-.033.024-.06.126-.082-1.291-.02-2.484.08-3.763.088-3.309.023-6.648.02-9.96.087 2.828-.095 5.651-.194 8.466-.305 6.144-.034 12.243-.135 18.362-.266-.018.014.066.005-.02.024-.086.02-.445.044-.556.061-.11.017-.144.033-.048.054.096.02.017.01.236.032.217.02.55.044.941.067.39.024 1.134.074 1.58.116.018.001.026 0 .065.006.04.006.135.014.204.024.07.01.15.021.227.04.076.017.214.044.257.072.01.005-.029 0-.046.01-.213.148.59.255.648.165.007-.012.01-.014.012-.02h.003c.375-.027.838-.041 1.177-.068.071-.007-.103-.038-.076-.045.026-.008-.007.001.003-.002.008-.003-.002-.002 0-.003l.162-.016c.277-.029 1.15-.116 1.532-.162.027-.004-.025-.002.08-.003.104 0 .346.003.523-.006.176-.008.304-.043.473-.068.59-.087 1.103-.136 1.88-.125.776.011 1.609.036 2.44.076 1.256.06 2.45.17 3.55-.055.022-.005-.063-.005.156-.03.218-.024 1.16.021 1.485.054 1.3.131 2.316.097 3.545-.016 1.228-.114 2.313-.18 3.283-.37.026-.005-.055-.011-.09-.011-.56.004-1.503.026-1.988.026-.484.001-.606-.04-.952-.04h-.036c.013-.001.035-.007.035-.025-.001-.037.585-.096.721-.13.137-.034-.089-.08-.29-.078-1.428.021-2.5-.068-4.026-.051-2.433.026-5.19.085-7.693.134-1.405.027-2.614.058-4.008.152-1.394.095-2.896.103-4.366.051-.12-.004-.387-.01-.393-.012-.005-.003-.032-.047.177-.034.209.013 1.118.039 1.463.036.291-.125-.353-.109.781-.124.197-.003.339-.037.015-.055-.324-.018-.776-.108-1.173-.102-1.471.025-2.882.057-4.33-.041-.269-.018-.732-.026-.896-.033-.164-.007-.068-.018-.095-.026-.028-.008-.136-.055-.05-.055.952-.002 2.02.013 3.011-.003.001 0 0 0 0 0l.019.003c.07.01-.149-.018.094.015.242.033.811.052 1.204.051 2.995-.01 6.013-.008 9.01-.062.187-.004.363-.005.56 0 .619.02 1.076 0 1.744.004.668.005 1.54.015 2.25-.004h.016c.001 0 0 0 0 0h.548l2.821.003c.046 0-.012-.002.027.002.038.003-.07-.008.1.007.171.014.853.01.989-.005l.028-.003h.001l.05-.001h.1c.213-.002.695-.002 1.022 0l1.111.001c.915.003 1.882-.004 2.801.004.224.002.355.02.585-.002.002 0 0 0 0 0l.05-.002c.09-.002.358.003.52-.002.164-.004.393-.028.578-.028.186-.001.351-.01.549-.003.7.029 1.429.023 2.135.003l.121-.002h.107c.88.009 1.818.009 2.69.003 1.974-.014 3.931-.012 5.887-.004.526.002.98-.005 1.464-.033.019-.001.001-.015-.082-.015-.083-.001.11-.004.388-.004h1.316c-.349.002-.717.008-1.073.02.618.028 1.182.036 1.824.035 2.321-.004 4.742-.006 7.052.008 3.258.02 6.426 0 9.674.032.33.004.73-.003 1.073-.01 1.027-.02 2.045-.02 3.077-.023.041 0 .097-.005.104-.018.007-.014-.093-.027-.156-.028-1.32-.03-2.637-.046-3.962-.047-.278 0-.536.026-.808.037.284-.016.437-.049.774-.052.338-.004 1.466-.006 1.491-.093.026-.088-.481-.025-.612-.053 2.714.004 5.384.002 8.127.003.925 0 2.13.026 2.367-.218.048-.05-.133-.074-.166-.111-.032-.038-.344-.013-.347-.032-.03-.128-1.1-.08-1.525-.077-.427.002-.871-.009-1.292-.005.961-.025 2.167.02 3.067-.037.697-.044-.005-.117-.432-.118-4.503-.01-9.046.001-13.571.008l-10.851.017.027-.015-.082.015-5.143.005c.321-.107.776-.215.368-.316.06-.007.096-.014.108-.021.009-.006.012-.01.01-.012l.045.007c.35.022.794.02 1.23.022h.528c.179 0 .359 0 .54-.002 1.01-.008 2.035-.043 3.04-.044.194-.001.387-.004.58-.009.904-.032 1.773-.025 2.653-.031 1.948-.035 3.88-.05 5.826-.082.712-.012 1.443-.016 1.953-.088.094.003.192.004.294.003.007 0 .013.002.013.002.076.014.185.015.335.001l.739-.005c1.12-.009 2.256-.057 3.369-.053.474-.006.764-.022.307-.056-.421-.03-1.219.013-1.556-.04l3.345-.048c.685-.013 1.497.036 1.978-.073 1.96-.02 3.938-.018 5.877-.068 1.704-.044 3.411-.086 5.12-.127 1.166-.028 1.754-.148 2.802-.201.527-.027.45-.085.57-.131l-.193-.076c.23-.087.455-.166-.408-.224-.51-.035.082-.077.648-.093.473-.03.859-.065.506-.113-.079-.01-.112-.022-.123-.034.84.002 1.413-.005 1.392-.038 0-.004.85-.006.48-.023-.203-.009-.61-.014-.946-.01l-.845.003c.017-.01.031-.02.028-.03.06-.03.017-.055-.209-.072-.097-.028-.38-.032-.656-.036 1.31-.074 1.29-.072.65-.154-.45-.058-.991-.093-1.884-.084-.793.009-1.575.007-2.362.01h-.698c-.264-.004-.585.008-.797-.013l.945-.054c.666-.014 1.347.011 2.298-.056-1.282-.04-2.496-.009-3.609-.012-.596-.001-1.203-.001-1.345-.068.302-.006.61-.002 1.016-.01.769.003 1.53.008 2.29.013.387.003.868.002 1.098-.01.129-.008-.041-.014-.283-.016l-2.294-.016h.006-.034l-.525-.004c-.922.004-1.63-.006-2.007-.028-.38-.023.467-.035.88-.043 1.148-.023 1.245-.032-.243-.043-1.47-.01-2.936-.017-4.452-.018-.087-.001-.179-.002-.275 0-1.028-.016-2.336 0-3.317-.022-.144-.016.015-.027.667-.025 1.478.004 2.659-.01 3.627-.04 1.296.02 2.646.02 4.029.008.26.003.666.004.515.015-.194.016-.27.029.519.025.613-.002.981-.015.806-.032-.195-.02-.723-.03-1.489-.03-1.378-.023-.06-.027.341-.037.374-.004 1.098-.005.938-.017-.428-.03-.189-.077-2.178-.077-.971 0-1.822-.014-2.655-.027-.147-.005-.223-.01-.26-.014.055.004.141.008.26.014-.2-.026.227-.033 1.093-.026.385.003.969.011 1.066-.004.13-.02-.578-.02-1.107-.02h-.023c.003-.007-.001-.013-.001-.02l.352-.004c.498-.004 1.095.002 1.486-.012l1.983-.025c-.394-.021-1.74-.024-1.163-.053.293-.014 1.087-.008 1.504-.001 1.936.035 1.27-.021 1.564-.036.234-.012-.393-.03-.232-.048 1.184-.045.806-.062-1.502-.07v-.02l.751-.009-.104-.003h.032l.072.003c.58-.002 1.216.006 1.741-.006h1.06c.125-.029.236-.058.346-.088.684.006 1.55-.003 2.162.01.75.014 1.457.025 2.07-.005.574-.028.338-.088-.479-.097-1.108-.012-2.192-.027-3.33-.037.67-.228 1.115-.483 1.978-.69-6.119.075-11.8.018-17.562-.263.533 0 .953-.007 1.12-.028.692-.032 1.834-.023 2.87-.023 1.414-.01 2.794.035 4.366.007-.754-.033-2.336-.016-2.888-.052-.12-.008-.306.014-.39.023-.969 0-1.292-.023-1.829-.038.196-.012.314-.026.6-.035 1.12-.038 1.062-.044-.748-.054-.513-.003-1.055-.001-1.582-.002-.822-.013-1.728-.01-2.615-.01h.006c-.786-.015-1.717-.004-2.551-.01l-.29-.005-.393-.025c.152-.008.637-.007 1.083-.01.89-.004 2.096.008 2.492-.029l.717-.009c1.3.017 2.637.02 4.02.009.246.003.65.003.547.015-.091.01-.434.021.237.026.479.003.88-.005 1.046-.015.826-.044-.552-.041-1.464-.048-1.365-.023-.106-.026.357-.036l.808-.011c-.038-.033.195-.073-1.527-.08-1.153-.005-2.134-.019-3.157-.032-.114-.023.278-.03 1.058-.025.424.003 1.082.015 1.16-.005.072-.019-.682-.019-1.225-.02-.129-.018.296-.02.806-.021.539 0 1.02-.005 1.355-.017l1.697-.018c-.158-.025-1.525-.024-1.258-.05.192-.02.866-.012 1.374-.012 1.396.034 1.396.034 1.839-.02l-.268-.06c.89-.02 1.073-.04-.088-.06-.006-.002-.02-.005-.044-.007l-.747-.025c.284-.002.565-.006.853-.006.672-.001 1.545 0 1.533-.023-.012-.023-.797-.031-1.608-.03l-1.449-.019c-.27-.011-1.419-.026.16-.032 1.288-.004 2.57-.014 3.82.004.663.015 1.563 0 2.24.015.66.014 1.357.026 1.964-.002.56-.026.4-.092-.328-.099-1.658-.015-3.157-.042-4.943-.048-2.01-.015-3.861-.04-5.566-.072l-.474-.008c4.758-.018 9.502-.075 14.267-.18.23-.164 1.176-.202 1.592-.343-1.737-.002-3.205-.023-4.682-.236 1.49.012 1.354-.118 1.498-.392 1.868-.041 3.956-.048 4.113-.536 3.133-.143 5.499-.435 7.894-.886.716.06 1.239.025 1.93-.047.043-.005.025-.033.186-.028.16.006.362.032.544.06.183.028.64.013.84.009.202-.005.536-.02.488-.063-.048-.043-.395-.044-.467-.066-.071-.022.218.004.226-.007-3.168-.24-6.554-.199-9.77-.372-.036 0 2.114-.07 1.64-.084-.475-.013-3.408.12-3.73-.07 8.274-.041 16.616-.017 24.917-.05 1.489-.279.302-.334-1.01-.477-2.36.059-4.437.128-6.598-.128-3.774.053-7.277.096-10.93-.15 4.832-.239 9.682-.314 14.62-.377 5.281-.281 10.612-.504 15.797-.862-.13-.082-.317-.147-.525-.205.755-.038 1.51-.076 2.268-.112 1.193.036 1.925-.095 2.428-.309l3.051-.352c.702-.04.863-.16.931-.293h.001z" mask="url(#tr7frtxive)"/>
                </g>
                <path fill="#000" d="M144.716 1.004L144.284.965 144.518 1.035zM356 1l-1 .49c.21.405.58.496.99.51l.01-1M137 .937l1 .167c-.255-.068.522-.302-1-.167M37.791 8.006c-.048-.01-.06-.024-.157-.026-.098-.002-.28.009-.425.014.05.01.06.025.158.026.096.002.28-.009.425-.014M296.157 26.895c-1.015.012-2.232.004-3.13.141-.088.013.065.046.107.07l3.797-.012c.193-.102-.007-.208-.774-.199" transform="translate(211 999)"/>
                <g transform="translate(211 999) translate(267 27)">
                    <mask id="kt1gkovjfg" fill="#fff">
                        <use xlink:href="#5lz6wujpwf"/>
                    </mask>
                    <path fill="#000" d="M.489.312L3.446.5C2.856.166 1.803.153.49.312" mask="url(#kt1gkovjfg)"/>
                </g>
                <path fill="#000" d="M31.992 5c-.176-.004-.292-.01-.453-.01-.145 0-.437.004-.49.007-.108.007-.015.014.424.013.171 0 .318-.006.52-.01M636 7.995c-.003.03.777.02 1.285.026.296.002.734.003.714-.012-.036-.027-.788-.023-1.273-.03-.365-.004-.724.003-.726.016M626 19.995c-.003.03.777.02 1.284.026.297.002.736.003.715-.012-.037-.027-.788-.023-1.274-.03-.364-.004-.724.003-.725.016M621.001 16.998c.05.029.799.016 1.236.022.346 0 .83.004.755-.014-.094-.022-.812-.02-1.291-.025-.392-.005-.723.004-.7.017" transform="translate(211 999)"/>
            </g>
        </g>
    </g>
</svg>
