<svg xmlns="http://www.w3.org/2000/svg" width="60" height="60" viewBox="0 0 60 60">
    <g fill="none" fill-rule="evenodd">
        <g fill="#000" fill-rule="nonzero">
            <g>
                <path d="M28.268 30.075c-.458.456-.458 1.196 0 1.654.458.457 1.2.457 1.657 0 .458-.458.458-1.198 0-1.654-.457-.457-1.199-.457-1.657 0z" transform="translate(-1083 -4307) translate(1083 4307)"/>
                <path d="M46.902 3.48c-2.011 1.554-2.56 2.355-9.691 9.4l-4.276-.696 1.962-1.958c1.374-1.371 1.375-3.59 0-4.962-1.374-1.371-3.598-1.371-4.972 0l-5.542 5.531-19.38-3.15c-1.253-.202-2.534.211-3.43 1.106-1.724 1.72-1.49 4.566.476 5.986l19.313 13.96-3.615 3.608c-1.24 1.237-2.544 2.938-3.884 5.062l-9.007-2.643c-1.33-.39-2.765-.025-3.747.953-1.672 1.669-1.419 4.44.523 5.782l7.384 5.101c-1.286 2.831-2.067 4.879-2.103 4.973-.164.43-.06.917.267 1.242.327.328.815.43 1.244.267.095-.036 2.146-.816 4.983-2.099l5.112 7.37c1.347 1.941 4.123 2.187 5.793.52.98-.979 1.346-2.412.955-3.738l-2.648-8.99c2.13-1.338 3.832-2.64 5.071-3.875l3.616-3.61 13.987 19.276c1.425 1.966 4.276 2.194 5.998.476.895-.894 1.31-2.174 1.107-3.425l-3.155-19.341 5.54-5.53c1.375-1.372 1.375-3.593 0-4.964-1.373-1.371-3.596-1.371-4.97 0l-1.963 1.959-.696-4.268c7.066-7.125 7.855-7.66 9.413-9.666l.006-.008c3.615-4.675 4.46-9.397 2.104-11.75C56.319-.973 51.587-.13 46.902 3.48zm-15.32 3.438c.458-.457 1.2-.457 1.658 0 .458.458.458 1.196 0 1.654l-3.156 3.149-2.85-.463 4.348-4.34zM3.423 12.842c-.802-.58-.894-1.738-.193-2.437.365-.365.888-.533 1.397-.45l30.542 4.962L23.04 27.021 3.423 12.84zm-.657 24.49c.375-.373.922-.513 1.429-.364l8.424 2.472c-.861 1.506-1.73 3.17-2.598 4.97l-7.055-4.874c-.74-.512-.837-1.569-.2-2.204zM22.654 57.18c-.631.63-1.692.546-2.208-.199l-4.884-7.042c1.805-.866 3.472-1.734 4.98-2.592l2.476 8.407c.15.507.01 1.053-.364 1.426zM51.47 26.766c.458-.457 1.198-.457 1.657 0 .458.458.457 1.198 0 1.655l-4.349 4.34-.463-2.846 3.155-3.149zm-1.386 28.557c.083.509-.086 1.03-.45 1.395-.698.696-1.86.61-2.443-.193l-14.206-19.58 12.127-12.104 4.972 30.482zM26.033 40.575c-1.29 1.288-3.177 2.677-5.61 4.132-3.162 1.89-6.904 3.68-10.28 5.11 1.473-3.46 3.3-7.255 5.235-10.447 1.415-2.336 2.77-4.157 4.026-5.41C48.03 5.457 46.334 6.927 48.071 5.54c1.927-.123 3.624.449 4.805 1.627 1.18 1.179 1.754 2.873 1.63 4.796-1.392 1.738.064.061-28.473 28.611zM56.512 8.89c-.375-1.289-1.04-2.439-1.979-3.376-.938-.936-2.09-1.6-3.382-1.974 1.696-.859 4.552-1.82 5.869-.507 1.039 1.037.78 3.321-.508 5.857z" transform="translate(-1083 -4307) translate(1083 4307)"/>
                <path d="M34.897 23.459l-3.314 3.307c-.458.457-.458 1.197 0 1.654.458.457 1.2.457 1.658 0l3.313-3.308c.458-.456.458-1.197 0-1.653-.458-.457-1.2-.457-1.657 0zM41.526 16.842l-3.315 3.309c-.457.457-.457 1.197 0 1.654.458.457 1.2.457 1.657 0l3.316-3.309c.457-.456.457-1.197 0-1.654-.458-.457-1.2-.457-1.658 0z" transform="translate(-1083 -4307) translate(1083 4307)"/>
            </g>
        </g>
    </g>
</svg>
