<svg xmlns="http://www.w3.org/2000/svg" width="68" height="68" viewBox="0 0 68 68">
    <defs>
        <filter id="noi30le5ma">
            <feColorMatrix in="SourceGraphic" values="0 0 0 0 1.000000 0 0 0 0 1.000000 0 0 0 0 1.000000 0 0 0 1.000000 0"/>
        </filter>
        <filter id="fekh5q1w2b" width="148%" height="148%" x="-24%" y="-24%" filterUnits="objectBoundingBox">
            <feOffset dy="2" in="SourceAlpha" result="shadowOffsetOuter1"/>
            <feGaussianBlur in="shadowOffsetOuter1" result="shadowBlurOuter1" stdDeviation="2"/>
            <feColorMatrix in="shadowBlurOuter1" result="shadowMatrixOuter1" values="0 0 0 0 0 0 0 0 0 0 0 0 0 0 0 0 0 0 0.5 0"/>
            <feMerge>
                <feMergeNode in="shadowMatrixOuter1"/>
                <feMergeNode in="SourceGraphic"/>
            </feMerge>
        </filter>
    </defs>
    <g fill="none" fill-rule="evenodd">
        <g>
            <g filter="url(#noi30le5ma)" transform="translate(-231 -1511) translate(240 1505)">
                <g fill="#000" fill-rule="nonzero" filter="url(#fekh5q1w2b)" transform="translate(0 15)">
                    <path d="M25.208 5.625c-.805 0-1.458.653-1.458 1.458 0 .806.653 1.459 1.458 1.459 4.825 0 8.75 3.925 8.75 8.75 0 .805.654 1.458 1.459 1.458s1.458-.653 1.458-1.458c0-6.433-5.234-11.667-11.667-11.667z"/>
                    <path d="M21.24.392C14.651 1.775 9.31 7.09 7.903 13.75c-1.187 5.624.276 11.27 4.013 15.49 1.827 2.063 2.875 4.786 2.875 7.478v2.93c0 1.95 1.27 3.605 3.023 4.179C18.39 47.247 21.346 50 25 50c3.652 0 6.609-2.752 7.185-6.173 1.753-.574 3.023-2.23 3.023-4.179v-2.93c0-2.698 1.051-5.388 2.96-7.575 2.794-3.202 4.332-7.31 4.332-11.566C42.5 6.486 32.394-1.948 21.24.392zM25 47.07c-1.875 0-3.519-1.295-4.126-3.037h8.25c-.606 1.742-2.25 3.037-4.124 3.037zm7.291-7.422c0 .808-.654 1.465-1.458 1.465H19.166c-.804 0-1.458-.657-1.458-1.465v-1.465H32.29v1.465zm3.683-12.436c-2.033 2.33-3.285 5.141-3.602 8.041H17.628c-.317-2.901-1.566-5.74-3.532-7.96-3.115-3.518-4.332-8.232-3.34-12.935 1.16-5.49 5.612-9.95 11.081-11.098 9.336-1.96 17.746 5.083 17.746 14.317 0 3.546-1.281 6.968-3.609 9.635zM4.219 17.5H1.406C.63 17.5 0 18.2 0 19.063c0 .862.63 1.562 1.406 1.562H4.22c.776 0 1.406-.7 1.406-1.563 0-.862-.63-1.562-1.406-1.562zM5.196 10L3.125 7.929c-.572-.572-1.5-.572-2.071 0-.572.572-.572 1.5 0 2.071l2.071 2.071c.572.572 1.5.572 2.071 0 .572-.572.572-1.5 0-2.071zM5.196 26.054c-.572-.572-1.5-.572-2.071 0l-2.071 2.071c-.572.572-.572 1.5 0 2.071.572.572 1.5.572 2.071 0l2.071-2.071c.572-.572.572-1.5 0-2.071zM48.594 17.5H45.78c-.776 0-1.406.7-1.406 1.563 0 .862.63 1.562 1.406 1.562h2.813c.776 0 1.406-.7 1.406-1.563 0-.862-.63-1.562-1.406-1.562zM48.946 7.929c-.572-.572-1.5-.572-2.071 0L44.804 10c-.572.572-.572 1.5 0 2.071.572.572 1.5.572 2.071 0L48.946 10c.572-.572.572-1.5 0-2.071zM48.946 28.125l-2.071-2.071c-.572-.572-1.5-.572-2.071 0-.572.572-.572 1.5 0 2.071l2.071 2.071c.572.572 1.5.572 2.071 0 .572-.572.572-1.5 0-2.071z"/>
                </g>
            </g>
        </g>
    </g>
</svg>
