<?xml version="1.0" encoding="utf-8"?>
<!-- Generator: Adobe Illustrator 24.3.0, SVG Export Plug-In . SVG Version: 6.00 Build 0)  -->
<svg version="1.1" id="圖層_1" xmlns="http://www.w3.org/2000/svg" xmlns:xlink="http://www.w3.org/1999/xlink" x="0px" y="0px"
	 viewBox="0 0 89.3 20.3" style="enable-background:new 0 0 89.3 20.3;" xml:space="preserve">
<style type="text/css">
	.st0{fill:#094392;}
	.st1{fill:#2D7FBA;}
	.st2{fill:#696A6A;}
</style>
<g>
	<path class="st0" d="M7.2,4.4H8c1.9,0,3.5,0,3.2,2.6c-0.4,2.5-2.1,2.4-3.9,2.4H6.5L7.2,4.4z M0,20.3h4.9l1-6.7h2.8
		c4.3,0,7-2.1,7.7-6.8c0.7-4.6-1.8-6.6-5.9-6.6H3L0,20.3z"/>
	<path class="st1" d="M36.9,1.2l-1.3,8.4l0,0c0.9-1.1,2.2-1.8,3.7-1.8c2.7,0,3.7,1.9,3.3,4.7l-1,6.9h-3.8l0.9-5.8
		c0.2-1.3,0.2-2.7-1.3-2.7s-2.2,1.4-2.4,2.7l-0.9,5.8h-3.7l2.7-18.2C33.1,1.2,36.9,1.2,36.9,1.2z"/>
	<path class="st1" d="M50.5,11.2c1.5,0,2.3,1.2,2,2.5c-0.1,1.4-1.4,2.5-2.8,2.5c-1.5,0-2.3-1.1-2-2.5C47.8,12.3,49.1,11.3,50.5,11.2
		z M51,7.8c-3.4,0-6.7,2.2-7.3,6s2.1,6,5.5,6s6.7-2.2,7.3-6S54.4,7.8,51,7.8z"/>
	<path class="st1" d="M62.2,9.5L62.2,9.5c0.9-1.1,2.2-1.8,3.7-1.8s2.7,0.7,3.3,2.2c0.9-1.3,2.4-2.1,4-2.2c2.7,0,3.3,1.9,3,4.5
		l-1.1,7.2h-3.8l0.8-5.4c0.2-1.2,0.5-3.1-1.1-3.1c-1.7,0-2.1,1.7-2.3,3.1l-0.8,5.4h-3.8l0.8-5.4c0.2-1.3,0.5-3.2-1.2-3.2
		s-2,1.9-2.2,3.2l-0.8,5.4h-3.8l1.7-11.3h3.8L62.2,9.5z"/>
	<path class="st1" d="M81.2,12.1c0.4-1.1,1.4-1.8,2.5-1.8c1,0,1.8,0.7,1.9,1.7c0,0,0,0,0,0.1H81.2z M88.8,14
		c0.5-3.8-1.2-6.3-4.9-6.3c-3.5,0-6.2,2.3-6.8,6c-0.6,3.9,1.7,6,5.3,6c2.4,0,5-1.2,6-3.9h-3.6c-0.4,0.7-1.2,1.1-2,1
		c-1.6,0-2.2-0.9-2-2.5h7.9L88.8,14z"/>
	<path class="st2" d="M57.6,1c0.6,0,1.1,0.6,1.1,1.2c0,0.1,0,0.1,0,0.2c-0.1,0.7-0.8,1.5-1.5,1.5s-1.1-0.8-1-1.5
		C56.3,1.7,56.9,1.1,57.6,1z M57.1,4.7c1.3-0.1,2.3-1,2.5-2.3c0.2-1-0.4-2-1.4-2.2c-0.1,0-0.3,0-0.4,0c-1.3,0.1-2.3,1-2.5,2.3
		C55.1,3.7,55.8,4.7,57.1,4.7z"/>
	<path class="st2" d="M63.2,0.2h0.6l1.8,3l0,0L66,0.3h0.8l-0.6,4.4h-0.6l-1.8-3l0,0l-0.4,2.9h-0.8L63.2,0.2z"/>
	<path class="st2" d="M70.7,3.9h1.2l-0.1,0.7h-2l0.7-4.3h0.8L70.7,3.9z"/>
	<path class="st2" d="M75.7,4.6h-0.8l0.6-4.3h0.9L75.7,4.6z"/>
	<path class="st2" d="M79.9,0.2h0.6l1.8,3l0,0l0.4-2.9h0.8l-0.7,4.4h-0.6l-1.8-3l0,0L80,4.6h-0.8L79.9,0.2z"/>
	<path class="st2" d="M87.8,1l-0.1,1H89l-0.1,0.7h-1.3l-0.2,1.2h1.4l-0.1,0.7h-2.2l0.6-4.3h2.2L89.2,1C89.2,1,87.8,1,87.8,1z"/>
	<path class="st1" d="M30.8,7.1l0.9-6c-1-0.5-2-0.8-3.1-0.9L27.9,5C29.1,5.3,30.2,6,30.8,7.1z"/>
	<path class="st1" d="M29.9,13.4c-0.9,1-2.2,1.7-3.5,1.9l-0.7,4.8c1.2-0.2,2.3-0.4,3.4-0.8L29.9,13.4z"/>
	<path class="st0" d="M25.6,20.2l0.7-4.8c-0.3,0-0.5,0.1-0.8,0.1c-2.9,0-4.6-2.2-4.1-5.2S24.1,5,27,5c0.3,0,0.6,0,0.9,0.1l0.7-4.8
		c-0.3,0-0.7-0.1-1-0.1c-2.7,0.1-5.3,1.2-7.3,3.1c-2,1.9-3.3,4.3-3.7,7c-0.4,2.8,0.1,5.3,1.8,7.2c1.6,1.8,3.9,2.8,6.3,2.8
		C25,20.3,25.3,20.3,25.6,20.2z"/>
</g>
</svg>
