<svg xmlns="http://www.w3.org/2000/svg" width="53" height="78" viewBox="0 0 53 78">
    <defs>
        <filter id="prefix__a">
            <feColorMatrix in="SourceGraphic" values="0 0 0 0 1.000000 0 0 0 0 1.000000 0 0 0 0 1.000000 0 0 0 1.000000 0"/>
        </filter>
    </defs>
    <g fill="none" fill-rule="evenodd" filter="url(#prefix__a)" transform="translate(-932 -2844)">
        <path fill="#000" fill-rule="nonzero" d="M983.783 2907.199c-.635 0-1.149.511-1.149 1.142v10.743c0 .347-.285.63-.634.63h-6.176v-22.5c0-.631-.514-1.143-1.149-1.143-.634 0-1.149.512-1.149 1.143v22.5H961.09l3.607-3.945c.394-.431.58-1.045.497-1.643l-.006-.035-3.434-20.18.925-1.386c.512.361.906.71 1.645.71.752 0 1.454-.42 1.8-1.108l3.623-7.221 8.253 3.178c.298.128 4.634 2.07 4.634 7.197v7.728c0 .631.514 1.143 1.149 1.143.634 0 1.148-.512 1.148-1.143v-7.728c0-6.756-5.816-9.211-6.063-9.313l-.022-.008-13.735-5.29v-3.204c2.181-1.688 3.694-4.19 4.074-7.043 1.087-.076 2.097-.48 2.92-1.185 1.077-.92 1.695-2.26 1.695-3.675 0-1.175-.426-2.296-1.185-3.17v-4.232c0-7.808-6.388-14.161-14.239-14.161-7.85 0-14.238 6.353-14.238 14.16v4.344c-.767.865-1.185 1.93-1.185 3.058 0 1.416.618 2.756 1.694 3.676.824.705 1.833 1.108 2.92 1.185.383 2.907 1.94 5.502 4.307 7.212v3.034l-13.72 5.29-.022.009c-.248.101-6.064 2.557-6.064 9.312v23.803c0 1.608 1.316 2.917 2.933 2.917h10.945c.635 0 1.15-.512 1.15-1.143s-.515-1.143-1.15-1.143h-2.472v-22.5c0-.631-.514-1.143-1.148-1.143-.635 0-1.15.512-1.15 1.143v22.5h-6.175c-.35 0-.635-.282-.635-.63v-23.803c0-5.145 4.365-7.082 4.633-7.196l8.246-3.18 3.623 7.222c.347.69 1.05 1.107 1.801 1.107.735 0 1.126-.342 1.645-.709l.925 1.385-3.434 20.181-.006.035c-.083.597.103 1.212.497 1.643l3.607 3.946h-4.595c-.634 0-1.149.511-1.149 1.142 0 .631.515 1.143 1.15 1.143h30.69c1.618 0 2.933-1.308 2.933-2.916v-10.743c0-.63-.515-1.142-1.15-1.142zm-16.188-23.122l-3.377 6.732-4.062-2.87 4.172-5.12 3.267 1.258zm-6.79 7.124l-.877 1.311h-2.865l-.875-1.31 2.308-1.631 2.308 1.63zm-6.633-10.163v-2.138c1.395.56 2.887.819 4.344.819 1.506 0 2.983-.32 4.297-.89v2.218l-4.317 5.3-4.324-5.309zm17.33-15.475c0 .748-.326 1.456-.894 1.942-.376.322-.83.527-1.327.608v-5.1c1.32.213 2.221 1.302 2.221 2.55zm-24.03 2.55c-1.335-.216-2.22-1.314-2.22-2.55 0-1.222 1.017-2.216 2.22-2.493v5.043zm.062-7.371c-.366.042-.785.14-1.098.246v-2.827c0-6.548 5.356-11.876 11.94-11.876s11.94 5.328 11.94 11.876v2.749c-.333-.101-.68-.168-1.035-.2 0-1.102.01-.89-3.617-4.767-.667-.713-1.77-.862-2.61-.316-4.002 2.6-8.885 3.906-13.39 3.585-.988-.074-1.888.573-2.13 1.53zm2.236 8.27V2861.508c4.96.29 10.159-1.176 14.359-3.851 1.663 1.776 2.564 2.707 2.854 3.062v8.293c0 4.639-3.803 8.421-8.467 8.421-5.238 0-8.746-4.04-8.746-8.42zm3.005 21.797l-3.378-6.732 3.262-1.256 4.173 5.122-4.057 2.866zm1.318 23.528l3.325-19.54h2.155l3.326 19.54-4.403 4.818-4.403-4.818z"/>
    </g>
</svg>
