<svg xmlns="http://www.w3.org/2000/svg" width="55" height="68" viewBox="0 0 55 68">
    <defs>
        <filter id="prefix__a">
            <feColorMatrix in="SourceGraphic" values="0 0 0 0 1.000000 0 0 0 0 1.000000 0 0 0 0 1.000000 0 0 0 1.000000 0"/>
        </filter>
    </defs>
    <g fill="none" fill-rule="evenodd" filter="url(#prefix__a)" transform="translate(-932 -3027)">
        <g fill="#000" fill-rule="nonzero" transform="translate(932 3027)">
            <path d="M40.37.332C40.16.119 39.874 0 39.576 0h-31.5C3.728.005.205 3.554.2 7.933v52.134c.005 4.38 3.528 7.928 7.875 7.933h38.25c4.347-.005 7.87-3.554 7.875-7.933V14.733c0-.3-.119-.589-.33-.801L40.37.332zm.33 3.537l9.66 9.731h-4.035c-3.105-.004-5.622-2.539-5.625-5.667V3.87zM8.075 2.267H38.45v5.666c.005 4.38 3.528 7.929 7.875 7.934h5.625V47.6H2.45V7.933c.003-3.128 2.52-5.663 5.625-5.666zm38.25 63.466H8.075c-3.105-.003-5.622-2.538-5.625-5.666v-10.2h49.5v10.2c-.003 3.128-2.52 5.663-5.625 5.666z"/>
            <path d="M24.033 52c-.644 0-1.166.537-1.166 1.2v7.2c0 .663-.523 1.2-1.167 1.2s-1.167-.537-1.167-1.2c0-.663-.522-1.2-1.166-1.2-.645 0-1.167.537-1.167 1.2 0 1.988 1.567 3.6 3.5 3.6s3.5-1.612 3.5-3.6v-7.2c0-.663-.522-1.2-1.167-1.2zM32.7 54.4h2.333c.645 0 1.167-.537 1.167-1.2 0-.663-.522-1.2-1.167-1.2H32.7c-1.933 0-3.5 1.612-3.5 3.6s1.567 3.6 3.5 3.6c.644 0 1.167.537 1.167 1.2 0 .663-.523 1.2-1.167 1.2h-2.333c-.645 0-1.167.537-1.167 1.2 0 .663.522 1.2 1.167 1.2H32.7c1.933 0 3.5-1.612 3.5-3.6s-1.567-3.6-3.5-3.6c-.644 0-1.167-.537-1.167-1.2 0-.663.523-1.2 1.167-1.2z"/>
            <circle cx="31.2" cy="28" r="1"/>
            <circle cx="23.2" cy="28" r="1"/>
            <circle cx="27.2" cy="28" r="1"/>
            <path d="M13.367 30.111c.644 0 1.166.498 1.166 1.111v4.445c.003 1.84 1.568 3.33 3.5 3.333.645 0 1.167-.497 1.167-1.111s-.522-1.111-1.167-1.111c-.644 0-1.166-.498-1.166-1.111v-4.445c0-.82-.318-1.612-.894-2.222.576-.61.894-1.402.894-2.222v-4.445c0-.613.522-1.11 1.166-1.11.645 0 1.167-.498 1.167-1.112 0-.614-.522-1.111-1.167-1.111-1.932.002-3.497 1.493-3.5 3.333v4.445c0 .613-.522 1.11-1.166 1.11-.645 0-1.167.498-1.167 1.112 0 .614.522 1.111 1.167 1.111zM37.533 35.667c0 .613-.522 1.11-1.166 1.11-.645 0-1.167.498-1.167 1.112 0 .614.522 1.111 1.167 1.111 1.932-.002 3.497-1.493 3.5-3.333v-4.445c0-.613.522-1.11 1.166-1.11.645 0 1.167-.498 1.167-1.112 0-.614-.522-1.111-1.167-1.111-.644 0-1.166-.498-1.166-1.111v-4.445c-.003-1.84-1.568-3.33-3.5-3.333-.645 0-1.167.497-1.167 1.111s.522 1.111 1.167 1.111c.644 0 1.166.498 1.166 1.111v4.445c0 .82.318 1.612.894 2.222-.576.61-.894 1.402-.894 2.222v4.445z"/>
        </g>
    </g>
</svg>
