<svg xmlns="http://www.w3.org/2000/svg" width="65" height="68" viewBox="0 0 65 68">
    <defs>
        <filter id="prefix__a">
            <feColorMatrix in="SourceGraphic" values="0 0 0 0 1.000000 0 0 0 0 1.000000 0 0 0 0 1.000000 0 0 0 1.000000 0"/>
        </filter>
    </defs>
    <g fill="none" fill-rule="evenodd" filter="url(#prefix__a)" transform="translate(-926 -3204)">
        <g fill="#000" fill-rule="nonzero">
            <path d="M53.064 51.185c-4.847-3.573-10.515-5.818-16.466-6.534l2.158-5.346c.136-.336.403-.601.735-.728 3.722-1.426 6.902-3.916 9.198-7.2 2.35-3.361 3.591-7.316 3.591-11.435 0-5.3-2.049-10.29-5.77-14.05C42.79 2.135 37.836.043 32.56.002c-4.882-.042-9.6 1.735-13.283 4.993-.41.364-.45.993-.088 1.406.363.412.99.452 1.401.089 3.316-2.933 7.561-4.533 11.954-4.496 4.75.037 9.209 1.92 12.557 5.303 3.35 3.385 5.194 7.876 5.194 12.646 0 3.708-1.117 7.266-3.231 10.291-2.068 2.958-4.931 5.2-8.281 6.483-.845.323-1.525.994-1.867 1.841l-2.81 6.959-.01.027-.003.008-1.06 2.624c-.155.385-.492.426-.63.426-.137 0-.474-.041-.63-.426l-1.22-3.022-.015-.038-2.647-6.557c-.342-.848-1.02-1.518-1.86-1.84-7.06-2.7-11.688-9.612-11.514-17.198.084-3.709 1.299-7.248 3.511-10.237.327-.442.235-1.065-.205-1.393-.44-.329-1.062-.236-1.389.205-2.459 3.322-3.808 7.257-3.903 11.38-.192 8.427 4.95 16.105 12.793 19.105.326.125.591.39.727.726l2.157 5.345c-2.768.332-5.485.997-8.095 1.98-.513.194-.773.769-.58 1.284.15.4.528.646.93.646.116 0 .234-.021.349-.064 1.772-.668 3.596-1.18 5.453-1.531-2.417 2.124-4.533 5.49-6.188 9.81h-3.856c1.181-1.537 1.867-3.45 1.867-5.46 0-4.894-3.967-8.905-8.843-8.943h-.07c-4.81 0-8.801 3.903-8.911 8.733-.087 3.772 2.21 7.209 5.717 8.56l1.623 4.022c.26.645.877 1.062 1.57 1.062.694 0 1.31-.417 1.571-1.062l1.623-4.023c.615-.236 1.193-.539 1.729-.897h5.272c-.728 2.213-1.345 4.637-1.831 7.24H2.294c.576-1.296 1.24-2.565 1.981-3.78.286-.47.139-1.082-.33-1.37-.467-.286-1.079-.138-1.365.331-.914 1.502-1.72 3.08-2.396 4.693-.197.473-.145 1.01.139 1.437.283.427.757.681 1.267.681h61.627c.51 0 .985-.255 1.268-.683.283-.427.334-.965.135-1.437-2.447-5.846-6.443-10.927-11.556-14.695zM11.645 57.81c-.504.193-.91.592-1.112 1.096l-1.358 3.365-1.359-3.365c-.203-.504-.607-.903-1.108-1.095-2.734-1.046-4.526-3.722-4.459-6.66.086-3.753 3.187-6.786 6.927-6.786h.054c3.789.03 6.873 3.147 6.873 6.95 0 2.864-1.792 5.474-4.458 6.495zm17.616-10.553l.672 1.666c.41 1.015 1.38 1.67 2.47 1.67 1.091 0 2.061-.655 2.47-1.67l.672-1.664c1.575.881 3.11 2.432 4.486 4.541.19.293.508.451.831.451.187 0 .375-.053.543-.163.459-.3.587-.918.287-1.379-.987-1.514-2.04-2.765-3.149-3.742 4.811.91 9.37 2.894 13.345 5.823 1.622 1.196 3.124 2.53 4.492 3.986H44.716c-.328-.856-.675-1.677-1.038-2.456-.233-.498-.824-.713-1.32-.48-.497.234-.711.827-.478 1.325.241.518.475 1.056.7 1.611H22.22c1.893-4.657 4.34-8.02 7.04-9.519zm-9.701 18.75c.505-2.615 1.152-5.044 1.912-7.239H43.33c.77 2.22 1.417 4.662 1.918 7.24H19.56zm27.709 0c-.48-2.557-1.102-4.996-1.843-7.239h12.683c1.766 2.208 3.249 4.64 4.403 7.24H47.27z" transform="translate(926 3204)"/>
            <path d="M24.187 31.808H40.62c1.033 0 1.874-.845 1.874-1.881V19.152c.758-.798 1.223-1.878 1.223-3.065v-2.784-.01-.01-.027-.002c-.009-.164-.056-.317-.133-.45l-2.666-4.85c-.39-.71-1.136-1.152-1.945-1.152H25.833c-.809 0-1.554.442-1.945 1.152l-2.666 4.85c-.082.142-.13.305-.133.48v2.803c0 1.187.465 2.267 1.223 3.065v10.775c0 1.036.841 1.88 1.875 1.88zm9.822-23.014l.643 3.513h-4.497l.643-3.513h3.211zm7.724 7.293c0 1.354-1.099 2.456-2.448 2.456-1.35 0-2.448-1.102-2.448-2.456V14.3h4.896v1.788zM29.956 14.3h4.895v1.787c0 1.354-1.098 2.456-2.448 2.456-1.35 0-2.448-1.102-2.448-2.456V14.3zm-1.986 0v1.787c0 1.354-1.098 2.456-2.448 2.456-1.35 0-2.448-1.102-2.448-2.456V14.3h4.896zm6.484 15.515h-4.1v-6.268h4.1v6.268zm1.985 0V22.79c0-.681-.552-1.235-1.231-1.235h-5.609c-.679 0-1.231.554-1.231 1.235v7.025h-4.07v-9.452c.389.112.8.172 1.224.172 1.387 0 2.627-.642 3.44-1.646.814 1.004 2.054 1.646 3.441 1.646s2.627-.642 3.441-1.646c.814 1.004 2.054 1.646 3.44 1.646.426 0 .836-.06 1.226-.173v9.453h-4.07zM39.18 8.917l1.864 3.39h-4.373l-.643-3.512h2.946c.086 0 .165.046.206.122zm-13.554 0c.042-.076.12-.123.206-.123h2.947l-.643 3.513h-4.373l1.863-3.39zM56.084 40.767c1.814 0 3.29-1.481 3.29-3.3 0-1.82-1.476-3.301-3.29-3.301s-3.29 1.48-3.29 3.3c0 1.82 1.476 3.3 3.29 3.3zm0-4.608c.72 0 1.304.586 1.304 1.308 0 .72-.585 1.308-1.304 1.308-.719 0-1.304-.587-1.304-1.308 0-.722.586-1.308 1.304-1.308z" transform="translate(926 3204)"/>
            <path d="M50.795 31.478c.311.453.929.568 1.38.256 1.175-.809 2.546-1.23 3.964-1.22 3.79.03 6.873 3.147 6.873 6.95 0 2.864-1.791 5.474-4.457 6.495-.504.192-.909.592-1.112 1.096l-1.359 3.365-1.358-3.365c-.203-.504-.608-.903-1.109-1.095-2.734-1.045-4.526-3.722-4.458-6.66.023-1.012.26-1.984.705-2.89.243-.494.041-1.09-.45-1.334-.492-.243-1.088-.041-1.33.452-.575 1.168-.88 2.422-.91 3.726-.087 3.772 2.21 7.21 5.717 8.56l1.623 4.022c.26.646.877 1.062 1.57 1.062.694 0 1.31-.416 1.57-1.062l1.625-4.022c3.421-1.318 5.719-4.672 5.719-8.35 0-4.893-3.967-8.905-8.844-8.942-1.829-.01-3.592.53-5.103 1.57-.452.312-.566.933-.256 1.386zM9.175 48.017c-1.814 0-3.29 1.481-3.29 3.3 0 1.82 1.476 3.3 3.29 3.3 1.813 0 3.29-1.48 3.29-3.3 0-1.819-1.477-3.3-3.29-3.3zm0 4.608c-.72 0-1.304-.586-1.304-1.307 0-.722.584-1.308 1.304-1.308.719 0 1.303.586 1.303 1.308 0 .72-.584 1.307-1.303 1.307z" transform="translate(926 3204)"/>
        </g>
    </g>
</svg>
