<svg xmlns="http://www.w3.org/2000/svg" width="66" height="22" viewBox="0 0 66 22">
    <path fill="#FFF" d="M1.307 22c.351 0 .644-.117.879-.352.234-.253.351-.546.351-.878v-8.584c0-.137.078-.206.234-.206H9.95c.293 0 .542-.102.747-.307.205-.205.308-.454.308-.747s-.103-.542-.308-.747c-.205-.205-.454-.308-.747-.308H2.771c-.156 0-.234-.068-.234-.205V2.371c0-.156.078-.234.234-.234h8.731c.273 0 .513-.103.718-.308.205-.205.307-.454.307-.747S12.425.54 12.22.335c-.205-.205-.445-.308-.718-.308H1.775C1.307.027.901.198.56.54.218.882.047 1.287.047 1.756V20.77c0 .332.122.62.366.864s.542.366.894.366zm28.623 0c.312 0 .542-.132.688-.396.147-.263.142-.532-.014-.805l-4.834-8.32c-.079-.137-.05-.225.087-.264 1.543-.371 2.745-1.07 3.604-2.095.86-1.025 1.289-2.358 1.289-3.999 0-4.062-2.53-6.094-7.588-6.094h-5.01c-.468 0-.874.171-1.215.513-.342.342-.513.747-.513 1.216V20.77c0 .332.122.62.366.864s.542.366.894.366c.351 0 .644-.122.878-.366.235-.244.352-.532.352-.864v-8.028c0-.156.078-.234.234-.234h3.663c.156 0 .263.068.322.205l4.687 8.086c.215.37.513.664.894.879.38.215.786.322 1.216.322zM22.78 10.486h-3.633c-.156 0-.234-.078-.234-.234V2.283c0-.156.078-.234.234-.234h3.633c1.817 0 3.184.317 4.102.952.918.635 1.377 1.675 1.377 3.12 0 2.91-1.826 4.365-5.479 4.365zM47.04 22c.293 0 .542-.103.747-.308.205-.205.308-.454.308-.747s-.103-.542-.308-.747c-.205-.205-.454-.307-.747-.307h-9.082c-.156 0-.234-.069-.234-.205v-7.998c0-.137.078-.206.234-.206h7.148c.293 0 .542-.102.748-.307.205-.205.307-.454.307-.747s-.102-.542-.307-.747c-.206-.205-.455-.308-.748-.308h-7.148c-.156 0-.234-.078-.234-.234V2.37c0-.156.078-.234.234-.234h8.76c.273 0 .512-.103.718-.308.205-.205.307-.454.307-.747S47.64.54 47.435.335c-.206-.205-.445-.308-.718-.308H36.96c-.469 0-.874.171-1.216.513-.342.342-.513.747-.513 1.216V20.27c0 .47.171.875.513 1.216.342.342.747.513 1.216.513h10.078zm17.52 0c.293 0 .542-.103.747-.308.205-.205.307-.454.307-.747s-.102-.542-.307-.747c-.205-.205-.454-.307-.747-.307h-9.082c-.157 0-.235-.069-.235-.205v-7.998c0-.137.078-.206.235-.206h7.148c.293 0 .542-.102.747-.307.205-.205.308-.454.308-.747s-.103-.542-.308-.747c-.205-.205-.454-.308-.747-.308h-7.148c-.157 0-.235-.078-.235-.234V2.37c0-.156.078-.234.235-.234h8.76c.273 0 .512-.103.717-.308.205-.205.308-.454.308-.747s-.103-.542-.308-.747C64.75.13 64.51.027 64.236.027H54.48c-.468 0-.874.171-1.215.513-.342.342-.513.747-.513 1.216V20.27c0 .47.17.875.513 1.216.341.342.747.513 1.215.513H64.56z"/>
</svg>
